<svg width="115" height="122" viewBox="0 0 115 122" fill="none" xmlns="http://www.w3.org/2000/svg">
<path d="M105.21 82.02L67.1295 59.89L67.0195 21.23L105.1 43.36L105.21 82.02Z" fill="#FF9EB6"/>
<path d="M99.8993 62.7201L61.8193 40.6001L61.9593 40.3301L100.039 62.4601L99.8993 62.7201Z" fill="white"/>
<path d="M99.7099 62.65L61.6299 40.52L61.8199 40.6L99.8999 62.72L99.7099 62.65Z" fill="white"/>
<path d="M89.2692 78.15L51.1992 56.02L61.9892 49.79L100.059 71.9201L89.2692 78.15Z" fill="#BB8C80"/>
<path d="M89.5497 68.52L51.4697 46.39L61.6297 40.52L99.7097 62.65L89.5497 68.52Z" fill="white"/>
<path d="M100.059 71.9201L61.989 49.7901L61.959 40.3301L100.039 62.4601L100.059 71.9201Z" fill="#BB8C80"/>
<path d="M94.2099 60.4401L56.1299 38.3101L61.6299 40.5201L99.7099 62.6501L94.2099 60.4401Z" fill="#BB8C80"/>
<path d="M94.3398 59.8502L56.2598 37.7202L62.0998 40.0702L100.17 62.2002L94.3398 59.8502Z" fill="#955542"/>
<path d="M100.039 62.4603L61.959 40.3303L62.099 40.0703L100.169 62.2003L100.039 62.4603Z" fill="#BB8C80"/>
<path d="M51.4642 46.369L51.3135 46.6284L89.3916 68.7548L89.5423 68.4955L51.4642 46.369Z" fill="white"/>
<path d="M89.5497 68.5201L51.4697 46.3901L56.1297 38.3101L94.2097 60.4401L89.5497 68.5201Z" fill="#BB8C80"/>
<path d="M87.9893 67.7099L92.6493 59.6299L98.1493 61.8399L87.9893 67.7099Z" fill="#BB8C80"/>
<path d="M98.4795 61.6499L98.5095 71.1099L87.7195 77.3399L87.6895 67.8799L87.8395 67.9699L87.9895 67.7099L98.1495 61.8399L98.3395 61.9199L98.4795 61.6499Z" fill="white"/>
<path d="M89.0995 68.6L51.0195 46.48L51.1695 46.56L89.2495 68.69L89.0995 68.6Z" fill="#BB8C80"/>
<path d="M89.2489 68.6901L51.1689 46.5601L51.3189 46.6501L89.3989 68.7801L89.2489 68.6901Z" fill="white"/>
<path d="M92.6291 58.98L92.7791 59.04L98.6191 61.39L98.4791 61.65L98.3391 61.92L98.1491 61.84L92.6491 59.63L87.9891 67.71L87.8391 67.97L87.6891 67.88L87.5391 67.8L92.4891 59.22L92.6291 58.98Z" fill="#955542"/>
<path d="M89.2689 78.1501L51.1989 56.0201L51.1689 46.5601L89.2489 68.6901L89.2689 78.1501Z" fill="white"/>
<path d="M87.8695 67.9599L51.0195 46.4799L55.9695 37.8999L92.8195 59.3799L87.8695 67.9599Z" fill="#955542"/>
<path d="M94.0497 60.0302L55.9697 37.9001L56.1097 37.6602L94.1897 59.7902L94.0497 60.0302Z" fill="#955542"/>
<path d="M94.1894 59.7902L56.1094 37.6602L56.2594 37.7202L94.3394 59.8502L94.1894 59.7902Z" fill="#955542"/>
<path d="M73.6796 93.5502L35.5996 71.4203L40.2496 68.7402L78.3296 90.8602L73.6796 93.5502Z" fill="#FFDDE1"/>
<path d="M60.8991 100.92L22.8291 78.8L33.2591 72.77L71.3391 94.9L60.8991 100.92Z" fill="#FFDDE1"/>
<path d="M84.3392 94.0703L46.2692 71.9403L46.1592 33.2803L84.2292 55.4103L84.3392 94.0703Z" fill="#BB8C80"/>
<path d="M78.3297 90.8599L40.2497 68.7399L40.1797 43.8999L78.2597 66.0299L78.3297 90.8599Z" fill="#FF9EB6"/>
<path d="M82.6789 54.6003L103.539 42.5503L103.649 81.2103L82.7789 93.2603L82.6689 54.6003H82.6789ZM98.4789 61.6503L98.6189 61.3903L92.7789 59.0403L92.6289 58.9803L92.4889 59.2203L87.5389 67.8003L87.6889 67.8903L87.7189 77.3503L98.5089 71.1203L98.4789 61.6603" fill="#BB8C80"/>
<path d="M84.2292 55.41L46.1592 33.28L67.0192 21.23L105.099 43.36L84.2292 55.41Z" fill="#BB8C80"/>
<path d="M52.8095 105.6L14.7295 83.4699L20.4795 80.1499L58.5595 102.28L52.8095 105.6Z" fill="#FFDDE1"/>
<path d="M73.6793 93.5501L35.5993 71.4201L35.5293 46.5801L73.6093 68.7101L73.6793 93.5501Z" fill="#88E5C8"/>
<path d="M71.6592 67.21L76.3092 64.52L76.3792 89.36L71.7292 92.05L71.6592 67.21Z" fill="#88E5C8"/>
<path d="M73.6093 68.7099L35.5293 46.5799L40.1793 43.8999L78.2593 66.0299L73.6093 68.7099Z" fill="#88E5C8"/>
<path d="M71.3395 94.8999L33.2595 72.7699L33.1895 47.9399L71.2695 70.0599L71.3395 94.8999Z" fill="#FF9EB6"/>
<path d="M60.8998 100.92L22.8298 78.8L22.7598 53.96L60.8298 76.09L60.8998 100.92Z" fill="#88E5C8"/>
<path d="M58.9499 99.4201L58.8799 74.58L69.3099 68.5601L69.3899 93.4001L58.9499 99.4201Z" fill="#88E5C8"/>
<path d="M60.8298 76.0899L22.7598 53.9599L33.1898 47.9399L71.2698 70.0599L60.8298 76.0899Z" fill="#88E5C8"/>
<path d="M58.5592 102.28L20.4792 80.1501L20.4092 55.3101L58.4892 77.4401L58.5592 102.28Z" fill="#FF9EB6"/>
<path d="M50.8591 104.1L50.7891 79.2599L56.5391 75.9399L56.6091 100.78L50.8591 104.1Z" fill="#88E5C8"/>
<path d="M52.7392 80.7601L14.6592 58.6301L20.4092 55.3101L58.4892 77.4401L52.7392 80.7601Z" fill="#88E5C8"/>
<path d="M52.8092 105.6L14.7292 83.4699L14.6592 58.6299L52.7392 80.7599L52.8092 105.6Z" fill="#88E5C8"/>
<path d="M79.789 22.2501L41.709 0.120117C44.789 1.74012 63.679 11.6601 72.339 16.2101L110.419 38.3401C101.759 33.7901 82.869 23.8701 79.789 22.2501Z" fill="#BFEAFF"/>
<path d="M79.7897 22.25C82.8697 23.87 101.76 33.79 110.42 38.34L110.54 78.95L105.21 82.03L105.1 43.37L84.2297 55.42L84.3397 94.08L51.3397 113.13L51.2197 72.28C52.6797 69.72 54.7097 66.16 57.0297 62.11C57.0797 62.03 57.1197 61.95 57.1697 61.86C63.6697 50.48 72.3097 35.35 76.9497 27.22C77.1697 26.83 77.3897 26.45 77.5897 26.09C77.6997 25.89 77.7597 25.8 77.8097 25.7C77.8997 25.54 77.9897 25.39 78.0697 25.24C78.5197 24.46 78.7697 24.01 78.9997 23.61C79.2497 23.18 79.4397 22.84 79.6097 22.55C79.6897 22.42 79.7297 22.34 79.7697 22.26L79.7897 22.25ZM71.3397 94.9L71.2697 70.06L60.8397 76.08L60.9097 100.92L71.3397 94.9ZM58.5597 102.28L58.4897 77.44L52.7397 80.76L52.8097 105.6L58.5597 102.28ZM78.3297 90.86L78.2597 66.02L73.6097 68.71L73.6797 93.55L78.3297 90.86Z" fill="#FFCAD8"/>
<path d="M51.2294 72.2701L13.1494 50.1401C14.6094 47.5801 16.6394 44.0201 18.9594 39.9601C19.0094 39.8801 19.0494 39.8001 19.0994 39.7101C25.5994 28.3301 34.2394 13.2001 38.8794 5.07013C39.0994 4.68013 39.3194 4.30012 39.5294 3.94012C39.6394 3.74012 39.6994 3.65012 39.7494 3.56012C39.8394 3.40012 39.9194 3.25013 40.0094 3.10013C40.4594 2.32013 40.7094 1.87012 40.9394 1.47012C41.1794 1.04012 41.3794 0.700126 41.5494 0.410126C41.6294 0.280126 41.6694 0.200117 41.7194 0.120117L79.7994 22.2501C79.7594 22.3301 79.7094 22.4101 79.6394 22.5401C79.4694 22.8301 79.2794 23.1801 79.0294 23.6001C78.7994 24.0001 78.5494 24.4501 78.0994 25.2301C78.0194 25.3801 77.9294 25.5301 77.8394 25.6901C77.7894 25.7801 77.7294 25.8801 77.6194 26.0801C77.4094 26.4401 77.1994 26.8201 76.9794 27.2101C72.3394 35.3401 63.6994 50.4701 57.1994 61.8501C57.1494 61.9301 57.1094 62.0101 57.0594 62.1001C54.7394 66.1601 52.7094 69.7201 51.2494 72.2701H51.2294Z" fill="#43C7F3"/>
<path d="M51.3394 113.12L13.2694 90.9901L13.1494 50.1401L51.2294 72.2701L51.3394 113.12Z" fill="#FF9EB6"/>
<path d="M15.2695 51.3202L44.0595 1.43018" stroke="white"/>
<path d="M18.9795 53.5204L47.7695 3.63037" stroke="white"/>
<path d="M22.6797 55.7201L51.4797 5.83008" stroke="white"/>
<path d="M26.3896 57.9201L55.1896 8.04004" stroke="white"/>
<path d="M30.0996 60.1202L58.8896 10.2402" stroke="white"/>
<path d="M33.8096 62.3204L62.5996 12.4404" stroke="white"/>
<path d="M37.5195 64.5201L66.3095 14.6401" stroke="white"/>
<path d="M41.2295 66.7203L70.0195 16.8403" stroke="white"/>
<path d="M44.9297 68.9201L73.7297 19.04" stroke="white"/>
<path d="M48.6396 71.1202L77.4396 21.2402" stroke="white"/>
<path d="M100.069 4.92999C105.539 2.90999 109.639 4.9 109.649 10.09C109.669 16.14 104.129 24.27 97.299 28.21C95.959 28.98 94.669 29.53 93.449 29.88C92.639 31.52 91.769 33.1 90.849 34.58C87.759 39.54 84.099 43.5 80.179 45.77C76.389 47.96 72.839 48.3 69.809 47.08C63.959 44.73 60.029 36.58 59.999 24.69L100.169 1.5C100.169 2.64 100.139 3.79 100.069 4.94V4.92999ZM97.289 24.1C102.059 21.35 106.079 15.88 106.069 12.16C106.069 9.09 103.299 8.01 99.649 9.28C98.949 14.66 97.559 20 95.639 24.92C96.179 24.69 96.729 24.42 97.289 24.1Z" fill="#64C298"/>
<path d="M90.8391 34.5798C95.6991 32.8898 98.9191 32.9698 98.9191 35.1598C98.9191 38.6198 90.9191 46.0598 81.0191 51.7798C71.1191 57.4898 63.0891 59.3198 63.0791 55.8598C63.0791 53.8798 65.6991 50.5998 69.7891 47.0798C72.8191 48.2998 76.3691 47.9598 80.1591 45.7698C84.0891 43.4998 87.7491 39.5398 90.8291 34.5798H90.8391Z" fill="#008A5F"/>
<path d="M84.2295 55.4104L93.9595 63.1304L114.559 51.3304L104.839 43.6104L84.2295 55.4104Z" fill="#D9B5AC"/>
<path d="M93.959 63.1301V65.9701L114.559 54.3201V51.3301L93.959 63.1301Z" fill="#955542"/>
<path d="M51.3394 113.12L51.2994 98.0601L38.3394 105.5L38.1494 121.17L38.3394 121.37L51.3394 113.12Z" fill="#D9B5AC"/>
<path d="M0.269728 99.24L38.3397 121.37V105.5L0.219727 83.5L0.269728 99.24Z" fill="#955542"/>
<path d="M18.3196 64.1603L16.3896 63.0503L16.4296 75.0803L48.1196 93.4903V90.4603L18.3396 73.1603L18.3196 64.1603Z" fill="#FFCAD8"/>
<path d="M18.3193 64.1602L18.3393 73.1602L48.1193 90.4601V81.3601L18.3193 64.1602Z" fill="#88E5C8"/>
<path d="M13.2197 75.75L0.219727 83.5L38.3397 105.5L51.2997 98.06L13.2197 75.75Z" fill="#BB8C80"/>
<path d="M5.82934 83.4603C12.1893 87.1303 36.0293 100.89 38.3493 102.23C39.7693 101.41 42.4393 99.8803 45.6493 98.0403C39.2693 94.3003 15.5993 80.4303 13.2293 79.0503C11.7693 79.9203 9.03934 81.5503 5.81934 83.4703L5.82934 83.4603Z" fill="#955542"/>
<path d="M19.6596 57.9602C19.7296 58.4102 21.1396 66.8802 15.8096 70.2802C15.7196 70.3302 15.6296 70.3902 15.5396 70.4402C15.4396 70.5002 15.3496 70.5502 15.2596 70.5902C9.93958 73.3302 11.3096 63.2602 11.3796 62.7302L12.4196 64.4602L13.4496 61.5402L14.4896 63.2702L15.5096 60.3502L16.5496 62.0802L17.5796 59.1602L18.6296 60.8802L19.6596 57.9502V57.9602Z" fill="#675AA0"/>
<path d="M19.2395 68.1702C19.5095 68.0202 19.7595 68.0102 19.9795 68.2002C21.2895 69.3602 16.7895 73.5902 15.8195 74.4702V78.5502C16.3595 77.2002 17.9995 73.2802 19.2495 72.5502C19.5195 72.3902 19.7695 72.3902 19.9895 72.5802C21.2995 73.7402 16.7995 77.9702 15.8295 78.8502V82.9302C16.3695 81.5702 18.0095 77.6602 19.2595 76.9402C19.5295 76.7802 19.7795 76.7702 19.9995 76.9702C21.3095 78.1302 16.7995 82.3602 15.8395 83.2402V84.2402L15.2895 84.5602V84.0202C14.2695 84.2702 9.84947 85.2002 11.1295 82.5602C11.3495 82.1102 11.5995 81.8302 11.8695 81.6802C13.1095 80.9702 14.7195 82.9102 15.2795 83.6802V79.6402C14.2495 79.8902 9.82948 80.8202 11.1195 78.1802C11.3395 77.7302 11.5895 77.4502 11.8595 77.3002C13.0995 76.5902 14.7095 78.5302 15.2795 79.3002V75.2602C14.2495 75.5102 9.82947 76.4402 11.1095 73.8002C11.3295 73.3502 11.5795 73.0702 11.8495 72.9202C13.0895 72.2102 14.6995 74.1502 15.2595 74.9202V70.6202C15.3395 70.5702 15.4295 70.5202 15.5295 70.4702C15.6195 70.4202 15.7095 70.3602 15.7995 70.3102V74.1902C16.3395 72.8302 17.9795 68.9202 19.2295 68.1902L19.2395 68.1702Z" fill="#009C4E"/>
<path d="M36.2293 76.7303C36.4993 76.5703 36.7493 76.5703 36.9693 76.7603C38.2793 77.9203 33.7693 82.1503 32.8093 83.0403V87.1202C33.3593 85.7602 34.9893 81.8502 36.2393 81.1202C36.5093 80.9602 36.7593 80.9602 36.9793 81.1502C38.2893 82.3102 33.7793 86.5402 32.8193 87.4302V91.5103C33.3693 90.1503 34.9993 86.2403 36.2593 85.5103C36.5293 85.3603 36.7793 85.3503 36.9993 85.5403C38.3093 86.7003 33.7993 90.9403 32.8393 91.8203V92.8203L32.2993 93.1303V92.5902C31.2793 92.8402 26.8493 93.7703 28.1393 91.1303C28.3593 90.6803 28.6093 90.4003 28.8793 90.2503C30.1093 89.5403 31.7293 91.4803 32.2993 92.2503V88.2102C31.2693 88.4602 26.8393 89.3903 28.1293 86.7503C28.3493 86.3003 28.5993 86.0202 28.8693 85.8702C30.0993 85.1602 31.7193 87.1002 32.2893 87.8702V83.8302C31.2593 84.0802 26.8293 85.0102 28.1293 82.3702C28.3493 81.9202 28.5993 81.6402 28.8593 81.4902C30.0893 80.7802 31.7093 82.7202 32.2793 83.4902V79.1903C32.3593 79.1403 32.4493 79.0903 32.5493 79.0403C32.6393 78.9903 32.7293 78.9303 32.8093 78.8803V82.7603C33.3593 81.4003 34.9893 77.4903 36.2493 76.7603L36.2293 76.7303Z" fill="#009C4E"/>
<path d="M36.6496 66.5303C36.7196 66.9803 38.1296 75.4603 32.7996 78.8503C32.7196 78.9003 32.6296 78.9603 32.5396 79.0103C32.4396 79.0603 32.3496 79.1203 32.2596 79.1603C26.9396 81.9003 28.3096 71.8303 28.3796 71.3003L29.4196 73.0303L30.4396 70.1103L31.4796 71.8403L32.5096 68.9203L33.5496 70.6503L34.5796 67.7303L35.6196 69.4603L36.6496 66.5303Z" fill="#913D92"/>
</svg>
