<?xml version="1.0" encoding="UTF-8"?>
<svg id="_레이어_2" data-name="레이어 2" xmlns="http://www.w3.org/2000/svg" viewBox="0 0 287.64 234.34">
  <defs>
    <style>
      .cls-1 {
        fill: #eee7eb;
      }

      .cls-2 {
        fill: #e1dbdf;
      }

      .cls-3 {
        fill: #fbfbe8;
      }

      .cls-4 {
        fill: #e4d23b;
      }

      .cls-5 {
        fill: #f4d288;
      }
    </style>
  </defs>
  <g id="_기둥" data-name="기둥">
    <g>
      <g>
        <g>
          <polygon class="cls-1" points="275.07 18.21 257.82 9.09 257.82 87.65 275.07 96.77 287.32 89.46 287.32 10.9 275.07 18.21"/>
          <polygon class="cls-3" points="287.64 10.65 270.37 0 257.82 7.56 275.07 18.21 287.64 10.65"/>
        </g>
        <polygon class="cls-2" points="275.07 18.21 275.07 96.77 257.82 86.63 257.82 8.07 275.07 18.21"/>
        <polygon class="cls-4" points="275.07 77.97 275.07 96.77 256.8 85.62 256.8 66.8 275.07 77.97"/>
        <polygon class="cls-5" points="275.07 77.97 287.32 70.11 287.32 89.46 275.07 96.77 275.07 77.97"/>
      </g>
      <g>
        <g>
          <polygon class="cls-1" points="189.47 64.07 172.22 54.95 172.22 133.51 189.47 142.63 201.72 135.31 201.72 56.76 189.47 64.07"/>
          <polygon class="cls-3" points="202.04 56.51 184.77 45.86 172.22 53.42 189.47 64.07 202.04 56.51"/>
        </g>
        <polygon class="cls-2" points="189.47 64.07 189.47 142.63 172.22 132.49 172.22 53.93 189.47 64.07"/>
        <polygon class="cls-4" points="189.47 123.82 189.47 142.63 171.2 131.47 171.2 112.66 189.47 123.82"/>
        <polygon class="cls-5" points="189.47 123.82 201.72 115.97 201.72 135.31 189.47 142.63 189.47 123.82"/>
      </g>
      <g>
        <g>
          <polygon class="cls-1" points="103.87 109.93 86.62 100.8 86.62 179.37 103.87 188.49 116.12 181.17 116.12 102.62 103.87 109.93"/>
          <polygon class="cls-3" points="116.44 102.36 99.17 91.71 86.62 99.27 103.87 109.93 116.44 102.36"/>
        </g>
        <polygon class="cls-2" points="103.87 109.93 103.87 188.49 86.62 178.35 86.62 99.78 103.87 109.93"/>
        <polygon class="cls-4" points="103.87 169.68 103.87 188.49 85.6 177.33 85.6 158.51 103.87 169.68"/>
        <polygon class="cls-5" points="103.87 169.68 116.12 161.82 116.12 181.17 103.87 188.49 103.87 169.68"/>
      </g>
      <g>
        <g>
          <polygon class="cls-1" points="18.27 155.78 1.02 146.66 1.02 225.22 18.27 234.34 30.52 227.03 30.52 148.47 18.27 155.78"/>
          <polygon class="cls-3" points="30.84 148.22 13.57 137.57 1.02 145.13 18.27 155.78 30.84 148.22"/>
        </g>
        <polygon class="cls-2" points="18.27 155.78 18.27 234.34 1.02 224.21 1.02 145.64 18.27 155.78"/>
        <polygon class="cls-4" points="18.27 215.54 18.27 234.34 0 223.19 0 204.37 18.27 215.54"/>
        <polygon class="cls-5" points="18.27 215.54 30.52 207.68 30.52 227.03 18.27 234.34 18.27 215.54"/>
      </g>
    </g>
  </g>
</svg>