<?xml version="1.0" encoding="UTF-8"?>
<svg id="_레이어_2" data-name="레이어 2" xmlns="http://www.w3.org/2000/svg" viewBox="0 0 1831.41 842.41">
  <defs>
    <style>
      .cls-1 {
        fill: #009442;
      }

      .cls-2 {
        fill: #955542;
      }
    </style>
  </defs>
  <g id="_나무" data-name="나무">
    <g>
      <polygon class="cls-1" points="676.1 426.41 650.74 385.59 626.82 426.41 638.59 426.41 626.82 446.51 676.1 446.51 663.62 426.41 676.1 426.41"/>
      <rect class="cls-2" x="647.89" y="446.51" width="7.14" height="21.31"/>
    </g>
    <g>
      <polygon class="cls-1" points="66.25 703.71 32.16 639.6 0 703.71 15.83 703.71 0 735.27 66.25 735.27 49.46 703.71 66.25 703.71"/>
      <rect class="cls-2" x="28.33" y="735.27" width="9.59" height="33.46"/>
    </g>
    <g>
      <polygon class="cls-1" points="618.71 396.28 596.66 354.8 575.85 396.28 586.09 396.28 575.85 416.7 618.71 416.7 607.85 396.28 618.71 396.28"/>
      <rect class="cls-2" x="594.18" y="416.7" width="6.21" height="21.65"/>
    </g>
    <g>
      <polygon class="cls-1" points="1831.41 242.83 1806.96 196.85 1783.9 242.83 1795.25 242.83 1783.9 265.46 1831.41 265.46 1819.37 242.83 1831.41 242.83"/>
      <rect class="cls-2" x="1804.21" y="265.46" width="6.88" height="24"/>
    </g>
    <g>
      <polygon class="cls-1" points="1767.2 109.94 1742.75 63.96 1719.69 109.94 1731.04 109.94 1719.69 132.58 1767.2 132.58 1755.17 109.94 1767.2 109.94"/>
      <rect class="cls-2" x="1740.01" y="132.58" width="6.88" height="24"/>
    </g>
    <g>
      <polygon class="cls-1" points="736.27 777.39 702.18 713.28 670.03 777.39 685.86 777.39 670.03 808.95 736.27 808.95 719.49 777.39 736.27 777.39"/>
      <rect class="cls-2" x="698.35" y="808.95" width="9.59" height="33.46"/>
    </g>
    <g>
      <polygon class="cls-1" points="226.01 610.76 203.55 568.52 182.36 610.76 192.79 610.76 182.36 631.56 226.01 631.56 214.95 610.76 226.01 610.76"/>
      <rect class="cls-2" x="201.03" y="631.56" width="6.32" height="22.05"/>
    </g>
    <g>
      <polygon class="cls-1" points="1477.11 455.64 1454.65 413.4 1433.46 455.64 1443.89 455.64 1433.46 476.43 1477.11 476.43 1466.05 455.64 1477.11 455.64"/>
      <rect class="cls-2" x="1452.12" y="476.43" width="6.32" height="22.05"/>
    </g>
    <g id="_레이어_26" data-name="레이어 26">
      <g>
        <polygon class="cls-1" points="459.14 297.84 434.9 256.32 412.03 297.84 423.28 297.84 412.03 318.28 459.14 318.28 447.2 297.84 459.14 297.84"/>
        <rect class="cls-2" x="432.17" y="318.28" width="6.82" height="21.67"/>
      </g>
      <g>
        <polygon class="cls-1" points="1002.11 28.97 986.7 0 972.17 28.97 979.32 28.97 972.17 43.24 1002.11 43.24 994.52 28.97 1002.11 28.97"/>
        <rect class="cls-2" x="984.97" y="43.24" width="4.34" height="15.13"/>
      </g>
      <g>
        <polygon class="cls-1" points="1030.76 43.1 1015.35 14.13 1000.82 43.1 1007.97 43.1 1000.82 57.37 1030.76 57.37 1023.17 43.1 1030.76 43.1"/>
        <rect class="cls-2" x="1013.62" y="57.37" width="4.34" height="15.13"/>
      </g>
    </g>
  </g>
</svg>