<?xml version="1.0" encoding="UTF-8"?>
<svg id="_레이어_2" data-name="레이어 2" xmlns="http://www.w3.org/2000/svg" viewBox="0 0 42 34.14">
  <defs>
    <style>
      .cls-1 {
        fill: #64c298;
      }

      .cls-2 {
        fill: #231f20;
      }

      .cls-3 {
        fill: #0a3542;
      }

      .cls-4 {
        fill: #14b57a;
      }

      .cls-5 {
        fill: #008a5f;
      }

      .cls-6 {
        fill: #e4d23b;
      }

      .cls-7 {
        fill: #006e52;
      }

      .cls-8 {
        fill: #64c8d0;
      }

      .cls-9 {
        fill: #b4e1e5;
      }

      .cls-10 {
        fill: #b0a67a;
      }
    </style>
  </defs>
  <g id="_도로위자동차" data-name="도로위자동차">
    <g>
      <polygon class="cls-6" points=".01 15.44 0 18.54 1.08 19.16 1.09 16.06 .01 15.44"/>
      <path class="cls-10" d="M6.25,22.35c-.37-.22-.68-.04-.68.39,0,.44.3.96.68,1.18.38.22.68.04.68-.39,0-.43-.3-.96-.68-1.18Z"/>
      <path class="cls-2" d="M8.21,24.28c0,.13-.01.25-.03.37-.16.96-.96,1.3-1.92.75-.97-.56-1.76-1.82-1.92-2.97-.02-.14-.03-.27-.03-.4,0-1.24.88-1.74,1.96-1.11,1.07.62,1.95,2.13,1.94,3.37ZM6.24,23.92c.38.22.68.04.68-.39,0-.43-.3-.96-.68-1.18-.37-.22-.68-.04-.68.39,0,.44.3.96.68,1.18"/>
      <polygon class="cls-1" points="5.87 16.58 23.24 6.49 17.39 3.11 .02 13.2 5.87 16.58"/>
      <polygon class="cls-3" points="9.49 20.42 9.49 21.42 11.24 22.44 11.24 21.43 9.49 20.42"/>
      <path class="cls-2" d="M20.91,32c0,1.24-.87,1.74-1.95,1.12-1.08-.62-1.95-2.13-1.95-3.37,0-1.24.88-1.74,1.96-1.12,1.08.62,1.94,2.13,1.94,3.36ZM18.97,31.66c.37.22.68.04.68-.39,0-.43-.3-.96-.67-1.17-.38-.22-.68-.04-.68.39,0,.43.3.96.68,1.18"/>
      <path class="cls-10" d="M18.97,30.1c-.38-.22-.68-.04-.68.39,0,.43.3.96.68,1.18.37.22.68.04.68-.39,0-.43-.3-.96-.67-1.17Z"/>
      <polygon class="cls-9" points="10.79 15.01 5.88 12.18 5.87 16.58 5.87 16.82 10.78 19.65 10.79 15.01"/>
      <polygon class="cls-3" points="17.97 25.31 17.97 26.32 19.72 27.33 19.72 26.32 17.97 25.31"/>
      <polygon class="cls-5" points="24.62 34.14 41.98 24.05 41.99 22.66 24.62 32.75 24.62 34.14"/>
      <polygon class="cls-9" points="17.1 23.3 17.11 18.66 11.87 15.63 11.85 20.27 17.1 23.3"/>
      <polygon class="cls-6" points="23.68 29.57 23.67 32.2 24.62 32.75 24.63 30.12 23.68 29.57"/>
      <polygon class="cls-7" points="24.62 32.75 41.99 22.66 41.99 20.03 24.63 30.12 24.62 32.75"/>
      <polygon class="cls-1" points="24.63 27.42 42 17.32 39.38 15.81 22.01 25.9 24.63 27.42"/>
      <polygon class="cls-5" points="24.63 30.12 41.99 20.03 42 17.32 24.63 27.42 24.63 30.12"/>
      <polygon class="cls-9" points="22.01 26.14 22.02 21.5 18.19 19.28 18.18 23.92 22.01 26.14"/>
      <polygon class="cls-8" points="22.01 26.14 39.38 16.04 39.39 11.4 22.02 21.5 22.01 26.14"/>
      <polygon class="cls-5" points="22.02 21.5 39.39 11.4 39.4 9.32 22.03 19.41 22.02 21.5"/>
      <path class="cls-4" d="M.02,13.2l5.85,3.38v.23s4.91,2.83,4.91,2.83v-4.64s-4.89-2.83-4.89-2.83v-2.08s16.15,9.32,16.15,9.32v2.08s-3.84-2.21-3.84-2.21v4.64s3.82,2.21,3.82,2.21v-.24s2.62,1.52,2.62,1.52v2.71s-.95-.55-.95-.55v2.63s.94.55.94.55v1.39s-3.71-2.14-3.71-2.14c0-1.24-.86-2.74-1.94-3.36-1.08-.62-1.95-.12-1.96,1.12l-8.84-5.1c.02-.11.03-.24.03-.37,0-1.24-.87-2.75-1.94-3.37-1.08-.62-1.95-.13-1.96,1.11,0,.13,0,.27.03.4l-4.33-2.5v-1.39s1.08.62,1.08.62v-3.09S.01,15.44.01,15.44v-2.24ZM11.85,20.27l5.25,3.03v-4.64s-5.23-3.03-5.23-3.03v4.64M17.97,26.32l1.75,1.01v-1.01s-1.75-1.01-1.75-1.01v1.01M9.49,21.42l1.75,1.01v-1.01s-1.75-1.01-1.75-1.01v1.01"/>
      <polygon class="cls-1" points="22.03 19.41 39.4 9.32 23.26 0 5.89 10.09 22.03 19.41"/>
    </g>
  </g>
</svg>