<?xml version="1.0" encoding="UTF-8"?>
<svg id="_레이어_2" data-name="레이어 2" xmlns="http://www.w3.org/2000/svg" viewBox="0 0 287.23 329.73">
  <defs>
    <style>
      .cls-1 {
        fill: #ff9eb6;
      }

      .cls-2 {
        fill: #ffbcca;
      }

      .cls-3 {
        fill: #ffeb9f;
      }

      .cls-4 {
        fill: #009c4e;
      }

      .cls-5 {
        fill: #61d8b6;
      }

      .cls-6 {
        fill: #ffe445;
      }

      .cls-7 {
        fill: #a2dea4;
      }

      .cls-8 {
        isolation: isolate;
      }

      .cls-9 {
        fill: #88e5c8;
      }

      .cls-10 {
        fill: #fff15d;
      }

      .cls-11 {
        fill: #c7f2ff;
      }

      .cls-12 {
        fill: #ffcad8;
      }

      .cls-13 {
        fill: #fff0a2;
      }

      .cls-14 {
        fill: #6c79e0;
      }

      .cls-15 {
        fill: #cfefff;
      }

      .cls-16 {
        fill: #bb8c80;
      }

      .cls-17 {
        fill: #fbdb79;
      }

      .cls-18 {
        fill: #ffdde1;
      }

      .cls-19 {
        fill: #ffd84f;
      }

      .cls-20 {
        fill: #8f96ea;
      }

      .cls-21 {
        fill: #fcd25e;
      }

      .cls-22 {
        fill: #efddd7;
      }

      .cls-23 {
        fill: #d9b5ac;
      }

      .cls-24 {
        fill: #955542;
      }

      .cls-25 {
        fill: #e45c27;
      }

      .cls-26 {
        fill: #2389b0;
      }
    </style>
  </defs>
  <g id="_빌딩-10" data-name="빌딩-10">
    <g>
      <g class="cls-8">
        <polygon class="cls-22" points="9.06 257.95 106.85 201.12 138.01 219.11 40.22 275.94 9.06 257.95"/>
        <polygon class="cls-5" points="40.41 209.97 138.2 153.14 138.01 219.11 40.22 275.94 40.41 209.97"/>
        <polygon class="cls-22" points="40.22 275.94 138.01 219.11 181.2 244.05 83.41 300.88 40.22 275.94"/>
        <polygon class="cls-22" points="83.41 300.88 181.2 244.05 207.15 259.03 109.36 315.85 83.41 300.88"/>
        <polygon class="cls-5" points="19.49 178.71 117.28 121.88 135.51 132.4 37.71 189.23 19.49 178.71"/>
        <polygon class="cls-5" points="19.55 157.76 117.33 100.93 117.28 121.88 19.49 178.71 19.55 157.76"/>
        <polygon class="cls-11" points="41.11 165.72 41.06 186.66 22.83 176.14 22.89 155.19 41.11 165.72"/>
        <polygon class="cls-26" points="19.55 157.76 117.33 100.93 135.56 111.46 37.77 168.29 19.55 157.76"/>
        <polygon class="cls-26" points="37.77 168.29 135.56 111.46 135.51 132.4 37.71 189.23 37.77 168.29"/>
        <polygon class="cls-5" points="19.58 146.45 117.37 89.62 135.59 100.15 37.81 156.97 19.58 146.45"/>
        <polygon class="cls-5" points="19.64 125.51 117.43 68.68 117.37 89.62 19.58 146.45 19.64 125.51"/>
        <polygon class="cls-9" points="83.6 234.9 181.39 178.08 181.2 244.05 83.41 300.88 83.6 234.9"/>
        <polygon class="cls-9" points="40.41 209.97 138.2 153.14 181.39 178.08 83.6 234.9 40.41 209.97"/>
        <polygon class="cls-5" points="51.58 197.24 149.36 140.4 167.58 150.92 69.79 207.75 51.58 197.24"/>
        <polygon class="cls-5" points="51.63 176.28 149.42 119.46 149.36 140.4 51.58 197.24 51.63 176.28"/>
        <polygon class="cls-26" points="37.87 136.03 135.65 79.2 135.59 100.15 37.81 156.97 37.87 136.03"/>
        <polygon class="cls-26" points="19.64 125.51 117.43 68.68 135.65 79.2 37.87 136.03 19.64 125.51"/>
        <polygon class="cls-11" points="41.21 133.46 41.15 154.41 22.91 143.88 22.98 122.94 41.21 133.46"/>
        <polygon class="cls-26" points="51.63 176.28 149.42 119.46 167.64 129.98 69.85 186.8 51.63 176.28"/>
        <polygon class="cls-26" points="69.85 186.8 167.64 129.98 167.58 150.92 69.79 207.75 69.85 186.8"/>
        <polygon class="cls-11" points="73.19 184.24 73.13 205.18 54.91 194.67 54.97 173.72 73.19 184.24"/>
        <polygon class="cls-5" points="51.72 144.03 149.51 87.2 149.45 108.15 51.66 164.98 51.72 144.03"/>
        <polygon class="cls-5" points="51.66 164.98 149.45 108.15 167.68 118.67 69.88 175.5 51.66 164.98"/>
        <polygon class="cls-11" points="73.28 151.98 73.22 172.93 55 162.41 55.07 141.46 73.28 151.98"/>
        <polygon class="cls-5" points="83.65 215.75 181.44 158.92 199.67 169.45 101.88 226.28 83.65 215.75"/>
        <polygon class="cls-5" points="83.71 194.81 181.5 137.98 181.44 158.92 83.65 215.75 83.71 194.81"/>
        <polygon class="cls-26" points="69.94 154.55 167.73 97.72 167.68 118.67 69.88 175.5 69.94 154.55"/>
        <polygon class="cls-26" points="51.72 144.03 149.51 87.2 167.73 97.72 69.94 154.55 51.72 144.03"/>
        <polygon class="cls-26" points="83.71 194.81 181.5 137.98 199.73 148.5 101.94 205.33 83.71 194.81"/>
        <polygon class="cls-26" points="101.94 205.33 199.73 148.5 199.67 169.45 101.88 226.28 101.94 205.33"/>
        <polygon class="cls-5" points="83.74 183.5 181.54 126.67 199.76 137.19 101.97 194.02 83.74 183.5"/>
        <polygon class="cls-5" points="83.8 162.55 181.59 105.72 181.54 126.67 83.74 183.5 83.8 162.55"/>
        <polygon class="cls-26" points="83.8 162.55 181.59 105.72 199.82 116.25 102.03 173.08 83.8 162.55"/>
        <polygon class="cls-26" points="102.03 173.08 199.82 116.25 199.76 137.19 101.97 194.02 102.03 173.08"/>
        <polygon class="cls-15" points="92.46 230.28 92.28 296.25 49.08 271.31 49.27 205.34 92.46 230.28"/>
        <polygon class="cls-11" points="105.28 202.76 105.22 223.71 86.99 213.19 87.05 192.24 105.28 202.76"/>
        <polygon class="cls-5" points="9.5 102.03 107.29 45.21 207.35 102.98 109.56 159.81 9.5 102.03"/>
        <path class="cls-16" d="M133.15,32.44c2.67,8.11,7.37,16.07,13.17,22.3-32.6,18.94-65.2,37.88-97.79,56.83-5.8-6.23-10.5-14.19-13.17-22.3,29.34-17.05,68.45-39.78,97.79-56.83Z"/>
        <polygon class="cls-19" points="35.27 87.86 133.06 31.03 146.73 38.92 48.94 95.75 35.27 87.86"/>
        <polygon class="cls-18" points=".08 68.9 97.87 12.07 133.15 32.44 35.35 89.26 .08 68.9"/>
        <polygon class="cls-19" points="48.9 111.46 146.69 54.63 166.37 66 68.59 122.82 48.9 111.46"/>
        <path class="cls-16" d="M146.32,54.73c.57.61,1.15,1.21,1.74,1.78-32.6,18.95-65.19,37.89-97.79,56.83-.59-.57-1.17-1.17-1.74-1.78,32.59-18.95,65.19-37.88,97.79-56.83Z"/>
        <polygon class="cls-19" points="48.94 95.75 146.73 38.92 146.69 54.63 48.9 111.46 48.94 95.75"/>
        <path class="cls-16" d="M156.52,63.04c2.97,1.71,5.82,2.78,8.47,3.26-32.6,18.94-65.19,37.88-97.79,56.83-2.66-.48-5.51-1.55-8.47-3.26-2.97-1.71-5.82-3.93-8.47-6.52,32.6-18.94,65.19-37.88,97.79-56.83,2.65,2.59,5.5,4.81,8.47,6.53Z"/>
        <polygon class="cls-25" points="68.63 107.11 166.42 50.28 166.37 66 68.59 122.82 68.63 107.11"/>
        <path class="cls-16" d="M165,66.3c.6.1,1.18.18,1.75.23-32.6,18.94-65.19,37.88-97.79,56.82-.57-.04-1.15-.12-1.75-.23,32.6-18.94,65.19-37.89,97.79-56.83Z"/>
        <polygon class="cls-11" points="105.37 170.5 105.31 191.45 87.08 180.93 87.14 159.98 105.37 170.5"/>
        <path class="cls-16" d="M166.75,66.53c3.09.26,5.86-.34,8.2-1.69l-97.79,56.83c-2.33,1.36-5.11,1.95-8.2,1.69,32.6-18.94,65.19-37.88,97.79-56.82Z"/>
        <path class="cls-19" d="M180,59.49c-1.27,2.35-2.99,4.15-5.06,5.35l-97.79,56.83c2.07-1.2,3.78-3,5.06-5.35.04-.07.08-.14.11-.21,32.6-18.94,65.19-37.89,97.79-56.83-.04.07-.08.14-.11.22Z"/>
        <polygon class="cls-19" points="68.63 107.11 166.42 50.28 180.09 58.18 82.3 115.01 68.63 107.11"/>
        <polygon class="cls-20" points="109.56 159.81 109.4 217.7 109.36 315.85 207.15 259.03 207.19 160.87 207.35 102.98 109.56 159.81"/>
        <path class="cls-1" d="M121.12,138.78l-.08,27.65-11.48-6.63L9.5,102.03l-9.5-5.48.08-27.65,35.28,20.37c4.11,12.48,13.03,24.63,23.38,30.6,10.35,5.98,19.31,4.15,23.47-3.55l38.91,22.46Z"/>
        <path class="cls-12" d="M181.7,40.33h0c-.38-1.93-.89-3.88-1.51-5.82-.31.18-.62.36-.93.54h0c.31-.18.62-.36.93-.54-2.57-7.97-7.1-15.83-12.73-22.05-1.37-1.52-2.8-2.93-4.29-4.24-2.07-1.8-4.24-3.38-6.47-4.67-2.23-1.29-4.41-2.22-6.48-2.8-4.59-1.29-8.7-.89-11.94,1-29.34,17.05-68.45,39.78-97.79,56.83,2.54-1.48,5.62-2.03,9.05-1.58l-14.19,8.24-.07,22.63,33.15-19.26.32.19-.04,15.71,13.67,7.9-.06,22.62.66-.38c-.21.5-.4,1.02-.64,1.48,32.6-18.94,65.19-37.89,97.79-56.83,1.52-2.91,2.37-6.61,2.38-11.03,0-2.57-.27-5.22-.8-7.91Z"/>
        <polygon class="cls-12" points="121.12 138.78 218.91 81.95 218.83 109.6 121.04 166.43 121.12 138.78"/>
        <polygon class="cls-18" points="82.21 116.31 180 59.49 218.91 81.95 121.12 138.78 82.21 116.31"/>
      </g>
      <g class="cls-8">
        <polygon class="cls-5" points="156.81 276.58 211.14 245 229.37 255.53 175.04 287.1 156.81 276.58"/>
        <polygon class="cls-5" points="156.87 255.63 211.2 224.06 211.14 245 156.81 276.58 156.87 255.63"/>
        <polygon class="cls-26" points="175.1 266.16 229.43 234.58 229.37 255.53 175.04 287.1 175.1 266.16"/>
        <polygon class="cls-26" points="156.87 255.63 211.2 224.06 229.43 234.58 175.1 266.16 156.87 255.63"/>
        <polygon class="cls-11" points="179.47 264.61 179.41 285.56 161.18 275.04 161.24 254.09 179.47 264.61"/>
        <polygon class="cls-5" points="156.9 244.32 211.23 212.75 229.46 223.27 175.13 254.84 156.9 244.32"/>
        <polygon class="cls-5" points="156.96 223.38 211.29 191.8 211.23 212.75 156.9 244.32 156.96 223.38"/>
        <polygon class="cls-5" points="186.71 293.84 241.03 262.26 259.26 272.79 204.93 304.36 186.71 293.84"/>
        <polygon class="cls-5" points="186.76 272.89 241.09 241.32 241.03 262.26 186.71 293.84 186.76 272.89"/>
        <polygon class="cls-26" points="156.96 223.38 211.29 191.8 229.52 202.33 175.19 233.9 156.96 223.38"/>
        <polygon class="cls-11" points="179.56 232.36 179.5 253.3 161.27 242.78 161.33 221.83 179.56 232.36"/>
        <polygon class="cls-26" points="175.19 233.9 229.52 202.33 229.46 223.27 175.13 254.84 175.19 233.9"/>
        <polygon class="cls-26" points="204.99 283.41 259.32 251.84 259.26 272.79 204.93 304.36 204.99 283.41"/>
        <polygon class="cls-26" points="186.76 272.89 241.09 241.32 259.32 251.84 204.99 283.41 186.76 272.89"/>
        <polygon class="cls-11" points="209.36 281.87 209.3 302.82 191.07 292.29 191.13 271.35 209.36 281.87"/>
        <polygon class="cls-5" points="186.8 261.58 241.12 230.01 259.35 240.53 205.02 272.1 186.8 261.58"/>
        <polygon class="cls-5" points="186.86 240.63 241.18 209.06 241.12 230.01 186.8 261.58 186.86 240.63"/>
        <polygon class="cls-26" points="205.08 251.15 259.41 219.58 259.35 240.53 205.02 272.1 205.08 251.15"/>
        <polygon class="cls-11" points="209.45 249.61 209.39 270.56 191.16 260.03 191.22 239.09 209.45 249.61"/>
        <polygon class="cls-26" points="186.86 240.63 241.18 209.06 259.41 219.58 205.08 251.15 186.86 240.63"/>
        <polygon class="cls-5" points="152.7 202.88 207.03 171.31 275.68 210.94 221.36 242.51 152.7 202.88"/>
        <polygon class="cls-10" points="221.36 242.51 275.68 210.94 275.44 298.16 221.11 329.73 221.36 242.51"/>
        <path class="cls-17" d="M152.7,202.88l68.65,39.63-.25,87.22-68.66-39.64.25-87.21ZM175.13,254.84l.06-20.94-18.23-10.52-.06,20.95,18.23,10.52M204.93,304.36l.06-20.95-18.23-10.52-.06,20.95,18.23,10.52M205.02,272.1l.06-20.95-18.23-10.52-.06,20.95,18.23,10.52M175.04,287.1l.06-20.95-18.23-10.53-.06,20.95,18.23,10.52"/>
        <polygon class="cls-21" points="225.97 225.87 225.91 245.15 221.36 242.51 152.7 202.88 152.47 202.74 152.52 183.47 225.97 225.87"/>
        <polygon class="cls-13" points="152.52 183.47 206.85 151.9 280.29 194.3 225.97 225.87 152.52 183.47"/>
        <polygon class="cls-6" points="225.97 225.87 280.29 194.3 280.24 213.58 225.91 245.15 225.97 225.87"/>
      </g>
      <polygon class="cls-3" points="68.74 68.78 68.69 84.5 82.37 92.39 82.3 115.01 68.63 107.11 68.59 122.82 48.9 111.46 48.94 95.75 35.27 87.86 35.34 65.23 49.01 73.13 49.05 57.42 68.74 68.78"/>
      <path class="cls-1" d="M58.9,60.38c-14.29-8.25-25.93-1.62-25.97,14.8-.01,4.53.86,9.34,2.42,14.09,4.11,12.48,13.03,24.63,23.38,30.6,10.35,5.98,19.31,4.15,23.47-3.55,1.59-2.93,2.48-6.72,2.5-11.25.05-16.42-11.51-36.44-25.8-44.69Z"/>
      <polygon class="cls-15" points="237.82 262.28 237.94 320.01 268 302.66 267.87 244.93 237.82 262.28"/>
      <path class="cls-14" d="M9.5,102.03l-.44,155.92,31.17,17.99.18-65.98,43.19,24.94-.19,65.98,25.95,14.97.04-98.15.16-57.9L9.5,102.03ZM37.71,189.23l-18.23-10.53.06-20.95,18.23,10.53-.06,20.95M37.81,156.97l-18.23-10.52.06-20.95,18.23,10.52-.06,20.94M69.79,207.75l-18.22-10.51.06-20.95,18.22,10.52-.06,20.95M69.88,175.5h0l-1.79-1.03-16.43-9.49h0l.06-20.95,17.13,9.89,1.1.63-.06,20.95M101.88,226.28l-18.23-10.53.06-20.95,18.23,10.53-.06,20.95M101.97,194.02l-18.23-10.52.06-20.95,18.23,10.53-.06,20.95"/>
      <g>
        <path class="cls-7" d="M207.6,157.3l-46.31,26.37,66.98,36.68,45.84-26.64-66.52-36.41Z"/>
        <g class="cls-8">
          <path class="cls-4" d="M213.68,156.2c.32-.19.63-.2.89.03,1.57,1.4-3.85,6.5-5.01,7.56v4.91c.66-1.64,2.62-6.35,4.13-7.22.32-.19.63-.2.9.04,1.57,1.4-3.85,6.5-5.01,7.56v4.91c.66-1.64,2.62-6.35,4.14-7.22.33-.19.63-.2.89.03,1.57,1.4-3.85,6.5-5.02,7.56v1.2s-.65.38-.65.38v-.65c-1.23.3-6.56,1.42-5.01-1.76.26-.54.56-.87.89-1.06,1.48-.86,3.43,1.48,4.12,2.4v-4.87c-1.25.3-6.57,1.42-5.02-1.76.26-.54.56-.87.88-1.06,1.49-.86,3.43,1.48,4.12,2.4v-4.87c-1.25.3-6.57,1.42-5.02-1.76.26-.53.56-.87.88-1.06,1.48-.86,3.43,1.48,4.12,2.4v-5.18c.1-.06.21-.12.32-.18.11-.06.21-.13.32-.19v4.67c.66-1.64,2.62-6.35,4.14-7.22Z"/>
          <path class="cls-2" d="M214.18,143.91c.09.54,1.78,10.76-4.64,14.84-.1.07-.21.13-.32.19-.12.07-.23.13-.34.18-6.41,3.3-4.76-8.82-4.67-9.46l1.25,2.08,1.23-3.51,1.26,2.08,1.24-3.52,1.26,2.08,1.24-3.52,1.25,2.08,1.25-3.52Z"/>
        </g>
        <g class="cls-8">
          <path class="cls-4" d="M236.97,167.14c.32-.19.63-.2.89.03,1.57,1.4-3.85,6.5-5.01,7.56v4.91c.66-1.64,2.62-6.35,4.13-7.22.32-.19.63-.2.9.04,1.57,1.4-3.85,6.5-5.01,7.56v4.91c.66-1.64,2.62-6.35,4.14-7.22.33-.19.63-.2.89.03,1.57,1.4-3.85,6.5-5.02,7.56v1.2s-.65.38-.65.38v-.65c-1.23.3-6.56,1.42-5.01-1.76.26-.54.56-.87.89-1.06,1.48-.86,3.43,1.48,4.12,2.4v-4.87c-1.25.3-6.57,1.42-5.02-1.76.26-.54.56-.87.88-1.06,1.49-.86,3.43,1.48,4.12,2.4v-4.87c-1.25.3-6.57,1.42-5.02-1.76.26-.53.56-.87.88-1.06,1.48-.86,3.43,1.48,4.12,2.4v-5.18c.1-.06.21-.12.32-.18.11-.06.21-.13.32-.19v4.67c.66-1.64,2.62-6.35,4.14-7.22Z"/>
          <path class="cls-2" d="M237.48,154.85c.09.54,1.78,10.76-4.64,14.84-.1.07-.21.13-.32.19-.12.07-.23.13-.34.18-6.41,3.3-4.76-8.82-4.67-9.46l1.25,2.08,1.23-3.51,1.26,2.08,1.24-3.52,1.26,2.08,1.24-3.52,1.25,2.08,1.25-3.52Z"/>
        </g>
        <g class="cls-8">
          <path class="cls-4" d="M190.38,168.43c.32-.19.63-.2.89.03,1.57,1.4-3.85,6.5-5.01,7.56v4.91c.66-1.64,2.62-6.35,4.13-7.22.32-.19.63-.2.9.04,1.57,1.4-3.85,6.5-5.01,7.56v4.91c.66-1.64,2.62-6.35,4.14-7.22.33-.19.63-.2.89.03,1.57,1.4-3.85,6.5-5.02,7.56v1.2s-.65.38-.65.38v-.65c-1.23.3-6.56,1.42-5.01-1.76.26-.54.56-.87.89-1.06,1.48-.86,3.43,1.48,4.12,2.4v-4.87c-1.25.3-6.57,1.42-5.02-1.76.26-.54.56-.87.88-1.06,1.49-.86,3.43,1.48,4.12,2.4v-4.87c-1.25.3-6.57,1.42-5.02-1.76.26-.53.56-.87.88-1.06,1.48-.86,3.43,1.48,4.12,2.4v-5.18c.1-.06.21-.12.32-.18.11-.06.21-.13.32-.19v4.67c.66-1.64,2.62-6.35,4.14-7.22Z"/>
          <path class="cls-2" d="M190.88,156.14c.09.54,1.78,10.76-4.64,14.84-.1.07-.21.13-.32.19-.12.07-.23.13-.34.18-6.41,3.3-4.76-8.82-4.67-9.46l1.25,2.08,1.23-3.51,1.26,2.08,1.24-3.52,1.26,2.08,1.24-3.52,1.25,2.08,1.25-3.52Z"/>
        </g>
        <g class="cls-8">
          <path class="cls-4" d="M214.15,182.83c.32-.19.63-.2.89.03,1.57,1.4-3.85,6.5-5.01,7.56v4.91c.66-1.64,2.62-6.35,4.13-7.22.32-.19.63-.2.9.04,1.57,1.4-3.85,6.5-5.01,7.56v4.91c.66-1.64,2.62-6.35,4.14-7.22.33-.19.63-.2.89.03,1.57,1.4-3.85,6.5-5.02,7.56v1.2s-.65.38-.65.38v-.65c-1.23.3-6.56,1.42-5.01-1.76.26-.54.56-.87.89-1.06,1.48-.86,3.43,1.48,4.12,2.4v-4.87c-1.25.3-6.57,1.42-5.02-1.76.26-.54.56-.87.88-1.06,1.49-.86,3.43,1.48,4.12,2.4v-4.87c-1.25.3-6.57,1.42-5.02-1.76.26-.53.56-.87.88-1.06,1.48-.86,3.43,1.48,4.12,2.4v-5.18c.1-.06.21-.12.32-.18.11-.06.21-.13.32-.19v4.67c.66-1.64,2.62-6.35,4.14-7.22Z"/>
          <path class="cls-2" d="M214.65,170.54c.09.54,1.78,10.76-4.64,14.84-.1.07-.21.13-.32.19-.12.07-.23.13-.34.18-6.41,3.3-4.76-8.82-4.67-9.46l1.25,2.08,1.23-3.51,1.26,2.08,1.24-3.52,1.26,2.08,1.24-3.52,1.25,2.08,1.25-3.52Z"/>
        </g>
      </g>
      <path class="cls-16" d="M233.55,256.72l34.93-20.61.79,65.08-34.94,20.61-.79-65.08ZM260.26,268.34l.23-.45-9.86-3.86-.25-.1-.23.41-8.2,14.51.25.14.19,15.92,18.06-10.66-.2-15.92"/>
      <polygon class="cls-23" points="236.19 258.05 252.68 270.89 287.18 250.7 270.69 237.86 236.19 258.05"/>
      <polygon class="cls-24" points="252.68 270.89 252.72 275.68 287.23 255.75 287.18 250.7 252.68 270.89"/>
    </g>
  </g>
</svg>