<?xml version="1.0" encoding="UTF-8"?>
<svg xmlns="http://www.w3.org/2000/svg" viewBox="0 0 304.99 322.04">
  <defs>
    <style>
      .cls-1 {
        fill: #ff7f6a;
      }

      .cls-2 {
        fill: #ffbcca;
      }

      .cls-3 {
        fill: #cdc68c;
      }

      .cls-4 {
        fill: #009c4e;
      }

      .cls-5 {
        fill: #ff5f3d;
      }

      .cls-6 {
        fill: #7bd3fc;
      }

      .cls-7 {
        fill: #a2dea4;
      }

      .cls-8 {
        isolation: isolate;
      }

      .cls-9 {
        fill: #fff15d;
      }

      .cls-10 {
        fill: #fbfbe8;
      }

      .cls-11 {
        fill: #fff;
      }

      .cls-12 {
        fill: #a0ddfe;
      }

      .cls-13 {
        fill: #84d387;
      }

      .cls-14 {
        fill: #fff0a2;
      }

      .cls-15 {
        fill: #ceefcd;
      }

      .cls-16 {
        fill: #ff9c8e;
      }

      .cls-17 {
        fill: #ff5e3d;
      }

      .cls-18 {
        fill: #7bd3f7;
        mix-blend-mode: multiply;
      }

      .cls-19 {
        fill: #fbdb79;
      }

      .cls-20 {
        fill: #009a9d;
      }

      .cls-21 {
        fill: #e0db9c;
      }
    </style>
  </defs>
  <g class="cls-8">
    <g id="_레이어_2" data-name="레이어 2">
      <g id="_빌딩-8" data-name="빌딩-8">
        <g>
          <g class="cls-8">
            <polygon class="cls-9" points="192.89 119.13 192.52 249.81 65.65 322.04 66.03 191.38 192.89 119.13"/>
            <polygon class="cls-19" points="66.03 190.66 65.66 321.33 13.23 291.07 13.6 160.39 66.03 190.66"/>
            <polygon class="cls-19" points="245.33 149.41 244.96 280.08 192.52 249.81 192.89 119.13 245.33 149.41"/>
            <polygon class="cls-7" points="192.89 202.86 192.52 249.81 65.65 322.04 66.03 275.1 192.89 202.86"/>
            <polygon class="cls-15" points="66.03 274.38 65.66 321.33 13.23 291.07 13.6 244.12 66.03 274.38"/>
            <polygon class="cls-13" points="245.33 233.13 244.96 280.08 192.52 249.81 192.89 202.86 245.33 233.13"/>
            <polygon class="cls-9" points="292.27 122.13 291.9 252.8 244.96 280.08 245.33 149.41 292.27 122.13"/>
            <polygon class="cls-7" points="292.27 205.79 291.9 253.72 244.96 281 245.33 233.07 292.27 205.79"/>
            <g>
              <polygon class="cls-14" points="292.27 122.13 245.33 149.41 192.89 119.13 65.73 191.18 13.3 160.92 187.41 61.58 292.27 122.13"/>
              <g>
                <path class="cls-6" d="M158.8,133.07c2.27-1.29,4.48-2.54,6.61-3.74l-44.14-24.62c-42.65,24.33-91.43,52.16-98.57,56.23,1.68.97,3.92,2.26,6.47,3.74,16.19-9.23,56.3-32.12,92.1-52.54l37.53,20.94Z"/>
                <path class="cls-12" d="M158.8,133.07l-37.53-20.94c-35.8,20.43-75.91,43.31-92.1,52.54,12.7,7.33,33.55,19.37,36.58,21.12,2.93-1.66,56.39-31.95,93.05-52.72Z"/>
              </g>
            </g>
          </g>
          <g class="cls-8">
            <polygon class="cls-9" points="189.94 46.8 207.73 23.93 226.69 25.44 226.5 90.78 189.76 112.14 189.94 46.8"/>
            <polygon class="cls-19" points="189.94 46.8 189.76 112.14 148.15 88.12 148.33 22.78 189.94 46.8"/>
          </g>
          <g>
            <polygon class="cls-19" points="202.45 65.06 195.83 68.87 195.83 73.15 205.17 67.77 205.17 55.56 202.45 57.12 202.45 65.06"/>
            <polygon class="cls-19" points="216.73 48.7 216.73 56.64 210.09 60.45 210.09 64.73 219.43 59.36 219.43 47.14 216.73 48.7"/>
            <polygon class="cls-20" points="202.45 57.12 195.83 60.93 195.83 68.87 202.45 65.06 202.45 57.12"/>
            <polygon class="cls-20" points="216.73 48.7 210.09 52.51 210.09 60.45 216.73 56.64 216.73 48.7"/>
          </g>
          <g>
            <polygon class="cls-9" points="173.46 55.65 170 53.65 169.97 65.87 179.29 71.26 179.3 66.61 173.44 63.21 173.46 55.65"/>
            <polygon class="cls-9" points="159.21 47.19 155.76 45.19 155.72 57.4 165.05 62.8 165.06 58.15 159.2 54.76 159.21 47.19"/>
            <polygon class="cls-18" points="173.46 55.65 173.44 63.21 179.3 66.61 179.33 59.05 173.46 55.65"/>
            <polygon class="cls-20" points="173.46 55.65 173.44 63.21 179.3 66.61 179.33 59.05 173.46 55.65"/>
            <polygon class="cls-18" points="159.21 47.19 159.2 54.76 165.06 58.15 165.09 50.58 159.21 47.19"/>
            <polygon class="cls-20" points="159.21 47.19 159.2 54.76 165.06 58.15 165.09 50.58 159.21 47.19"/>
          </g>
          <g class="cls-8">
            <polygon class="cls-3" points="167.62 83.77 167.6 91.78 144.08 78.2 144.1 70.19 167.62 83.77"/>
            <polygon class="cls-21" points="175.41 79.25 167.62 83.77 144.1 70.19 151.89 65.66 175.41 79.25"/>
          </g>
          <g class="cls-8">
            <polygon class="cls-3" points="159.85 96.46 159.82 104.47 136.3 90.89 136.32 82.88 159.85 96.46"/>
            <polygon class="cls-21" points="167.64 91.94 159.85 96.46 136.32 82.88 144.11 78.35 167.64 91.94"/>
          </g>
          <g class="cls-8">
            <polygon class="cls-10" points="167.62 83.77 167.61 91.95 159.85 96.46 159.84 104.64 152.07 109.15 152.04 117.16 159.84 112.63 159.84 112.39 167.6 107.88 167.6 107.97 175.39 103.44 175.41 79.25 167.62 83.77"/>
            <polygon class="cls-3" points="152.07 109.15 152.04 117.16 128.52 103.58 128.55 95.57 152.07 109.15"/>
            <polygon class="cls-21" points="159.85 104.63 152.07 109.15 128.55 95.57 136.34 91.05 159.85 104.63"/>
          </g>
          <polygon class="cls-17" points="205.61 98.85 237.86 80.69 224.39 65.1 192.14 83.26 205.61 98.85"/>
          <polygon class="cls-17" points="257.88 256.23 304.99 230.37 291.52 214.77 244.42 240.64 257.88 256.23"/>
          <polygon class="cls-17" points="78.53 299.36 205.67 228.43 192.77 212.96 65.63 283.9 78.53 299.36"/>
          <polygon class="cls-5" points="148.33 22.78 165.97 0 185.08 1.42 226.69 25.44 207.73 23.93 189.94 46.8 148.33 22.78"/>
          <polygon class="cls-16" points="230.95 256.23 244.42 240.64 257.88 256.23 230.95 256.23"/>
          <polygon class="cls-1" points="192.63 212.59 192.63 235.48 230.95 256.23 244.42 240.64 192.63 212.59"/>
          <polygon class="cls-16" points="51.83 299.15 65.3 283.56 78.77 299.15 51.83 299.15"/>
          <polygon class="cls-1" points="13.52 255.51 0 270.87 51.83 299.15 65.3 283.56 13.52 255.51"/>
          <polygon class="cls-11" points="84.04 247.08 83.92 206.08 101.14 196.13 101.26 237.14 84.04 247.08"/>
          <polygon class="cls-11" points="105.5 236.07 105.38 195.07 122.6 185.13 122.72 226.13 105.5 236.07"/>
          <polygon class="cls-11" points="139.07 215.71 138.95 174.71 156.17 164.77 156.29 205.77 139.07 215.71"/>
          <polygon class="cls-11" points="160.53 204.71 160.41 163.7 177.63 153.76 177.75 194.77 160.53 204.71"/>
          <polygon class="cls-11" points="249.12 212.41 249 171.41 266.23 161.47 266.34 202.47 249.12 212.41"/>
          <polygon class="cls-11" points="270.58 201.41 270.47 160.4 287.69 150.46 287.8 191.46 270.58 201.41"/>
          <polygon class="cls-11" points="238.16 209.66 238.28 168.66 221.06 158.71 220.94 199.72 238.16 209.66"/>
          <polygon class="cls-11" points="216.7 198.65 216.82 157.65 199.6 147.71 199.48 188.71 216.7 198.65"/>
          <polygon class="cls-11" points="59.33 250.38 59.44 209.38 42.22 199.43 42.1 240.44 59.33 250.38"/>
          <polygon class="cls-11" points="37.86 239.38 37.98 198.37 20.76 188.43 20.64 229.43 37.86 239.38"/>
          <path class="cls-7" d="M242.21,97.12l-40.2,22.89,42.77,24.7,39.79-23.12-42.36-24.46Z"/>
          <g class="cls-8">
            <path class="cls-4" d="M247.48,96.17c.28-.16.54-.17.77.03,1.37,1.22-3.34,5.64-4.35,6.56v4.26c.57-1.42,2.28-5.51,3.59-6.27.28-.16.55-.17.78.03,1.37,1.22-3.34,5.64-4.35,6.56v4.26c.57-1.42,2.28-5.51,3.59-6.27.28-.16.55-.17.78.03,1.37,1.22-3.34,5.64-4.35,6.56v1.04s-.56.33-.56.33v-.57c-1.07.26-5.69,1.24-4.34-1.53.23-.47.49-.76.77-.92,1.29-.74,2.98,1.29,3.57,2.09v-4.23c-1.08.26-5.7,1.23-4.35-1.53.23-.47.49-.76.77-.92,1.29-.74,2.98,1.29,3.57,2.09v-4.23c-1.08.26-5.7,1.24-4.35-1.53.23-.46.49-.76.77-.92,1.29-.74,2.98,1.29,3.57,2.08v-4.5c.08-.05.18-.1.28-.16.09-.05.19-.11.27-.17v4.06c.57-1.42,2.28-5.51,3.59-6.27Z"/>
            <path class="cls-2" d="M247.92,85.5c.08.47,1.55,9.34-4.03,12.88-.09.06-.18.11-.27.17-.1.06-.2.11-.29.16-5.56,2.86-4.13-7.66-4.05-8.21l1.09,1.81,1.07-3.05,1.09,1.81,1.07-3.06,1.09,1.81,1.07-3.06,1.09,1.81,1.08-3.06Z"/>
          </g>
          <g class="cls-8">
            <path class="cls-4" d="M267.7,105.66c.28-.16.54-.17.77.03,1.37,1.22-3.34,5.64-4.35,6.56v4.26c.57-1.42,2.28-5.51,3.59-6.27.28-.16.55-.17.78.03,1.37,1.22-3.34,5.64-4.35,6.56v4.26c.57-1.42,2.28-5.51,3.59-6.27.28-.16.55-.17.78.03,1.37,1.22-3.34,5.64-4.35,6.56v1.04s-.56.33-.56.33v-.57c-1.07.26-5.69,1.24-4.34-1.53.23-.47.49-.76.77-.92,1.29-.74,2.98,1.29,3.57,2.09v-4.23c-1.08.26-5.7,1.23-4.35-1.53.23-.47.49-.76.77-.92,1.29-.74,2.98,1.29,3.57,2.09v-4.23c-1.08.26-5.7,1.24-4.35-1.53.23-.46.49-.76.77-.92,1.29-.74,2.98,1.29,3.57,2.08v-4.5c.08-.05.18-.1.28-.16.09-.05.19-.11.27-.17v4.06c.57-1.42,2.28-5.51,3.59-6.27Z"/>
            <path class="cls-2" d="M268.14,94.99c.08.47,1.55,9.34-4.03,12.88-.09.06-.18.11-.27.17-.1.06-.2.11-.29.16-5.56,2.86-4.13-7.66-4.05-8.21l1.09,1.81,1.07-3.05,1.09,1.81,1.07-3.06,1.09,1.81,1.07-3.06,1.09,1.81,1.08-3.06Z"/>
          </g>
          <g class="cls-8">
            <path class="cls-4" d="M227.26,106.78c.28-.16.54-.17.77.03,1.37,1.22-3.34,5.64-4.35,6.56v4.26c.57-1.42,2.28-5.51,3.59-6.27.28-.16.55-.17.78.03,1.37,1.22-3.34,5.64-4.35,6.56v4.26c.57-1.42,2.28-5.51,3.59-6.27.28-.16.55-.17.78.03,1.37,1.22-3.34,5.64-4.35,6.56v1.04s-.56.33-.56.33v-.57c-1.07.26-5.69,1.24-4.34-1.53.23-.47.49-.76.77-.92,1.29-.74,2.98,1.29,3.57,2.09v-4.23c-1.08.26-5.7,1.23-4.35-1.53.23-.47.49-.76.77-.92,1.29-.74,2.98,1.29,3.57,2.09v-4.23c-1.08.26-5.7,1.24-4.35-1.53.23-.46.49-.76.77-.92,1.29-.74,2.98,1.29,3.57,2.08v-4.5c.08-.05.18-.1.28-.16.09-.05.19-.11.27-.17v4.06c.57-1.42,2.28-5.51,3.59-6.27Z"/>
            <path class="cls-2" d="M227.69,96.11c.08.47,1.55,9.34-4.03,12.88-.09.06-.18.11-.27.17-.1.06-.2.11-.29.16-5.56,2.86-4.13-7.66-4.05-8.21l1.09,1.81,1.07-3.05,1.09,1.81,1.07-3.06,1.09,1.81,1.07-3.06,1.09,1.81,1.08-3.06Z"/>
          </g>
          <g class="cls-8">
            <path class="cls-4" d="M247.89,119.28c.28-.16.54-.17.77.03,1.37,1.22-3.34,5.64-4.35,6.56v4.26c.57-1.42,2.28-5.51,3.59-6.27.28-.16.55-.17.78.03,1.37,1.22-3.34,5.64-4.35,6.56v4.26c.57-1.42,2.28-5.51,3.59-6.27.28-.16.55-.17.78.03,1.37,1.22-3.34,5.64-4.35,6.56v1.04s-.56.33-.56.33v-.57c-1.07.26-5.69,1.24-4.34-1.53.23-.47.49-.76.77-.92,1.29-.74,2.98,1.29,3.57,2.09v-4.23c-1.08.26-5.7,1.23-4.35-1.53.23-.47.49-.76.77-.92,1.29-.74,2.98,1.29,3.57,2.09v-4.23c-1.08.26-5.7,1.24-4.35-1.53.23-.46.49-.76.77-.92,1.29-.74,2.98,1.29,3.57,2.08v-4.5c.08-.05.18-.1.28-.16.09-.05.19-.11.27-.17v4.06c.57-1.42,2.28-5.51,3.59-6.27Z"/>
            <path class="cls-2" d="M248.33,108.61c.08.47,1.55,9.34-4.03,12.88-.09.06-.18.11-.27.17-.1.06-.2.11-.29.16-5.56,2.86-4.13-7.66-4.05-8.21l1.09,1.81,1.07-3.05,1.09,1.81,1.07-3.06,1.09,1.81,1.07-3.06,1.09,1.81,1.08-3.06Z"/>
          </g>
        </g>
      </g>
    </g>
  </g>
</svg>