<?xml version="1.0" encoding="UTF-8"?>
<svg xmlns="http://www.w3.org/2000/svg" viewBox="0 0 209.95 260.21">
  <defs>
    <style>
      .cls-1 {
        fill: #7fcdee;
      }

      .cls-2 {
        fill: #008abc;
      }

      .cls-3 {
        fill: #92d5d0;
      }

      .cls-4 {
        isolation: isolate;
      }

      .cls-5 {
        fill: #ffd9d3;
      }

      .cls-6 {
        fill: #efe3d5;
      }

      .cls-7 {
        fill: #fff;
      }

      .cls-8 {
        fill: #c6c8ca;
      }

      .cls-9 {
        fill: #e2e3e4;
      }

      .cls-10 {
        fill: #ffbdb3;
      }

      .cls-11 {
        fill: #e4d23b;
      }

      .cls-12 {
        mix-blend-mode: multiply;
      }

      .cls-12, .cls-13 {
        fill: #8c8c8c;
      }

      .cls-14 {
        mix-blend-mode: soft-light;
      }

      .cls-15 {
        fill: #abadb0;
      }
    </style>
  </defs>
  <g class="cls-4">
    <g id="_레이어_2" data-name="레이어 2">
      <g id="_빌딩-3" data-name="빌딩-3">
        <g>
          <g class="cls-4">
            <polygon class="cls-8" points="171.28 114.87 92.34 68.99 124.13 50.64 203.07 96.51 171.28 114.87"/>
            <polygon class="cls-15" points="81.49 260.21 2.55 214.33 2.28 120.99 81.22 166.87 81.49 260.21"/>
            <g>
              <polygon class="cls-8" points="81.22 166.87 2.28 120.99 34.07 102.63 113.01 148.51 81.22 166.87"/>
              <g>
                <path class="cls-2" d="M98.14,150.75c1.32-.76,2.63-1.52,3.91-2.25-12.66-7.36-63.42-36.85-67.99-39.51-3.29,1.9-12.83,7.41-20.81,12.02,1.05.61,2.38,1.38,3.9,2.26,6.96-4.02,14.14-8.16,16.91-9.77,4.2,2.44,47.22,27.44,64.09,37.24Z"/>
                <path class="cls-1" d="M98.14,150.75c-16.87-9.8-59.89-34.8-64.09-37.24-2.77,1.6-9.95,5.75-16.91,9.77,16.87,9.8,59.89,34.81,64.09,37.24,2.77-1.6,9.95-5.75,16.91-9.77Z"/>
              </g>
            </g>
            <polygon class="cls-15" points="113.01 148.51 34.07 102.63 33.87 33.65 112.81 79.52 113.01 148.51"/>
            <polygon class="cls-8" points="112.81 79.52 33.87 33.65 92.14 0 171.08 45.88 112.81 79.52"/>
            <g class="cls-4">
              <polygon class="cls-9" points="171.08 45.88 171.28 114.87 203.07 96.51 203.34 189.86 81.49 260.21 81.22 166.87 113.01 148.51 112.81 79.52 171.08 45.88"/>
            </g>
          </g>
          <g>
            <polygon class="cls-13" points="138.87 226.79 138.87 193.21 158.86 181.58 158.86 215.24 138.87 226.79"/>
            <polygon class="cls-12" points="148.98 187.4 158.86 181.58 158.86 215.24 158.59 215.4 148.98 211.83 148.98 187.4"/>
          </g>
          <g>
            <polygon class="cls-15" points="151.18 72.53 151.18 91.89 128.89 104.85 128.89 109.51 154.13 94.83 154.13 70.82 151.18 72.53"/>
            <polygon class="cls-3" points="151.18 72.53 128.89 85.49 128.89 104.85 151.18 91.89 151.18 72.53"/>
          </g>
          <g>
            <polygon class="cls-15" points="151.18 112.69 151.18 132.06 128.89 145.02 128.89 149.67 154.13 135 154.13 110.99 151.18 112.69"/>
            <polygon class="cls-3" points="151.18 112.69 128.89 125.66 128.89 145.02 151.18 132.06 151.18 112.69"/>
          </g>
          <g>
            <polygon class="cls-15" points="151.18 152.86 151.18 172.22 128.89 185.19 128.89 189.84 154.13 175.16 154.13 151.15 151.18 152.86"/>
            <polygon class="cls-3" points="151.18 152.86 128.89 165.82 128.89 185.19 151.18 172.22 151.18 152.86"/>
          </g>
          <g>
            <polygon class="cls-9" points="11.11 146.36 11.11 165.72 33.4 178.69 33.4 183.34 8.16 168.67 8.16 144.65 11.11 146.36"/>
            <polygon class="cls-3" points="11.11 146.36 33.4 159.33 33.4 178.69 11.11 165.72 11.11 146.36"/>
          </g>
          <g>
            <polygon class="cls-9" points="11.11 181.61 11.11 200.97 33.4 213.93 33.4 218.59 8.16 203.91 8.16 179.9 11.11 181.61"/>
            <polygon class="cls-3" points="11.11 181.61 33.4 194.57 33.4 213.93 11.11 200.97 11.11 181.61"/>
          </g>
          <g>
            <polygon class="cls-15" points="115.65 209.07 115.65 228.43 93.35 241.39 93.35 246.05 118.59 231.37 118.59 207.36 115.65 209.07"/>
            <polygon class="cls-3" points="115.65 209.07 93.35 222.03 93.35 241.39 115.65 228.43 115.65 209.07"/>
          </g>
          <g>
            <polygon class="cls-15" points="115.65 173.69 115.65 193.05 93.35 206.02 93.35 210.68 118.59 196 118.59 171.98 115.65 173.69"/>
            <polygon class="cls-3" points="115.65 173.69 93.35 186.66 93.35 206.02 115.65 193.05 115.65 173.69"/>
          </g>
          <g>
            <polygon class="cls-15" points="190.13 130.57 190.13 149.93 167.84 162.89 167.84 167.54 193.07 152.87 193.07 128.85 190.13 130.57"/>
            <polygon class="cls-3" points="190.13 130.57 167.84 143.53 167.84 162.89 190.13 149.93 190.13 130.57"/>
          </g>
          <g>
            <polygon class="cls-15" points="190.13 165.31 190.13 184.67 167.84 197.63 167.84 202.28 193.07 187.61 193.07 163.59 190.13 165.31"/>
            <polygon class="cls-3" points="190.13 165.31 167.84 178.27 167.84 197.63 190.13 184.67 190.13 165.31"/>
          </g>
          <polygon class="cls-11" points="148.98 187.4 148.98 211.83 138.87 217.22 138.87 193.21 148.98 187.4"/>
          <polygon class="cls-7" points="62.1 149.4 82.87 137.35 102.05 148.49 81.23 160.52 62.1 149.4"/>
          <polygon class="cls-10" points="79.18 136.51 .24 90.63 34.07 62.41 113.01 108.29 79.18 136.51"/>
          <polygon class="cls-5" points=".24 90.63 .24 98.01 79.18 144.05 79.18 136.51 .24 90.63"/>
          <g>
            <polygon class="cls-6" points="39.48 65.56 5.4 93.63 5.4 101.02 9.29 103.29 9.29 95.89 42.74 67.46 39.48 65.56"/>
            <polygon class="cls-6" points="52.37 73.02 18.29 101.09 18.29 108.48 22.18 110.75 22.18 103.35 55.63 74.92 52.37 73.02"/>
            <polygon class="cls-6" points="65.26 80.49 31.18 108.56 31.18 115.95 35.07 118.22 35.07 110.82 68.52 82.38 65.26 80.49"/>
            <polygon class="cls-6" points="78.15 87.95 44.07 116.02 44.07 123.41 47.96 125.68 47.96 118.28 81.41 89.84 78.15 87.95"/>
            <polygon class="cls-6" points="91.04 95.41 56.95 123.48 56.95 130.87 60.85 133.14 60.85 125.74 94.3 97.31 91.04 95.41"/>
            <polygon class="cls-6" points="103.93 102.87 69.85 130.94 69.85 138.33 73.74 140.6 73.74 133.2 107.19 104.77 103.93 102.87"/>
          </g>
          <g class="cls-14">
            <polygon class="cls-7" points="0 91.05 78.94 136.93 79.43 136.09 .49 90.21 0 91.05"/>
          </g>
          <polygon class="cls-10" points="90.02 181.84 199.05 121.28 209.95 132.18 100.18 193.48 90.02 181.84"/>
        </g>
      </g>
    </g>
  </g>
</svg>