<?xml version="1.0" encoding="UTF-8"?>
<svg id="_레이어_2" data-name="레이어 2" xmlns="http://www.w3.org/2000/svg" viewBox="0 0 184.69 199.14">
  <defs>
    <style>
      .cls-1 {
        fill: #ff9eb6;
      }

      .cls-2 {
        fill: #913d92;
      }

      .cls-3 {
        fill: #009c4e;
      }

      .cls-4 {
        fill: #675aa0;
      }

      .cls-5 {
        isolation: isolate;
      }

      .cls-6 {
        fill: #88e5c8;
      }

      .cls-7 {
        fill: #bfeaff;
      }

      .cls-8 {
        fill: #ffcad8;
      }

      .cls-9 {
        fill: #fff;
      }

      .cls-10 {
        fill: #d8b5ab;
      }

      .cls-11 {
        fill: #bb8c80;
      }

      .cls-12 {
        fill: #ffdde1;
      }

      .cls-13 {
        fill: none;
        stroke: #fff;
        stroke-width: 1.65px;
      }

      .cls-14 {
        fill: #d9b5ac;
      }

      .cls-15 {
        fill: #43c7f3;
      }

      .cls-16 {
        fill: #ba8c7f;
      }

      .cls-17 {
        fill: #955542;
      }
    </style>
  </defs>
  <g id="_빌딩-13" data-name="빌딩-13">
    <g>
      <g>
        <g class="cls-5">
          <polygon class="cls-1" points="15.63 144.61 83.72 115.63 77.92 34.36 14.91 70.19 15.63 144.61"/>
          <polygon class="cls-9" points="23.17 102.14 86.18 66.31 85.96 65.87 22.95 101.7 23.17 102.14"/>
          <polygon class="cls-9" points="23.48 102.02 86.49 66.19 86.18 66.31 23.17 102.14 23.48 102.02"/>
          <polygon class="cls-11" points="40.42 127.69 103.43 91.86 85.77 81.44 22.76 117.27 40.42 127.69"/>
          <polygon class="cls-9" points="40.12 111.83 103.13 76 86.49 66.19 23.48 102.02 40.12 111.83"/>
          <polygon class="cls-11" points="22.76 117.27 85.77 81.44 85.96 65.87 22.95 101.7 22.76 117.27"/>
          <polygon class="cls-11" points="32.57 98.47 95.58 62.64 86.49 66.19 23.48 102.02 32.57 98.47"/>
          <polygon class="cls-17" points="32.37 97.5 95.38 61.66 85.74 65.43 22.73 101.27 32.37 97.5"/>
          <polygon class="cls-11" points="22.95 101.7 85.96 65.87 85.74 65.43 22.73 101.27 22.95 101.7"/>
          <rect class="cls-9" x="35.5" y="93.89" width="72.49" height=".49" transform="translate(-37.15 47.78) rotate(-29.63)"/>
          <polygon class="cls-11" points="40.12 111.83 103.13 76 95.58 62.64 32.57 98.47 40.12 111.83"/>
          <polygon class="cls-11" points="42.7 110.53 35.14 97.16 26.06 100.72 42.7 110.53"/>
          <polygon class="cls-9" points="25.52 100.4 25.33 115.97 43 126.39 43.19 110.82 42.94 110.96 42.7 110.53 26.06 100.72 25.75 100.84 25.52 100.4"/>
          <polygon class="cls-11" points="40.86 111.98 103.87 76.15 103.62 76.29 40.61 112.12 40.86 111.98"/>
          <polygon class="cls-9" points="40.61 112.12 103.62 76.29 103.37 76.43 40.36 112.26 40.61 112.12"/>
          <polygon class="cls-17" points="35.19 96.09 34.95 96.19 25.3 99.96 25.52 100.4 25.75 100.84 26.06 100.72 35.14 97.16 42.7 110.53 42.94 110.96 43.19 110.82 43.43 110.68 35.42 96.49 35.19 96.09"/>
          <polygon class="cls-9" points="40.42 127.69 103.43 91.86 103.62 76.29 40.61 112.12 40.42 127.69"/>
          <polygon class="cls-17" points="42.88 110.94 103.87 76.15 95.85 61.96 34.87 96.75 42.88 110.94"/>
          <polygon class="cls-17" points="32.84 97.79 95.85 61.96 95.63 61.56 32.62 97.39 32.84 97.79"/>
          <polygon class="cls-17" points="32.62 97.39 95.63 61.56 95.38 61.66 32.37 97.5 32.62 97.39"/>
          <polygon class="cls-12" points="65.85 153.28 128.86 117.45 121.24 112.95 58.24 148.79 65.85 153.28"/>
          <polygon class="cls-12" points="86.76 165.61 149.77 129.78 132.7 119.71 69.69 155.54 86.76 165.61"/>
          <polygon class="cls-11" points="49.79 162.25 111.3 115.62 112.08 51.99 49.06 87.83 49.79 162.25"/>
          <polygon class="cls-1" points="58.24 148.79 121.24 112.95 121.74 72.07 58.73 107.91 58.24 148.79"/>
          <path class="cls-11" d="M52.86,161.63l-34.19-18.09-1.18-74.65,34.15,20.15,1.22,72.59ZM25.52,100.4l-.19,15.57,17.66,10.42.19-15.57.25-.14-8.02-14.19-.22-.4-.25.1-9.64,3.77.22.44"/>
          <polygon class="cls-11" points="49.06 90.34 112.08 54.51 77.92 34.36 14.91 70.19 49.06 90.34"/>
          <polygon class="cls-12" points="100.01 173.43 163.02 137.6 153.61 132.04 90.6 167.88 100.01 173.43"/>
          <polygon class="cls-6" points="65.85 153.28 128.86 117.45 129.36 76.56 66.35 112.4 65.85 153.28"/>
          <polygon class="cls-6" points="69.58 109.96 61.97 105.47 61.47 146.35 69.09 150.84 69.58 109.96"/>
          <polygon class="cls-6" points="66.35 112.4 129.36 76.56 121.74 72.07 58.73 107.91 66.35 112.4"/>
          <polygon class="cls-1" points="69.69 155.54 132.7 119.71 133.19 78.83 70.18 114.66 69.69 155.54"/>
          <polygon class="cls-6" points="86.76 165.61 149.77 129.78 150.27 88.9 87.26 124.73 86.76 165.61"/>
          <polygon class="cls-6" points="90 163.17 90.49 122.29 73.42 112.22 72.92 153.1 90 163.17"/>
          <polygon class="cls-6" points="87.26 124.73 150.27 88.9 133.19 78.83 70.18 114.66 87.26 124.73"/>
          <polygon class="cls-1" points="90.6 167.88 153.61 132.04 154.11 91.17 91.1 127 90.6 167.88"/>
          <polygon class="cls-6" points="103.25 170.99 103.75 130.11 94.33 124.56 93.84 165.44 103.25 170.99"/>
          <polygon class="cls-6" points="100.51 132.55 163.52 96.72 154.11 91.17 91.1 127 100.51 132.55"/>
          <polygon class="cls-6" points="100.01 173.43 163.02 137.6 163.52 96.72 100.51 132.55 100.01 173.43"/>
          <path class="cls-7" d="M56.89,35.83L119.9,0c-5.1,2.62-36.34,18.65-50.67,26.01L6.23,66.86c14.33-7.36,45.57-28.41,50.67-31.03Z"/>
          <path class="cls-8" d="M57.16,36.31c.27.48.59,1.05.98,1.76.37.66.78,1.4,1.5,2.7.14.24.28.5.42.75.09.16.17.31.36.64.33.59.68,1.22,1.04,1.87,7.52,13.45,21.51,38.49,32.02,57.32.08.14.15.27.23.41,3.75,6.72,7.04,12.61,9.4,16.84l2.89,70.99-56.23-28.18-.72-71.07-34.16-15.12.72,69.39-7.56-4.89-1.84-72.86c14.33-7.36,45.57-28.41,50.67-31.03.07.12.15.26.27.48ZM69.69,155.54l17.08,10.07.5-40.88-17.08-10.07-.5,40.88M90.6,167.88l9.41,5.55.5-40.88-9.41-5.55-.5,40.88M58.24,148.79l7.62,4.49.5-40.88-7.62-4.49-.5,40.88"/>
          <path class="cls-15" d="M103.13,118.6l63.01-35.83c-2.36-4.23-5.65-10.12-9.41-16.84-.07-.13-.15-.27-.22-.41-10.52-18.83-24.51-43.87-32.02-57.32-.36-.65-.71-1.27-1.04-1.87-.18-.33-.27-.48-.36-.64-.14-.26-.28-.51-.42-.76-.72-1.3-1.14-2.04-1.51-2.7-.4-.71-.71-1.28-.98-1.76-.12-.22-.2-.36-.27-.48l-63.01,35.83c.07.12.15.26.27.48.27.48.59,1.05.98,1.76.37.66.78,1.4,1.5,2.7.14.24.28.5.42.75.09.16.17.31.36.64.33.59.68,1.22,1.04,1.87,7.52,13.45,21.51,38.49,32.02,57.32.08.14.15.27.23.41,3.75,6.72,7.04,12.61,9.4,16.84Z"/>
          <polygon class="cls-1" points="103.81 179.88 165.32 150 166.14 82.76 103.13 118.6 103.81 179.88"/>
        </g>
        <g>
          <line class="cls-13" x1="162.64" y1="84.67" x2="116.01" y2="2.13"/>
          <line class="cls-13" x1="156.5" y1="88.23" x2="109.88" y2="5.69"/>
          <line class="cls-13" x1="150.36" y1="91.8" x2="103.74" y2="9.26"/>
          <line class="cls-13" x1="144.23" y1="95.36" x2="97.6" y2="12.82"/>
          <line class="cls-13" x1="138.09" y1="98.92" x2="91.46" y2="16.39"/>
          <line class="cls-13" x1="131.95" y1="102.49" x2="85.33" y2="19.95"/>
          <line class="cls-13" x1="125.81" y1="106.05" x2="79.19" y2="23.51"/>
          <line class="cls-13" x1="119.68" y1="109.62" x2="73.05" y2="27.08"/>
          <line class="cls-13" x1="113.54" y1="113.18" x2="66.92" y2="30.64"/>
          <line class="cls-13" x1="107.4" y1="116.75" x2="60.78" y2="34.21"/>
        </g>
        <polygon class="cls-14" points="49.06 90.34 32.94 102.9 .88 85.67 15.33 74.79 49.06 90.34"/>
        <polygon class="cls-17" points="32.94 102.9 32.9 107.57 0 89.76 .88 85.67 32.94 102.9"/>
      </g>
      <g>
        <polygon class="cls-10" points="100.1 187.87 100.4 163.1 121.61 175.54 121.69 198.83 121.37 199.14 100.1 187.87"/>
        <polygon class="cls-17" points="184.38 161.63 121.37 199.14 121.61 175.54 184.69 139.91 184.38 161.63"/>
        <g>
          <polygon class="cls-8" points="155.21 107.81 158.4 106.01 158.15 125.8 105.71 155.62 105.76 150.64 155.03 122.62 155.21 107.81"/>
          <polygon class="cls-6" points="155.21 107.81 155.03 122.62 105.76 150.64 105.9 135.66 155.21 107.81"/>
        </g>
        <polygon class="cls-16" points="163.41 126.96 184.69 139.91 121.61 175.54 100.4 163.1 163.41 126.96"/>
        <path class="cls-17" d="M175.47,139.76c-10.52,5.94-49.97,28.23-53.82,30.4-2.33-1.37-6.69-3.93-11.96-7.02,10.56-6.06,49.73-28.52,53.64-30.76,2.39,1.45,6.86,4.17,12.13,7.38Z"/>
        <g>
          <path class="cls-4" d="M153.09,97.58c-.13.73-2.57,14.67,6.15,20.34.14.09.29.18.44.27.16.09.31.18.46.26,8.71,4.59,6.62-12,6.5-12.87l-1.74,2.83-1.65-4.82-1.74,2.83-1.64-4.82-1.74,2.83-1.65-4.82-1.75,2.82-1.66-4.83Z"/>
          <path class="cls-3" d="M153.63,114.39c-.44-.26-.85-.28-1.22.04-2.17,1.89,5.17,8.93,6.75,10.39l-.08,6.71c-.86-2.24-3.48-8.71-5.53-9.92-.44-.26-.85-.28-1.22.04-2.17,1.89,5.17,8.93,6.75,10.39l-.08,6.71c-.86-2.24-3.49-8.71-5.54-9.92-.44-.26-.85-.28-1.22.04-2.17,1.9,5.18,8.93,6.75,10.39l-.02,1.64.9.53v-.89c1.68.42,8.94,2.02,6.87-2.34-.35-.74-.76-1.2-1.2-1.46-2.02-1.19-4.71,1.98-5.65,3.24l.08-6.65c1.67.43,8.93,2.02,6.86-2.34-.35-.74-.76-1.2-1.2-1.46-2.02-1.19-4.71,1.98-5.65,3.23l.08-6.65c1.67.42,8.93,2.02,6.86-2.34-.35-.74-.76-1.2-1.2-1.46-2.02-1.19-4.71,1.98-5.65,3.23l.09-7.08c-.15-.08-.3-.16-.46-.26-.15-.09-.29-.18-.44-.27l-.08,6.39c-.86-2.24-3.49-8.71-5.54-9.92Z"/>
        </g>
        <g class="cls-5">
          <path class="cls-3" d="M125.54,128.22c-.44-.26-.85-.28-1.22.04-2.17,1.89,5.18,8.93,6.76,10.4l-.08,6.71c-.86-2.24-3.49-8.71-5.54-9.93-.44-.26-.86-.28-1.22.04-2.17,1.89,5.18,8.93,6.76,10.4l-.08,6.71c-.87-2.24-3.49-8.71-5.54-9.92-.44-.26-.86-.28-1.22.03-2.17,1.9,5.18,8.93,6.76,10.4l-.02,1.64.89.52v-.89c1.69.43,8.96,2.03,6.87-2.34-.35-.74-.76-1.2-1.2-1.46-2.02-1.19-4.71,1.98-5.66,3.23l.08-6.65c1.68.43,8.94,2.03,6.86-2.34-.35-.74-.76-1.2-1.2-1.46-2.02-1.19-4.71,1.98-5.66,3.23l.08-6.65c1.68.43,8.94,2.03,6.86-2.34-.35-.74-.76-1.2-1.2-1.46-2.02-1.19-4.71,1.98-5.66,3.23l.09-7.08c-.15-.08-.3-.16-.46-.25-.15-.09-.29-.18-.43-.27l-.08,6.39c-.87-2.24-3.49-8.71-5.54-9.92Z"/>
          <path class="cls-2" d="M125,111.42c-.13.73-2.58,14.68,6.15,20.34.14.09.28.18.43.27.16.09.31.18.46.25,8.71,4.59,6.61-12,6.5-12.87l-1.74,2.83-1.63-4.82-1.74,2.83-1.64-4.82-1.74,2.83-1.65-4.82-1.74,2.83-1.66-4.83Z"/>
        </g>
      </g>
    </g>
  </g>
</svg>