<?xml version="1.0" encoding="UTF-8"?>
<svg id="_레이어_2" data-name="레이어 2" xmlns="http://www.w3.org/2000/svg" viewBox="0 0 123.7 240.46">
  <defs>
    <style>
      .cls-1 {
        fill: #5a3519;
      }

      .cls-2 {
        isolation: isolate;
      }

      .cls-3 {
        fill: #ffd9d3;
      }

      .cls-4 {
        fill: #ffebe8;
      }

      .cls-5 {
        fill: #c6845c;
      }

      .cls-6 {
        fill: #ffbdb3;
      }

      .cls-7 {
        fill: #7edbe5;
      }

      .cls-8 {
        fill: #67a3c1;
      }
    </style>
  </defs>
  <g id="_빌딩-4" data-name="빌딩-4">
    <g>
      <polygon class="cls-3" points="63.75 71.37 63.31 225.34 63.27 240.46 123.22 205.62 123.27 190.49 123.7 36.53 63.75 71.37"/>
      <g class="cls-2">
        <polygon class="cls-1" points="54.62 216.06 54.6 220.31 43.49 213.89 43.5 209.64 54.62 216.06"/>
        <polygon class="cls-1" points="22.67 197.62 22.66 201.87 7.84 193.31 7.85 189.06 22.67 197.62"/>
        <polygon class="cls-5" points="63.32 221.09 63.31 225.34 7.84 193.31 7.85 189.06 7.84 193.31 22.66 201.87 22.67 197.62 43.5 209.64 43.49 213.89 54.6 220.31 54.62 216.06 63.32 221.09"/>
        <path class="cls-5" d="M7.84,193.31l14.82,8.55h0l-14.82-8.55Z"/>
        <polygon class="cls-1" points="30.11 188.05 30.1 192.31 14.82 183.49 14.84 179.23 30.11 188.05"/>
        <polygon class="cls-5" points="50.49 199.82 50.48 204.07 63.35 211.51 7.88 179.48 7.89 175.23 14.84 179.23 14.82 183.49 30.1 192.31 30.11 188.05 50.49 199.82"/>
        <polygon class="cls-1" points="63.36 207.25 63.35 211.51 50.48 204.07 50.49 199.82 63.36 207.25"/>
        <polygon class="cls-1" points="37.1 178.23 37.09 182.49 7.92 165.65 7.93 161.4 37.1 178.23"/>
        <polygon class="cls-5" points="63.4 193.42 63.39 197.68 7.92 165.65 7.93 161.4 7.92 165.65 37.09 182.49 37.1 178.23 63.4 193.42"/>
        <polygon class="cls-1" points="42.7 167.61 42.68 171.87 27.41 163.05 27.42 158.79 42.7 167.61"/>
        <polygon class="cls-1" points="13.07 150.51 13.06 154.76 7.96 151.82 7.97 147.57 13.07 150.51"/>
        <polygon class="cls-5" points="51.96 172.96 51.95 177.22 63.43 183.85 7.96 151.82 7.97 147.57 7.96 151.82 13.06 154.76 13.07 150.51 27.42 158.79 27.41 163.05 42.68 171.87 42.7 167.61 51.96 172.96"/>
        <polygon class="cls-1" points="63.44 179.59 63.43 183.85 51.95 177.22 51.96 172.96 63.44 179.59"/>
        <path class="cls-5" d="M7.96,151.82l5.09,2.94h0l-5.09-2.94Z"/>
        <polygon class="cls-1" points="59.86 163.67 59.85 167.92 45.5 159.64 45.51 155.38 59.86 163.67"/>
        <polygon class="cls-8" points="70.94 169.32 70.93 174.1 68.35 172.61 68.36 167.83 70.94 169.32"/>
        <polygon class="cls-1" points="20.51 140.95 20.5 145.2 8 137.99 8.01 133.73 20.51 140.95"/>
        <polygon class="cls-5" points="63.48 165.76 63.47 170.01 8 137.99 8.01 133.73 8 137.99 20.5 145.2 20.51 140.95 45.51 155.38 45.5 159.64 59.85 167.92 59.86 163.67 63.48 165.76"/>
        <polygon class="cls-5" points="63.52 151.92 63.51 156.18 8.04 124.16 8.05 119.9 19.63 126.58 19.61 130.84 32.58 138.32 32.59 134.07 50.18 144.22 50.17 148.48 56.65 152.22 56.66 147.96 63.52 151.92"/>
        <polygon class="cls-1" points="32.59 134.07 32.58 138.32 19.61 130.84 19.63 126.58 32.59 134.07"/>
        <polygon class="cls-1" points="56.66 147.96 56.65 152.22 50.17 148.48 50.18 144.22 56.66 147.96"/>
        <polygon class="cls-5" points="63.56 138.09 63.55 142.35 8.08 110.32 8.09 106.07 8.08 110.32 25.21 120.21 25.22 115.96 37.26 122.91 37.25 127.16 43.26 130.64 43.27 126.38 63.56 138.09"/>
        <polygon class="cls-1" points="43.27 126.38 43.26 130.64 37.25 127.16 37.26 122.91 43.27 126.38"/>
        <polygon class="cls-8" points="71.02 141.65 71.01 146.44 68.43 144.95 68.44 140.16 71.02 141.65"/>
        <polygon class="cls-1" points="25.22 115.96 25.21 120.21 8.08 110.32 8.09 106.07 25.22 115.96"/>
        <polygon class="cls-5" points="63.6 124.26 63.58 128.52 8.12 96.49 8.13 92.23 13.22 95.18 13.21 99.44 26.63 107.18 26.65 102.93 38.69 109.88 38.68 114.14 49.32 120.28 49.33 116.02 57.2 120.57 57.19 124.82 61.36 127.23 61.37 122.97 63.6 124.26"/>
        <polygon class="cls-1" points="26.65 102.93 26.63 107.18 13.21 99.44 13.22 95.18 26.65 102.93"/>
        <polygon class="cls-1" points="49.33 116.02 49.32 120.28 38.68 114.14 38.69 109.88 49.33 116.02"/>
        <polygon class="cls-1" points="61.37 122.97 61.36 127.23 57.19 124.82 57.2 120.57 61.37 122.97"/>
        <polygon class="cls-5" points="63.63 110.43 63.62 114.68 8.16 82.66 8.17 78.41 8.16 82.66 18.81 88.81 18.82 84.55 43.36 98.72 43.34 102.97 53.07 108.59 53.08 104.33 63.63 110.43"/>
        <polygon class="cls-1" points="53.08 104.33 53.07 108.59 43.34 102.97 43.36 98.72 53.08 104.33"/>
        <polygon class="cls-1" points="18.82 84.55 18.81 88.81 8.16 82.66 8.17 78.41 18.82 84.55"/>
        <polygon class="cls-5" points="63.67 96.59 63.66 100.85 8.19 68.83 8.21 64.57 20.71 71.79 20.7 76.04 28.1 80.32 28.12 76.06 37.84 81.67 37.82 85.93 42.45 88.6 42.47 84.35 63.67 96.59"/>
        <polygon class="cls-1" points="28.12 76.06 28.1 80.32 20.7 76.04 20.71 71.79 28.12 76.06"/>
        <polygon class="cls-1" points="42.47 84.35 42.45 88.6 37.82 85.93 37.84 81.67 42.47 84.35"/>
        <polygon class="cls-7" points="79.77 140.41 79.64 187.7 70.9 182.66 70.93 174.1 70.94 169.32 71.01 146.44 71.02 141.65 71.04 135.37 79.77 140.41"/>
        <polygon class="cls-8" points="71.09 117.82 71.07 122.61 68.49 121.12 68.51 116.33 71.09 117.82"/>
        <polygon class="cls-1" points="58.94 80 58.93 84.26 49.9 79.05 49.91 74.79 58.94 80"/>
        <polygon class="cls-8" points="71.17 89.36 71.15 94.15 68.57 92.66 68.59 87.87 71.17 89.36"/>
        <polygon class="cls-5" points="63.71 82.76 63.7 87.02 8.23 54.99 8.25 50.74 49.91 74.79 49.9 79.05 58.93 84.26 58.94 80 63.71 82.76"/>
        <polygon class="cls-7" points="79.92 87.09 79.79 134.37 71.06 129.33 71.07 122.61 71.09 117.82 71.15 94.15 71.17 89.36 71.19 82.04 79.92 87.09"/>
      </g>
      <g>
        <polygon class="cls-4" points=".48 34.84 60.44 0 123.7 36.53 63.75 71.37 .48 34.84"/>
        <g>
          <path class="cls-6" d="M115.47,38.52c1.56-.91,2.74-1.59,3.42-1.99-6.28-3.63-56.26-32.48-58.45-33.75-2.18,1.26-48.93,28.43-55.15,32.05.67.39,1.86,1.07,3.43,1.98C21.29,29.51,58.51,7.88,60.44,6.76c1.96,1.13,41.98,24.24,55.03,31.77Z"/>
          <path class="cls-3" d="M115.47,38.52c-13.04-7.53-53.07-30.64-55.03-31.77-1.94,1.13-39.15,22.75-51.72,30.06,13.04,7.53,53.07,30.64,55.03,31.77,1.94-1.13,39.15-22.76,51.72-30.06Z"/>
        </g>
      </g>
      <polygon class="cls-6" points="63.75 71.37 63.71 82.76 58.94 80 49.91 74.79 8.25 50.74 8.23 54.99 63.7 87.02 63.67 96.59 42.47 84.35 37.84 81.67 28.12 76.06 20.71 71.79 8.21 64.57 8.19 68.83 63.66 100.85 63.63 110.43 53.08 104.33 43.36 98.72 18.82 84.55 8.17 78.41 8.16 82.66 63.62 114.68 63.6 124.26 61.37 122.97 57.2 120.57 49.33 116.02 38.69 109.88 26.65 102.93 13.22 95.18 8.13 92.23 8.12 96.49 63.58 128.52 63.56 138.09 43.27 126.38 37.26 122.91 25.22 115.96 8.09 106.07 8.08 110.32 63.55 142.35 63.52 151.92 56.66 147.96 50.18 144.22 32.59 134.07 19.63 126.58 8.05 119.9 8.04 124.16 63.51 156.18 63.48 165.76 59.86 163.67 45.51 155.38 20.51 140.95 8.01 133.73 8 137.99 63.47 170.01 63.44 179.59 51.96 172.96 42.7 167.61 27.42 158.79 13.07 150.51 7.97 147.57 7.96 151.82 63.43 183.85 63.4 193.42 37.1 178.23 7.93 161.4 7.92 165.65 63.39 197.68 63.36 207.25 50.49 199.82 30.11 188.05 14.84 179.23 7.89 175.23 7.88 179.48 63.35 211.51 63.32 221.09 54.62 216.06 43.5 209.64 22.67 197.62 7.85 189.06 7.84 193.31 63.31 225.34 63.27 240.46 0 203.93 .48 34.84 63.75 71.37"/>
      <rect class="cls-6" x="57.28" y="73.01" width="6.46" height="154.12"/>
    </g>
  </g>
</svg>