<?xml version="1.0" encoding="UTF-8"?>
<svg xmlns="http://www.w3.org/2000/svg" viewBox="0 0 160 201.44">
  <defs>
    <style>
      .cls-1 {
        fill: #fbc9c2;
      }

      .cls-2 {
        fill: #fff4c1;
      }

      .cls-3 {
        fill: #87877c;
      }

      .cls-4 {
        fill: #d8d8c8;
      }

      .cls-5 {
        fill: #6dc065;
      }

      .cls-6 {
        isolation: isolate;
      }

      .cls-7 {
        fill: #fff;
      }

      .cls-8 {
        fill: #aad326;
      }

      .cls-9 {
        fill: #f58e81;
      }

      .cls-10 {
        fill: #ffec5f;
      }

      .cls-10, .cls-11, .cls-12 {
        mix-blend-mode: multiply;
      }

      .cls-11 {
        fill: #bdcec2;
      }

      .cls-13 {
        fill: #64c8d0;
      }

      .cls-14 {
        fill: #fd0;
      }

      .cls-15 {
        fill: #00aab5;
      }

      .cls-16 {
        fill: #cff;
      }

      .cls-12, .cls-17 {
        fill: #8c8c8c;
      }

      .cls-18 {
        fill: #fff197;
      }

      .cls-19 {
        fill: #b4e1e5;
      }

      .cls-20 {
        fill: #c2c2b3;
      }

      .cls-21 {
        fill: #0097a0;
      }
    </style>
  </defs>
  <g class="cls-6">
    <g id="_레이어_2" data-name="레이어 2">
      <g id="_빌딩-1" data-name="빌딩-1">
        <g>
          <path class="cls-8" d="M44.49,110.39s31.47,18.23,35.99,20.83c5.72-3.32,44.93-26.11,60.2-34.99-10.92-6.3-35.99-20.83-35.99-20.83l-60.2,34.98Z"/>
          <g>
            <g class="cls-6">
              <polygon class="cls-14" points="38.74 177.07 .13 154.63 0 45.66 38.61 68.09 38.74 177.07"/>
              <g>
                <polygon class="cls-2" points="38.61 68.09 0 45.66 79.08 0 117.69 22.44 38.61 68.09"/>
                <g>
                  <path class="cls-10" d="M108.44,24.11c1.25-.72,2.26-1.3,2.9-1.68-6.96-4.04-29.72-17.27-32.27-18.75-2.88,1.66-64.52,37.25-72.73,42,.77.45,1.78,1.03,2.9,1.68C23.92,38.88,76.43,8.57,79.08,7.04c2.26,1.32,20.44,11.88,29.36,17.07Z"/>
                  <path class="cls-11" d="M108.44,24.11c-8.92-5.19-27.1-15.75-29.36-17.07-2.65,1.53-55.16,31.85-69.83,40.31,8.92,5.19,27.1,15.75,29.37,17.07,2.64-1.53,55.16-31.85,69.83-40.32Z"/>
                  <path class="cls-15" d="M108.44,24.11c-8.92-5.19-27.1-15.75-29.36-17.07-2.65,1.53-55.16,31.85-69.83,40.31,8.92,5.19,27.1,15.75,29.37,17.07,2.64-1.53,55.16-31.85,69.83-40.32Z"/>
                </g>
              </g>
              <g class="cls-6">
                <polygon class="cls-18" points="117.69 22.44 117.83 131.55 38.74 177.2 38.61 68.09 117.69 22.44"/>
              </g>
            </g>
            <g>
              <g class="cls-6">
                <polygon class="cls-20" points="160 125.99 159.91 157.76 84.74 201.44 84.83 169.68 160 125.99"/>
                <polygon class="cls-3" points="84.83 169.68 84.74 201.44 41.21 176.31 41.3 144.55 84.83 169.68"/>
                <g>
                  <polygon class="cls-4" points="160 125.99 84.83 169.68 41.3 144.55 116.47 100.86 160 125.99"/>
                  <path class="cls-8" d="M48.83,140.18s31.47,18.22,35.99,20.83c5.72-3.32,44.93-26.11,60.2-34.99-10.92-6.31-35.99-20.83-35.99-20.83l-60.2,34.99Z"/>
                </g>
              </g>
              <g>
                <polygon class="cls-17" points="53.27 182.2 53.27 159.25 46.52 155.28 46.52 178.27 53.27 182.2"/>
                <polygon class="cls-12" points="53.27 159.25 46.52 155.28 46.52 178.27 46.7 178.38 53.27 175.94 53.27 159.25"/>
              </g>
              <g>
                <polygon class="cls-17" points="76.2 195.37 76.2 172.43 69.45 168.46 69.45 191.45 76.2 195.37"/>
                <polygon class="cls-12" points="76.2 172.43 69.45 168.46 69.45 191.45 69.63 191.56 76.2 189.12 76.2 172.43"/>
              </g>
              <g>
                <polygon class="cls-16" points="93.25 195.41 89.61 197.71 89.61 169.14 93.25 166.84 93.25 195.41"/>
                <polygon class="cls-16" points="100.02 191.51 96.38 193.81 96.38 165.24 100.02 162.95 100.02 191.51"/>
                <polygon class="cls-16" points="106.79 187.61 103.15 189.91 103.15 161.34 106.79 159.05 106.79 187.61"/>
                <polygon class="cls-16" points="113.55 183.71 109.91 186.01 109.91 157.44 113.55 155.15 113.55 183.71"/>
                <polygon class="cls-16" points="120.32 179.81 116.68 182.11 116.68 153.55 120.32 151.25 120.32 179.81"/>
                <polygon class="cls-16" points="127.09 175.91 123.45 178.21 123.45 149.64 127.09 147.35 127.09 175.91"/>
                <polygon class="cls-16" points="133.86 172.01 130.22 174.31 130.22 145.74 133.86 143.45 133.86 172.01"/>
                <polygon class="cls-16" points="140.63 168.11 136.99 170.41 136.99 141.85 140.63 139.55 140.63 168.11"/>
                <polygon class="cls-16" points="147.4 164.21 143.76 166.51 143.76 137.95 147.4 135.65 147.4 164.21"/>
                <polygon class="cls-16" points="154.17 160.31 150.53 162.61 150.53 134.05 154.17 131.75 154.17 160.31"/>
              </g>
            </g>
            <g>
              <polygon class="cls-14" points="103.17 81.53 103.17 102.61 51.23 132.72 51.23 136.5 105.57 105 105.57 80.14 103.17 81.53"/>
              <polygon class="cls-19" points="103.17 81.53 51.23 111.64 51.23 132.72 103.17 102.61 103.17 81.53"/>
            </g>
            <polygon class="cls-19" points="59.03 17.02 88.59 35.57 109.46 23.52 79.08 5.44 59.03 17.02"/>
            <polygon class="cls-13" points="59.03 17.02 59.03 18.61 86.95 36.52 88.59 35.57 59.03 17.02"/>
            <polygon class="cls-21" points="12.65 49.33 59.25 22.6 83.64 38.43 86.95 36.52 59.03 18.61 9.25 47.35 12.65 49.33"/>
            <polygon class="cls-18" points="63.71 130.2 60.27 132.06 60.27 103.45 63.71 101.59 63.71 130.2"/>
            <polygon class="cls-14" points="60.27 131.26 60.27 106.4 58.06 107.68 58.06 128.76 60.27 131.26"/>
            <polygon class="cls-18" points="75.94 123.11 72.51 124.97 72.51 96.36 75.94 94.5 75.94 123.11"/>
            <polygon class="cls-14" points="72.51 124.17 72.51 99.31 70.29 100.59 70.29 121.67 72.51 124.17"/>
            <polygon class="cls-18" points="88.17 116.02 84.74 117.88 84.74 89.27 88.17 87.41 88.17 116.02"/>
            <polygon class="cls-14" points="84.74 117.07 84.74 92.22 82.52 93.5 82.52 114.58 84.74 117.07"/>
            <polygon class="cls-18" points="100.4 108.92 96.97 110.78 96.97 82.18 100.4 80.32 100.4 108.92"/>
            <polygon class="cls-14" points="96.97 109.98 96.97 85.13 94.75 86.41 94.75 107.49 96.97 109.98"/>
            <polygon class="cls-1" points="44.56 105.97 66.91 122.88 131.54 85.42 109.19 68.52 44.56 105.97"/>
            <polygon class="cls-7" points="103.53 71.8 126.68 88.25 122.28 90.81 99.12 74.37 103.53 71.8"/>
            <polygon class="cls-7" points="91.57 78.72 114.72 95.16 110.31 97.72 87.15 81.29 91.57 78.72"/>
            <polygon class="cls-7" points="79.6 85.63 102.76 102.07 98.35 104.64 75.19 88.2 79.6 85.63"/>
            <polygon class="cls-7" points="67.64 92.54 90.79 108.99 86.38 111.55 63.22 95.11 67.64 92.54"/>
            <polygon class="cls-7" points="55.67 99.46 78.82 115.9 74.42 118.46 51.25 102.02 55.67 99.46"/>
            <polygon class="cls-9" points="66.91 122.88 131.54 85.42 131.54 89.89 66.91 127.41 66.91 122.88"/>
            <polygon class="cls-1" points="74.24 118.64 79.05 115.84 79.05 120.37 74.24 123.16 74.24 118.64"/>
            <polygon class="cls-1" points="86.29 111.72 91.11 108.93 91.11 113.45 86.29 116.25 86.29 111.72"/>
            <polygon class="cls-1" points="97.99 104.81 102.81 102.02 102.81 106.54 97.99 109.33 97.99 104.81"/>
            <polygon class="cls-1" points="110.31 97.72 114.82 95.24 114.82 99.76 110.31 102.24 110.31 97.72"/>
            <polygon class="cls-1" points="121.96 90.94 126.78 88.15 126.78 92.67 121.96 95.47 121.96 90.94"/>
            <polygon class="cls-19" points="0 66.76 12.42 75.27 12.42 161.77 .13 154.63 0 66.76"/>
            <polygon class="cls-13" points=".13 154.63 12.42 149.36 12.42 75.27 0 66.76 .13 154.63"/>
            <polygon class="cls-14" points=".03 88.03 12.42 97.25 12.42 101.86 .04 92.29 .03 88.03"/>
            <polygon class="cls-14" points=".03 111.08 12.42 120.29 12.42 124.9 .04 115.33 .03 111.08"/>
            <polygon class="cls-14" points=".03 134.12 12.42 143.34 12.42 147.95 .04 138.37 .03 134.12"/>
            <polygon class="cls-5" points="48.83 140.18 71.06 153.04 116.64 126.85 109.03 105.19 48.83 140.18"/>
          </g>
        </g>
      </g>
    </g>
  </g>
</svg>