<?xml version="1.0" encoding="UTF-8"?>
<svg id="_레이어_2" data-name="레이어 2" xmlns="http://www.w3.org/2000/svg" viewBox="0 0 147.6 253.26">
  <defs>
    <style>
      .cls-1 {
        fill: #f9f2f0;
      }

      .cls-2 {
        fill: #e8e7dd;
      }

      .cls-3 {
        fill: #ff5f3d;
      }

      .cls-4 {
        isolation: isolate;
      }

      .cls-5 {
        fill: #ceaea5;
      }

      .cls-6 {
        fill: #ff9c8f;
      }

      .cls-7 {
        fill: #7895a3;
      }

      .cls-8 {
        fill: #e7d5d0;
      }
    </style>
  </defs>
  <g id="_빌딩-5" data-name="빌딩-5">
    <g class="cls-4">
      <polygon class="cls-5" points="130.35 206.11 81.97 178 81.94 169.29 130.33 197.41 130.35 206.11"/>
      <polygon class="cls-2" points="136.61 193.79 88.22 165.67 88.15 141.89 136.54 170.01 136.61 193.79"/>
      <polygon class="cls-5" points="114.64 215.19 66.26 187.07 66.23 178.36 114.62 206.48 114.64 215.19"/>
      <polygon class="cls-7" points="130.33 197.41 81.94 169.29 81.88 145.51 130.26 173.63 130.33 197.41"/>
      <polygon class="cls-7" points="130.26 173.63 81.88 145.51 88.15 141.89 136.54 170.01 130.26 173.63"/>
      <polygon class="cls-2" points="120.91 202.86 72.52 174.73 72.45 150.95 120.84 179.07 120.91 202.86"/>
      <polygon class="cls-5" points="98.94 224.25 50.56 196.13 50.53 187.43 98.92 215.55 98.94 224.25"/>
      <polygon class="cls-5" points="130.22 159.19 81.84 131.08 88.11 127.45 136.5 155.57 130.22 159.19"/>
      <polygon class="cls-7" points="114.62 206.48 66.23 178.36 66.17 154.58 114.55 182.7 114.62 206.48"/>
      <polygon class="cls-7" points="114.55 182.7 66.17 154.58 72.45 150.95 120.84 179.07 114.55 182.7"/>
      <polygon class="cls-2" points="105.2 211.92 56.82 183.8 56.75 160.02 105.14 188.14 105.2 211.92"/>
      <polygon class="cls-5" points="83.24 233.32 34.86 205.2 34.83 196.49 83.22 224.61 83.24 233.32"/>
      <polygon class="cls-5" points="114.51 168.26 66.13 140.14 72.41 136.52 120.8 164.63 114.51 168.26"/>
      <polygon class="cls-7" points="98.92 215.55 50.53 187.43 50.47 163.65 98.85 191.76 98.92 215.55"/>
      <polygon class="cls-7" points="98.85 191.76 50.47 163.65 56.75 160.02 105.14 188.14 98.85 191.76"/>
      <polygon class="cls-8" points="136.5 155.57 88.11 127.45 88.02 94.97 136.41 123.09 136.5 155.57"/>
      <polygon class="cls-2" points="89.49 220.99 41.11 192.87 41.04 169.09 89.43 197.2 89.49 220.99"/>
      <polygon class="cls-7" points="130.22 159.19 81.84 131.08 81.74 98.6 130.13 126.72 130.22 159.19"/>
      <polygon class="cls-7" points="130.13 126.72 81.74 98.6 88.02 94.97 136.41 123.09 130.13 126.72"/>
      <polygon class="cls-7" points="134.34 121.6 134.43 154.08 128.15 157.7 128.06 125.22 134.34 121.6"/>
      <polygon class="cls-5" points="67.54 242.38 19.15 214.26 19.13 205.56 67.52 233.68 67.54 242.38"/>
      <polygon class="cls-5" points="98.81 177.33 50.42 149.21 56.71 145.58 105.1 173.7 98.81 177.33"/>
      <polygon class="cls-7" points="83.15 200.83 34.77 172.71 41.04 169.09 89.43 197.2 83.15 200.83"/>
      <polygon class="cls-7" points="83.22 224.61 34.83 196.49 34.77 172.71 83.15 200.83 83.22 224.61"/>
      <polygon class="cls-8" points="120.8 164.63 72.41 136.52 72.32 104.04 120.7 132.16 120.8 164.63"/>
      <polygon class="cls-5" points="130.09 112.29 81.7 84.17 87.98 80.55 136.37 108.67 130.09 112.29"/>
      <polygon class="cls-2" points="73.79 230.05 25.41 201.94 25.34 178.15 73.73 206.27 73.79 230.05"/>
      <polygon class="cls-7" points="118.64 131.12 118.73 163.6 112.45 167.22 112.35 134.75 118.64 131.12"/>
      <polygon class="cls-7" points="114.51 168.26 66.13 140.14 66.03 107.67 114.42 135.79 114.51 168.26"/>
      <polygon class="cls-7" points="114.42 135.79 66.03 107.67 72.32 104.04 120.7 132.16 114.42 135.79"/>
      <polygon class="cls-5" points="83.11 186.39 34.72 158.27 41 154.65 89.39 182.77 83.11 186.39"/>
      <polygon class="cls-7" points="67.52 233.68 19.13 205.56 19.07 181.78 67.45 209.89 67.52 233.68"/>
      <polygon class="cls-2" points="62.8 236.4 14.42 208.28 14.36 189.92 62.75 218.04 62.8 236.4"/>
      <polygon class="cls-7" points="67.45 209.89 19.07 181.78 25.34 178.15 73.73 206.27 67.45 209.89"/>
      <polygon class="cls-8" points="105.1 173.7 56.71 145.58 56.62 113.1 105 141.22 105.1 173.7"/>
      <polygon class="cls-5" points="114.38 121.36 65.99 93.24 72.28 89.61 120.66 117.73 114.38 121.36"/>
      <polygon class="cls-2" points="55.69 222.12 7.3 194 14.36 189.92 62.75 218.04 55.69 222.12"/>
      <polygon class="cls-7" points="102.61 139.64 102.71 172.11 96.42 175.74 96.33 143.26 102.61 139.64"/>
      <polygon class="cls-7" points="98.72 144.85 50.33 116.73 56.62 113.1 105 141.22 98.72 144.85"/>
      <polygon class="cls-7" points="98.81 177.33 50.42 149.21 50.33 116.73 98.72 144.85 98.81 177.33"/>
      <polygon class="cls-5" points="67.41 195.46 19.03 167.34 25.3 163.71 73.69 191.83 67.41 195.46"/>
      <polygon class="cls-8" points="136.37 108.67 87.98 80.55 87.89 48.08 136.27 76.19 136.37 108.67"/>
      <polygon class="cls-1" points="48.7 253.26 .32 225.14 .24 198.07 48.63 226.19 48.7 253.26"/>
      <polygon class="cls-2" points="62.75 218.04 62.8 236.4 62.83 245.1 48.7 253.26 48.63 226.19 55.69 222.12 62.75 218.04"/>
      <polygon class="cls-5" points="48.63 226.19 .24 198.07 7.3 194 55.69 222.12 48.63 226.19"/>
      <polygon class="cls-8" points="89.39 182.77 41 154.65 40.91 122.17 89.29 150.29 89.39 182.77"/>
      <polygon class="cls-7" points="134.2 75.15 134.3 107.63 128.02 111.25 127.93 78.78 134.2 75.15"/>
      <polygon class="cls-7" points="130.09 112.29 81.7 84.17 81.61 51.7 130 79.82 130.09 112.29"/>
      <polygon class="cls-7" points="130 79.82 81.61 51.7 87.89 48.08 136.27 76.19 130 79.82"/>
      <polygon class="cls-8" points="55.69 222.12 7.3 194 7.25 178.66 55.64 206.78 55.69 222.12"/>
      <polygon class="cls-2" points="55.64 206.78 7.25 178.66 14.32 174.59 62.7 202.7 55.64 206.78"/>
      <polygon class="cls-5" points="98.68 130.43 50.29 102.31 56.58 98.68 104.96 126.8 98.68 130.43"/>
      <polygon class="cls-7" points="83.11 186.39 34.72 158.27 34.63 125.8 83.02 153.92 83.11 186.39"/>
      <polygon class="cls-7" points="87.02 148.91 87.11 181.39 80.83 185.01 80.74 152.53 87.02 148.91"/>
      <polygon class="cls-7" points="83.02 153.92 34.63 125.8 40.91 122.17 89.29 150.29 83.02 153.92"/>
      <polygon class="cls-8" points="120.66 117.73 72.28 89.61 72.19 57.14 120.57 85.26 120.66 117.73"/>
      <polygon class="cls-8" points="73.69 191.83 25.3 163.71 25.21 131.24 73.59 159.36 73.69 191.83"/>
      <polygon class="cls-7" points="118.51 83.88 118.6 116.35 112.31 119.98 112.22 87.51 118.51 83.88"/>
      <polygon class="cls-7" points="114.29 88.89 65.9 60.77 72.19 57.14 120.57 85.26 114.29 88.89"/>
      <polygon class="cls-7" points="114.38 121.36 65.99 93.24 65.9 60.77 114.29 88.89 114.38 121.36"/>
      <polygon class="cls-7" points="67.41 195.46 19.03 167.34 18.93 134.86 67.32 162.98 67.41 195.46"/>
      <polygon class="cls-2" points="62.7 202.7 14.32 174.59 14.24 147.52 62.63 175.64 62.7 202.7"/>
      <polygon class="cls-5" points="82.98 139.49 34.59 111.37 40.87 107.75 89.25 135.87 82.98 139.49"/>
      <polygon class="cls-7" points="71.88 157.64 71.97 190.12 65.69 193.74 65.6 161.27 71.88 157.64"/>
      <polygon class="cls-7" points="67.32 162.98 18.93 134.86 25.21 131.24 73.59 159.36 67.32 162.98"/>
      <polygon class="cls-2" points="55.56 179.72 7.18 151.6 14.24 147.52 62.63 175.64 55.56 179.72"/>
      <polygon class="cls-8" points="104.96 126.8 56.58 98.68 56.49 66.2 104.87 94.32 104.96 126.8"/>
      <polygon class="cls-7" points="102.48 92.85 102.57 125.32 96.29 128.95 96.2 96.48 102.48 92.85"/>
      <polygon class="cls-7" points="98.68 130.43 50.29 102.31 50.2 69.83 98.58 97.95 98.68 130.43"/>
      <polygon class="cls-7" points="98.58 97.95 50.2 69.83 56.49 66.2 104.87 94.32 98.58 97.95"/>
      <polygon class="cls-2" points="62.63 175.64 62.7 202.7 55.64 206.78 48.58 210.86 48.51 183.79 55.56 179.72 62.63 175.64"/>
      <polygon class="cls-1" points="48.58 210.86 .2 182.74 .12 155.67 48.51 183.79 48.58 210.86"/>
      <polygon class="cls-5" points="48.51 183.79 .12 155.67 7.18 151.6 55.56 179.72 48.51 183.79"/>
      <polygon class="cls-5" points="67.28 148.56 18.89 120.44 25.17 116.81 73.55 144.93 67.28 148.56"/>
      <polygon class="cls-8" points="55.56 179.72 7.18 151.6 7.13 136.27 55.52 164.38 55.56 179.72"/>
      <polygon class="cls-2" points="55.52 164.38 7.13 136.27 14.2 132.19 62.59 160.31 55.52 164.38"/>
      <polygon class="cls-8" points="89.25 135.87 40.87 107.75 40.78 75.27 89.16 103.39 89.25 135.87"/>
      <polygon class="cls-7" points="87.79 102.41 87.88 134.89 81.6 138.51 81.51 106.04 87.79 102.41"/>
      <polygon class="cls-7" points="82.88 107.01 34.5 78.9 40.78 75.27 89.16 103.39 82.88 107.01"/>
      <polygon class="cls-7" points="82.98 139.49 34.59 111.37 34.5 78.9 82.88 107.01 82.98 139.49"/>
      <polygon class="cls-8" points="73.55 144.93 25.17 116.81 25.08 84.34 73.46 112.46 73.55 144.93"/>
      <polygon class="cls-7" points="67.28 148.56 18.89 120.44 18.8 87.96 67.18 116.08 67.28 148.56"/>
      <polygon class="cls-2" points="62.59 160.31 14.2 132.19 14.12 105.12 62.51 133.24 62.59 160.31"/>
      <polygon class="cls-2" points="55.44 137.32 7.06 109.2 14.12 105.12 62.51 133.24 55.44 137.32"/>
      <polygon class="cls-7" points="71.74 111.43 71.84 143.9 65.56 147.53 65.47 115.05 71.74 111.43"/>
      <polygon class="cls-7" points="67.18 116.08 18.8 87.96 25.08 84.34 73.46 112.46 67.18 116.08"/>
      <polygon class="cls-1" points="48.46 168.46 .08 140.34 0 113.27 48.39 141.39 48.46 168.46"/>
      <polygon class="cls-2" points="62.51 133.24 62.59 160.31 55.52 164.38 48.46 168.46 48.39 141.39 55.44 137.32 62.51 133.24"/>
      <polygon class="cls-5" points="48.39 141.39 0 113.27 7.06 109.2 55.44 137.32 48.39 141.39"/>
      <polygon class="cls-2" points="55.37 112.96 6.99 84.84 98.85 31.81 147.24 59.92 55.37 112.96"/>
      <polygon class="cls-1" points="55.44 137.32 7.06 109.2 6.99 84.84 55.37 112.96 55.44 137.32"/>
      <path class="cls-2" d="M147.6,187.44l-.36-127.52-91.86,53.04.07,24.36,7.07-4.08.08,27.07-7.07,4.08.04,15.33,7.07-4.08.08,27.06-7.06,4.08.04,15.33,7.06-4.08.05,18.36,4.72-2.72.02,8.7,6.28-3.62-.03-8.7,9.43-5.44.02,8.7,6.28-3.62-.02-8.7,9.42-5.44.03,8.7,6.28-3.63-.02-8.7,9.41-5.44.02,8.7,6.29-3.63-.02-8.7,9.42-5.44.02,8.7,6.28-3.62-.02-8.7,10.99-6.34ZM67.18,116.08l6.28-3.63.09,32.47-6.28,3.63-.09-32.47ZM67.32,162.98l6.28-3.62.09,32.48-6.28,3.63-.09-32.48ZM82.88,107.01l6.28-3.62.09,32.48-6.28,3.62-.09-32.48ZM83.02,153.92l6.27-3.63.09,32.48-6.28,3.62-.09-32.47ZM98.58,97.95l6.29-3.63.09,32.48-6.28,3.63-.09-32.48ZM98.72,144.85l6.28-3.63.09,32.47-6.28,3.63-.09-32.48ZM114.29,88.89l6.28-3.63.09,32.48-6.28,3.63-.09-32.48ZM114.42,135.79l6.29-3.63.09,32.48-6.28,3.63-.09-32.47ZM130,79.82l6.27-3.62.09,32.48-6.28,3.62-.09-32.48ZM130.13,126.72l6.28-3.62.09,32.48-6.28,3.62-.09-32.48Z"/>
      <path class="cls-3" d="M101.94,34.11c38.08-21.99,44.93,23.42,45.3,25.81l-91.86,53.04c.42-2.84,8.49-56.87,46.57-78.85Z"/>
      <path class="cls-6" d="M82.8,2.75c-6.72-3.9-16.13-4.33-29.24,3.25C15.48,27.97,7.41,82,6.99,84.84l48.38,28.12c.42-2.84,8.49-56.87,46.57-78.85,13.11-7.57,22.52-7.15,29.24-3.25-16.13-9.37-32.26-18.75-48.39-28.12Z"/>
    </g>
  </g>
</svg>