<?xml version="1.0" encoding="UTF-8"?>
<svg id="_레이어_2" data-name="레이어 2" xmlns="http://www.w3.org/2000/svg" viewBox="0 0 192.27 376.23">
  <defs>
    <style>
      .cls-1 {
        fill: #f9f2f0;
      }

      .cls-2 {
        fill: #e8e7dd;
      }

      .cls-3 {
        fill: #d1d3d4;
      }

      .cls-4 {
        fill: #ff5f3d;
      }

      .cls-5 {
        fill: #f9efec;
      }

      .cls-6 {
        isolation: isolate;
      }

      .cls-7 {
        fill: #ceaea5;
      }

      .cls-8 {
        fill: #ff9c8f;
      }

      .cls-9 {
        fill: #7895a3;
      }

      .cls-10 {
        fill: #3f7ba3;
      }

      .cls-11 {
        fill: #e7d5d0;
      }

      .cls-12 {
        fill: #efddd7;
      }

      .cls-13 {
        fill: #d9b5ac;
      }

      .cls-14 {
        fill: #a7a9ac;
      }
    </style>
  </defs>
  <g id="_빌딩-6" data-name="빌딩-6">
    <g>
      <g class="cls-6">
        <polygon class="cls-3" points="167 257.07 118.61 228.95 143.73 214.44 192.12 242.56 167 257.07"/>
        <polygon class="cls-14" points="166.97 248.05 118.58 219.93 143.71 205.42 192.09 233.54 166.97 248.05"/>
        <polygon class="cls-14" points="167 257.07 118.61 228.95 118.58 219.93 166.97 248.05 167 257.07"/>
        <polygon class="cls-13" points="192.09 233.54 192.12 242.56 167 257.07 166.97 248.05 192.09 233.54"/>
        <polygon class="cls-3" points="166.9 225.49 118.52 197.38 143.64 182.87 192.03 210.99 166.9 225.49"/>
        <polygon class="cls-13" points="192 201.97 192.03 210.99 166.9 225.49 166.88 216.47 192 201.97"/>
        <polygon class="cls-14" points="166.88 216.47 118.49 188.35 143.62 173.85 192 201.97 166.88 216.47"/>
        <polygon class="cls-14" points="166.9 225.49 118.52 197.38 118.49 188.35 166.88 216.47 166.9 225.49"/>
        <polygon class="cls-3" points="166.81 193.92 118.43 165.81 143.55 151.3 191.94 179.42 166.81 193.92"/>
        <polygon class="cls-13" points="191.91 170.39 191.94 179.42 166.81 193.92 166.79 184.9 191.91 170.39"/>
        <polygon class="cls-14" points="166.81 193.92 118.43 165.81 118.4 156.78 166.79 184.9 166.81 193.92"/>
        <polygon class="cls-14" points="166.79 184.9 118.4 156.78 143.53 142.27 191.91 170.39 166.79 184.9"/>
        <polygon class="cls-3" points="166.73 162.36 118.34 134.24 143.46 119.73 191.85 147.85 166.73 162.36"/>
        <polygon class="cls-14" points="166.7 153.33 118.31 125.21 143.44 110.71 191.83 138.83 166.7 153.33"/>
        <polygon class="cls-14" points="166.73 162.36 118.34 134.24 118.31 125.21 166.7 153.33 166.73 162.36"/>
        <polygon class="cls-13" points="191.83 138.83 191.85 147.85 166.73 162.36 166.7 153.33 191.83 138.83"/>
        <polygon class="cls-3" points="165.36 72.39 116.97 44.27 121.85 41.45 170.24 69.57 165.36 72.39"/>
        <polygon class="cls-10" points="165.34 68.14 116.96 40.02 120.88 37.76 169.26 65.87 165.34 68.14"/>
        <path class="cls-3" d="M121.85,41.45c2.45-1.42,4.27-3.51,5.46-6.29,16.13,9.37,32.26,18.74,48.39,28.12-1.19,2.78-3.01,4.87-5.46,6.29-14.52-8.44-33.87-19.68-48.39-28.12Z"/>
        <path class="cls-3" d="M127.31,35.16c.8-1.91,1.21-3.73,1.22-5.5,16.13,9.37,32.26,18.75,48.38,28.12-.01,1.76-.42,3.59-1.22,5.5-16.13-9.37-32.26-18.75-48.39-28.12Z"/>
        <polygon class="cls-3" points="160.96 83.89 112.58 55.77 116.99 53.21 165.38 81.33 160.96 83.89"/>
        <path class="cls-10" d="M169.26,65.87l-48.39-28.12c1.39-.8,2.35-1.87,2.86-3.2l48.39,28.12c-.51,1.33-1.47,2.39-2.86,3.19Z"/>
        <polygon class="cls-3" points="165.38 81.33 116.99 53.21 116.97 44.27 165.36 72.39 165.38 81.33"/>
        <path class="cls-3" d="M128.54,29.66c0-2.47-.59-4.09-1.75-4.84,16.13,9.37,32.26,18.75,48.39,28.12,1.16.75,1.74,2.37,1.75,4.84-16.13-9.37-32.26-18.74-48.38-28.12Z"/>
        <path class="cls-3" d="M126.78,24.82s-.07-.04-.1-.06l48.39,28.12s.07.04.1.06c-8.07-4.68-16.13-9.37-24.19-14.06-.95-.56-2.22-1.29-3.17-1.85-3.13-1.81-6.25-3.63-9.38-5.45-.91-.53-2.12-1.23-3.03-1.76-1.75-1.02-4.09-2.38-5.84-3.39-.83-.48-1.95-1.11-2.77-1.61Z"/>
        <path class="cls-10" d="M123.42,29.95c16.13,9.37,32.26,18.75,48.39,28.12.48.28.72.95.72,2.01,0,1-.14,1.87-.41,2.6l-48.39-28.12c.27-.73.41-1.6.4-2.59,0-1.06-.24-1.73-.72-2.01Z"/>
        <path class="cls-3" d="M123.42,29.95c16.13,9.37,32.26,18.75,48.39,28.12-.07-.04-.15-.07-.23-.1l-48.38-28.12c.08.02.15.05.23.1Z"/>
        <polygon class="cls-3" points="165.32 60.76 116.94 32.65 120.3 30.7 168.69 58.82 165.32 60.76"/>
        <polygon class="cls-3" points="165.34 68.14 116.96 40.02 116.94 32.65 165.32 60.76 165.34 68.14"/>
        <polygon class="cls-10" points="160.89 59.02 112.51 30.9 121.97 25.44 170.36 53.56 160.89 59.02"/>
        <path class="cls-3" d="M168.69,58.82l-48.39-28.12c1.33-.76,2.29-1.05,2.9-.84l48.38,28.12c-.61-.21-1.57.08-2.89.84Z"/>
        <path class="cls-10" d="M126.68,24.76c16.13,9.37,32.26,18.74,48.39,28.12-1.17-.68-2.74-.46-4.71.68l-48.39-28.12c1.97-1.14,3.54-1.36,4.71-.68Z"/>
        <path class="cls-10" d="M175.17,52.94c1.16.75,1.74,2.37,1.75,4.84-.01,1.76-.42,3.59-1.22,5.5-1.19,2.78-3.01,4.87-5.46,6.29l-4.88,2.82.02,8.95-4.42,2.55-.07-24.86,9.47-5.47c2.02-1.17,3.63-1.37,4.81-.62ZM172.12,62.68c.27-.73.41-1.6.41-2.6,0-1.22-.32-1.92-.95-2.11-.61-.21-1.57.08-2.89.84l-3.37,1.94.02,7.38,3.92-2.26c1.39-.8,2.35-1.87,2.86-3.19"/>
        <path class="cls-12" d="M172.12,62.68c-.51,1.33-1.47,2.39-2.86,3.19l-3.92,2.26-.02-7.38,3.37-1.94c1.32-.76,2.29-1.05,2.89-.84.62.18.94.89.95,2.11,0,1-.14,1.87-.41,2.6Z"/>
        <polygon class="cls-10" points="160.96 83.89 112.58 55.77 112.51 30.9 160.89 59.02 160.96 83.89"/>
        <polygon class="cls-5" points="147.54 53.51 99.15 25.39 143.13 0 191.51 28.12 147.54 53.51"/>
        <polygon class="cls-13" points="148.29 319.38 99.9 291.26 99.15 25.39 147.54 53.51 148.29 319.38"/>
        <path class="cls-12" d="M191.83,138.83l-25.12,14.5.02,9.03,25.12-14.51.06,22.54-25.12,14.51.02,9.02,25.12-14.5.06,22.55-25.12,14.5.02,9.02,25.12-14.5.06,22.55-25.12,14.5.03,9.02,25.12-14.51.15,51.43-43.97,25.39-.75-265.88,43.97-25.39.31,110.71Z"/>
      </g>
      <g class="cls-6">
        <polygon class="cls-7" points="130.35 329.09 81.97 300.97 81.94 292.27 130.33 320.39 130.35 329.09"/>
        <polygon class="cls-2" points="136.61 316.76 88.22 288.65 88.15 264.86 136.54 292.98 136.61 316.76"/>
        <polygon class="cls-7" points="114.64 338.16 66.26 310.04 66.23 301.34 114.62 329.46 114.64 338.16"/>
        <polygon class="cls-9" points="130.33 320.39 81.94 292.27 81.88 268.49 130.26 296.61 130.33 320.39"/>
        <polygon class="cls-9" points="130.26 296.61 81.88 268.49 88.15 264.86 136.54 292.98 130.26 296.61"/>
        <polygon class="cls-2" points="120.91 325.83 72.52 297.71 72.45 273.93 120.84 302.05 120.91 325.83"/>
        <polygon class="cls-7" points="98.94 347.23 50.56 319.11 50.53 310.4 98.92 338.52 98.94 347.23"/>
        <polygon class="cls-7" points="130.22 282.17 81.84 254.05 88.11 250.43 136.5 278.55 130.22 282.17"/>
        <polygon class="cls-9" points="114.62 329.46 66.23 301.34 66.17 277.56 114.55 305.68 114.62 329.46"/>
        <polygon class="cls-9" points="114.55 305.68 66.17 277.56 72.45 273.93 120.84 302.05 114.55 305.68"/>
        <polygon class="cls-2" points="105.2 334.9 56.82 306.77 56.75 282.99 105.14 311.11 105.2 334.9"/>
        <polygon class="cls-7" points="83.24 356.29 34.86 328.17 34.83 319.47 83.22 347.59 83.24 356.29"/>
        <polygon class="cls-7" points="114.51 291.24 66.13 263.12 72.41 259.49 120.8 287.61 114.51 291.24"/>
        <polygon class="cls-9" points="98.92 338.52 50.53 310.4 50.47 286.62 98.85 314.74 98.92 338.52"/>
        <polygon class="cls-9" points="98.85 314.74 50.47 286.62 56.75 282.99 105.14 311.11 98.85 314.74"/>
        <polygon class="cls-11" points="136.5 278.55 88.11 250.43 88.02 217.95 136.41 246.07 136.5 278.55"/>
        <polygon class="cls-2" points="89.49 343.96 41.11 315.85 41.04 292.06 89.43 320.18 89.49 343.96"/>
        <polygon class="cls-9" points="130.22 282.17 81.84 254.05 81.74 221.58 130.13 249.69 130.22 282.17"/>
        <polygon class="cls-9" points="130.13 249.69 81.74 221.58 88.02 217.95 136.41 246.07 130.13 249.69"/>
        <polygon class="cls-9" points="134.34 244.57 134.43 277.05 128.15 280.67 128.06 248.2 134.34 244.57"/>
        <polygon class="cls-7" points="67.54 365.36 19.15 337.24 19.13 328.53 67.52 356.65 67.54 365.36"/>
        <polygon class="cls-7" points="98.81 300.3 50.42 272.19 56.71 268.56 105.1 296.67 98.81 300.3"/>
        <polygon class="cls-9" points="83.15 323.81 34.77 295.69 41.04 292.06 89.43 320.18 83.15 323.81"/>
        <polygon class="cls-9" points="83.22 347.59 34.83 319.47 34.77 295.69 83.15 323.81 83.22 347.59"/>
        <polygon class="cls-11" points="120.8 287.61 72.41 259.49 72.32 227.02 120.7 255.13 120.8 287.61"/>
        <polygon class="cls-7" points="130.09 235.27 81.7 207.15 87.98 203.53 136.37 231.65 130.09 235.27"/>
        <polygon class="cls-2" points="73.79 353.03 25.41 324.91 25.34 301.13 73.73 329.25 73.79 353.03"/>
        <polygon class="cls-9" points="118.64 254.1 118.73 286.57 112.45 290.2 112.35 257.73 118.64 254.1"/>
        <polygon class="cls-9" points="114.51 291.24 66.13 263.12 66.03 230.65 114.42 258.76 114.51 291.24"/>
        <polygon class="cls-9" points="114.42 258.76 66.03 230.65 72.32 227.02 120.7 255.13 114.42 258.76"/>
        <polygon class="cls-7" points="83.11 309.37 34.72 281.25 41 277.63 89.39 305.75 83.11 309.37"/>
        <polygon class="cls-9" points="67.52 356.65 19.13 328.53 19.07 304.75 67.45 332.87 67.52 356.65"/>
        <polygon class="cls-2" points="62.8 359.37 14.42 331.26 14.36 312.89 62.75 341.01 62.8 359.37"/>
        <polygon class="cls-9" points="67.45 332.87 19.07 304.75 25.34 301.13 73.73 329.25 67.45 332.87"/>
        <polygon class="cls-11" points="105.1 296.67 56.71 268.56 56.62 236.08 105 264.2 105.1 296.67"/>
        <polygon class="cls-7" points="114.38 244.34 65.99 216.22 72.28 212.59 120.66 240.71 114.38 244.34"/>
        <polygon class="cls-2" points="55.69 345.09 7.3 316.97 14.36 312.89 62.75 341.01 55.69 345.09"/>
        <polygon class="cls-9" points="102.61 262.61 102.71 295.09 96.42 298.72 96.33 266.24 102.61 262.61"/>
        <polygon class="cls-9" points="98.72 267.83 50.33 239.71 56.62 236.08 105 264.2 98.72 267.83"/>
        <polygon class="cls-9" points="98.81 300.3 50.42 272.19 50.33 239.71 98.72 267.83 98.81 300.3"/>
        <polygon class="cls-7" points="67.41 318.43 19.03 290.31 25.3 286.69 73.69 314.81 67.41 318.43"/>
        <polygon class="cls-11" points="136.37 231.65 87.98 203.53 87.89 171.05 136.27 199.17 136.37 231.65"/>
        <polygon class="cls-1" points="48.7 376.23 .32 348.11 .24 321.05 48.63 349.17 48.7 376.23"/>
        <polygon class="cls-2" points="62.75 341.01 62.8 359.37 62.83 368.08 48.7 376.23 48.63 349.17 55.69 345.09 62.75 341.01"/>
        <polygon class="cls-7" points="48.63 349.17 .24 321.05 7.3 316.97 55.69 345.09 48.63 349.17"/>
        <polygon class="cls-11" points="89.39 305.75 41 277.63 40.91 245.15 89.29 273.27 89.39 305.75"/>
        <polygon class="cls-9" points="134.2 198.13 134.3 230.61 128.02 234.23 127.93 201.75 134.2 198.13"/>
        <polygon class="cls-9" points="130.09 235.27 81.7 207.15 81.61 174.67 130 202.79 130.09 235.27"/>
        <polygon class="cls-9" points="130 202.79 81.61 174.67 87.89 171.05 136.27 199.17 130 202.79"/>
        <polygon class="cls-11" points="55.69 345.09 7.3 316.97 7.25 301.64 55.64 329.76 55.69 345.09"/>
        <polygon class="cls-2" points="55.64 329.76 7.25 301.64 14.32 297.56 62.7 325.68 55.64 329.76"/>
        <polygon class="cls-7" points="98.68 253.4 50.29 225.28 56.58 221.65 104.96 249.77 98.68 253.4"/>
        <polygon class="cls-9" points="83.11 309.37 34.72 281.25 34.63 248.77 83.02 276.89 83.11 309.37"/>
        <polygon class="cls-9" points="87.02 271.89 87.11 304.36 80.83 307.99 80.74 275.51 87.02 271.89"/>
        <polygon class="cls-9" points="83.02 276.89 34.63 248.77 40.91 245.15 89.29 273.27 83.02 276.89"/>
        <polygon class="cls-11" points="120.66 240.71 72.28 212.59 72.19 180.11 120.57 208.23 120.66 240.71"/>
        <polygon class="cls-11" points="73.69 314.81 25.3 286.69 25.21 254.22 73.59 282.33 73.69 314.81"/>
        <polygon class="cls-9" points="118.51 206.85 118.6 239.33 112.31 242.96 112.22 210.48 118.51 206.85"/>
        <polygon class="cls-9" points="114.29 211.86 65.9 183.74 72.19 180.11 120.57 208.23 114.29 211.86"/>
        <polygon class="cls-9" points="114.38 244.34 65.99 216.22 65.9 183.74 114.29 211.86 114.38 244.34"/>
        <polygon class="cls-9" points="67.41 318.43 19.03 290.31 18.93 257.84 67.32 285.96 67.41 318.43"/>
        <polygon class="cls-2" points="62.7 325.68 14.32 297.56 14.24 270.49 62.63 298.61 62.7 325.68"/>
        <polygon class="cls-7" points="82.98 262.47 34.59 234.35 40.87 230.73 89.25 258.84 82.98 262.47"/>
        <polygon class="cls-9" points="71.88 280.62 71.97 313.09 65.69 316.72 65.6 284.24 71.88 280.62"/>
        <polygon class="cls-9" points="67.32 285.96 18.93 257.84 25.21 254.22 73.59 282.33 67.32 285.96"/>
        <polygon class="cls-2" points="55.56 302.69 7.18 274.57 14.24 270.49 62.63 298.61 55.56 302.69"/>
        <polygon class="cls-11" points="104.96 249.77 56.58 221.65 56.49 189.18 104.87 217.3 104.96 249.77"/>
        <polygon class="cls-9" points="102.48 215.83 102.57 248.3 96.29 251.93 96.2 219.45 102.48 215.83"/>
        <polygon class="cls-9" points="98.68 253.4 50.29 225.28 50.2 192.81 98.58 220.93 98.68 253.4"/>
        <polygon class="cls-9" points="98.58 220.93 50.2 192.81 56.49 189.18 104.87 217.3 98.58 220.93"/>
        <polygon class="cls-2" points="62.63 298.61 62.7 325.68 55.64 329.76 48.58 333.83 48.51 306.77 55.56 302.69 62.63 298.61"/>
        <polygon class="cls-1" points="48.58 333.83 .2 305.72 .12 278.65 48.51 306.77 48.58 333.83"/>
        <polygon class="cls-7" points="48.51 306.77 .12 278.65 7.18 274.57 55.56 302.69 48.51 306.77"/>
        <polygon class="cls-7" points="67.28 271.53 18.89 243.41 25.17 239.79 73.55 267.91 67.28 271.53"/>
        <polygon class="cls-11" points="55.56 302.69 7.18 274.57 7.13 259.24 55.52 287.36 55.56 302.69"/>
        <polygon class="cls-2" points="55.52 287.36 7.13 259.24 14.2 255.16 62.59 283.28 55.52 287.36"/>
        <polygon class="cls-11" points="89.25 258.84 40.87 230.73 40.78 198.25 89.16 226.37 89.25 258.84"/>
        <polygon class="cls-9" points="87.79 225.39 87.88 257.87 81.6 261.49 81.51 229.01 87.79 225.39"/>
        <polygon class="cls-9" points="82.88 229.99 34.5 201.87 40.78 198.25 89.16 226.37 82.88 229.99"/>
        <polygon class="cls-9" points="82.98 262.47 34.59 234.35 34.5 201.87 82.88 229.99 82.98 262.47"/>
        <polygon class="cls-11" points="73.55 267.91 25.17 239.79 25.08 207.31 73.46 235.43 73.55 267.91"/>
        <polygon class="cls-9" points="67.28 271.53 18.89 243.41 18.8 210.94 67.18 239.06 67.28 271.53"/>
        <polygon class="cls-2" points="62.59 283.28 14.2 255.16 14.12 228.1 62.51 256.22 62.59 283.28"/>
        <polygon class="cls-2" points="55.44 260.3 7.06 232.18 14.12 228.1 62.51 256.22 55.44 260.3"/>
        <polygon class="cls-9" points="71.74 234.4 71.84 266.88 65.56 270.5 65.47 238.03 71.74 234.4"/>
        <polygon class="cls-9" points="67.18 239.06 18.8 210.94 25.08 207.31 73.46 235.43 67.18 239.06"/>
        <polygon class="cls-1" points="48.46 291.44 .08 263.32 0 236.25 48.39 264.37 48.46 291.44"/>
        <polygon class="cls-2" points="62.51 256.22 62.59 283.28 55.52 287.36 48.46 291.44 48.39 264.37 55.44 260.3 62.51 256.22"/>
        <polygon class="cls-7" points="48.39 264.37 0 236.25 7.06 232.18 55.44 260.3 48.39 264.37"/>
        <polygon class="cls-2" points="55.37 235.94 6.99 207.82 98.85 154.78 147.24 182.9 55.37 235.94"/>
        <polygon class="cls-1" points="55.44 260.3 7.06 232.18 6.99 207.82 55.37 235.94 55.44 260.3"/>
        <path class="cls-2" d="M147.6,310.42l-.36-127.52-91.86,53.04.07,24.36,7.07-4.08.08,27.07-7.07,4.08.04,15.33,7.07-4.08.08,27.06-7.06,4.08.04,15.33,7.06-4.08.05,18.36,4.72-2.72.02,8.7,6.28-3.62-.03-8.7,9.43-5.44.02,8.7,6.28-3.62-.02-8.7,9.42-5.44.03,8.7,6.28-3.63-.02-8.7,9.41-5.44.02,8.7,6.29-3.63-.02-8.7,9.42-5.44.02,8.7,6.28-3.62-.02-8.7,10.99-6.34ZM67.18,239.06l6.28-3.63.09,32.47-6.28,3.63-.09-32.47ZM67.32,285.96l6.28-3.62.09,32.48-6.28,3.63-.09-32.48ZM82.88,229.99l6.28-3.62.09,32.48-6.28,3.62-.09-32.48ZM83.02,276.89l6.27-3.63.09,32.48-6.28,3.62-.09-32.47ZM98.58,220.93l6.29-3.63.09,32.48-6.28,3.63-.09-32.48ZM98.72,267.83l6.28-3.63.09,32.47-6.28,3.63-.09-32.48ZM114.29,211.86l6.28-3.63.09,32.48-6.28,3.63-.09-32.48ZM114.42,258.76l6.29-3.63.09,32.48-6.28,3.63-.09-32.47ZM130,202.79l6.27-3.62.09,32.48-6.28,3.62-.09-32.48ZM130.13,249.69l6.28-3.62.09,32.48-6.28,3.62-.09-32.48Z"/>
        <path class="cls-4" d="M101.94,157.09c38.08-21.99,44.93,23.42,45.3,25.81l-91.86,53.04c.42-2.84,8.49-56.87,46.57-78.85Z"/>
        <path class="cls-8" d="M82.8,125.72c-6.72-3.9-16.13-4.33-29.24,3.25C15.48,150.95,7.41,204.97,6.99,207.82l48.38,28.12c.42-2.84,8.49-56.87,46.57-78.85,13.11-7.57,22.52-7.15,29.24-3.25-16.13-9.37-32.26-18.75-48.39-28.12Z"/>
      </g>
    </g>
  </g>
</svg>