<?xml version="1.0" encoding="UTF-8"?>
<svg id="_레이어_2" data-name="레이어 2" xmlns="http://www.w3.org/2000/svg" viewBox="0 0 262 378.9">
  <defs>
    <style>
      .cls-1 {
        fill: #e8d6d1;
      }

      .cls-2 {
        fill: #eedcd6;
      }

      .cls-3 {
        fill: #d3b2a9;
      }

      .cls-4 {
        isolation: isolate;
      }

      .cls-5 {
        fill: #ff9c8f;
      }

      .cls-6 {
        fill: #e7e2d8;
      }

      .cls-7 {
        fill: #a3766d;
      }

      .cls-8 {
        fill: #acb1f1;
      }

      .cls-9 {
        fill: #6c79e0;
      }

      .cls-10 {
        fill: #d8b5ab;
      }

      .cls-11 {
        fill: #cfefff;
      }

      .cls-12 {
        fill: #8f96ea;
      }

      .cls-13 {
        fill: #b0baff;
      }

      .cls-14 {
        fill: #efddd7;
      }

      .cls-15 {
        fill: #ba8c7f;
      }

      .cls-16 {
        fill: #955542;
      }
    </style>
  </defs>
  <g id="_빌딩-11" data-name="빌딩-11">
    <g>
      <path class="cls-10" d="M23.41,239.74l97.78,56.82-.36-127.15L23.05,112.59l.36,127.15ZM121.36,296.46l-.17.1-7.1,20.21-90.6-52.66.16,57.96,97.78,56.82-.16-57.96.1-.06v-24.41Z"/>
      <path class="cls-14" d="M200.72,333.12l-.12-42.13-26.9,15.53.12,42.13-52.39,30.25-.16-57.96,126.53-73.05.16,57.96-47.24,27.27ZM163.23,312.57l-28.89,16.68.07,22.98,28.89-16.68-.07-22.98M239.3,268.65l-28.21,16.29.07,22.98,28.21-16.29-.07-22.98"/>
      <path class="cls-14" d="M247.72,223.51l-126.53,73.05-.36-127.15,126.53-73.05.36,127.15ZM134.18,274l28.89-16.68-.07-22.98-28.89,16.68.06,22.98M133.95,194.72l28.89-16.68-.07-22.98-28.89,16.68.07,22.98M134.07,236.37l28.89-16.68-.07-22.97-28.89,16.68.07,22.97M210.94,229.68l28.21-16.29-.07-22.98-28.21,16.29.07,22.98M210.71,150.4l28.21-16.29-.07-22.98-28.21,16.29.07,22.98M210.83,192.05l28.21-16.29-.07-22.97-28.21,16.29.07,22.97M180.75,247.11l12.51-7.22-.07-22.98-12.51,7.22.07,22.98M180.52,167.83l12.51-7.22-.07-22.98-12.51,7.22.07,22.98M180.64,209.48l12.51-7.22-.07-22.97-12.51,7.22.07,22.97"/>
      <polygon class="cls-9" points="121.19 296.56 23.41 239.74 0 259.98 110.43 327.19 121.19 296.56"/>
      <polygon class="cls-9" points="120.6 145.13 22.82 88.3 12.22 118.84 110 175.66 120.6 145.13"/>
      <polygon class="cls-8" points="247.29 71.98 149.51 15.16 22.82 88.3 120.6 145.13 247.29 71.98"/>
      <polygon class="cls-12" points="120.6 145.13 110 175.66 120.83 169.41 247.36 96.36 247.35 94.68 247.29 71.98 120.6 145.13"/>
      <g class="cls-4">
        <polygon class="cls-6" points="210.94 229.68 210.87 206.7 219.27 201.85 239.15 213.39 210.94 229.68"/>
        <g>
          <polygon class="cls-3" points="232.39 272.64 239.3 268.65 239.37 291.63 211.16 307.92 211.13 299.97 232.43 287.68 232.39 272.64"/>
          <polygon class="cls-3" points="232.17 194.4 239.08 190.41 239.15 213.39 210.94 229.68 210.91 221.74 232.21 209.44 232.17 194.4"/>
          <polygon class="cls-3" points="156.31 316.56 163.23 312.57 163.29 335.55 134.4 352.23 134.37 344.29 156.36 331.6 156.31 316.56"/>
          <polygon class="cls-3" points="186.28 220.9 193.19 216.9 193.26 239.89 180.75 247.11 180.72 239.17 186.32 235.94 186.28 220.9"/>
          <polygon class="cls-3" points="186.17 183.28 193.08 179.29 193.15 202.26 180.64 209.48 180.62 201.54 186.21 198.31 186.17 183.28"/>
          <polygon class="cls-3" points="231.94 115.12 238.86 111.14 238.92 134.12 210.71 150.4 210.69 142.46 231.98 130.17 231.94 115.12"/>
          <polygon class="cls-3" points="155.98 200.71 162.9 196.72 162.96 219.69 134.07 236.37 134.05 228.43 156.02 215.74 155.98 200.71"/>
          <polygon class="cls-3" points="155.87 159.05 162.78 155.06 162.84 178.04 133.95 194.72 133.93 186.78 155.91 174.09 155.87 159.05"/>
          <polygon class="cls-3" points="232.06 156.79 238.97 152.79 239.04 175.76 210.83 192.05 210.81 184.11 232.1 171.81 232.06 156.79"/>
          <polygon class="cls-3" points="156.09 238.32 163 234.33 163.07 257.31 134.18 274 134.15 266.06 156.13 253.37 156.09 238.32"/>
          <polygon class="cls-3" points="186.05 141.62 192.96 137.63 193.03 160.61 180.52 167.83 180.5 159.89 186.09 156.66 186.05 141.62"/>
          <polygon class="cls-11" points="232.39 272.64 232.43 287.68 211.13 299.97 211.09 284.94 232.39 272.64"/>
          <polygon class="cls-11" points="232.17 194.4 232.21 209.44 210.91 221.74 210.87 206.7 232.17 194.4"/>
          <polygon class="cls-11" points="156.31 316.56 156.36 331.6 134.37 344.29 134.33 329.25 156.31 316.56"/>
          <polygon class="cls-11" points="186.28 220.9 186.32 235.94 180.72 239.17 180.68 224.13 186.28 220.9"/>
          <polygon class="cls-5" points="208.13 293.73 208.17 308.77 202.57 312 202.53 296.96 208.13 293.73"/>
          <polygon class="cls-11" points="186.17 183.28 186.21 198.31 180.62 201.54 180.58 186.51 186.17 183.28"/>
          <polygon class="cls-11" points="231.94 115.12 231.98 130.17 210.69 142.46 210.64 127.42 231.94 115.12"/>
          <polygon class="cls-11" points="155.98 200.71 156.02 215.74 134.05 228.43 134 213.4 155.98 200.71"/>
          <polygon class="cls-11" points="155.87 159.05 155.91 174.09 133.93 186.78 133.89 171.74 155.87 159.05"/>
          <polygon class="cls-11" points="232.06 156.79 232.1 171.81 210.81 184.11 210.76 169.08 232.06 156.79"/>
          <polygon class="cls-11" points="156.09 238.32 156.13 253.37 134.15 266.06 134.11 251.01 156.09 238.32"/>
          <polygon class="cls-11" points="186.05 141.62 186.09 156.66 180.5 159.89 180.46 144.85 186.05 141.62"/>
        </g>
      </g>
      <g>
        <path class="cls-2" d="M53.99,218.33l3.8,2.2c-5.04,3.03-15.8,9.48-20.31,12.16,8.01,4.64,29.3,16.97,32.36,18.74,1.92-1.14,14.66-8.77,20.31-12.16l4,2.32-24.29,14.4-40.16-23.26,24.29-14.4Z"/>
        <polygon class="cls-1" points="69.86 255.98 29.7 232.73 29.75 251.22 69.91 274.48 69.86 255.98"/>
        <polygon class="cls-15" points="69.86 255.98 69.91 274.48 94.2 260.08 94.15 241.58 69.86 255.98"/>
        <path class="cls-10" d="M37.48,232.69c4.51-2.67,15.27-9.12,20.31-12.16v23.92c-7.26-4.2-15.85-9.18-20.31-11.77Z"/>
        <g>
          <path class="cls-6" d="M90.15,226.67v12.6c-1.29.77-2.95,1.77-4.76,2.85v-18.22s4.76,2.76,4.76,2.76Z"/>
          <path class="cls-6" d="M57.79,207.87l3.78,2.2v36.57c-1.2-.69-2.46-1.43-3.78-2.19v-36.58Z"/>
        </g>
        <g>
          <path class="cls-7" d="M85.39,223.91v18.22c-6.14,3.68-14.07,8.43-15.55,9.31-.83-.48-3.04-1.76-5.95-3.45v-36.57s21.5,12.5,21.5,12.5Z"/>
          <path class="cls-15" d="M61.57,210.07l2.31,1.34v36.57c-.73-.43-1.5-.87-2.31-1.34v-36.57Z"/>
        </g>
      </g>
      <g>
        <path class="cls-2" d="M57.19,313.1l3.8,2.2c-5.05,3.03-15.8,9.48-20.31,12.16,8.01,4.64,29.3,16.97,32.36,18.74,1.92-1.14,14.66-8.77,20.31-12.16l4,2.32-24.29,14.4-40.16-23.25,24.29-14.4Z"/>
        <polygon class="cls-1" points="73.06 350.76 32.9 327.5 32.95 345.99 73.11 369.25 73.06 350.76"/>
        <polygon class="cls-15" points="73.06 350.76 73.11 369.25 97.4 354.85 97.35 336.36 73.06 350.76"/>
        <path class="cls-10" d="M40.68,327.46c4.51-2.67,15.27-9.13,20.31-12.16v23.92c-7.26-4.21-15.85-9.18-20.31-11.77Z"/>
        <g>
          <path class="cls-6" d="M93.35,321.44v12.6c-1.29.77-2.95,1.77-4.76,2.85v-18.22s4.76,2.77,4.76,2.77Z"/>
          <path class="cls-6" d="M60.99,302.64l3.78,2.2v36.58c-1.19-.69-2.46-1.43-3.78-2.19v-36.59Z"/>
        </g>
        <g>
          <path class="cls-7" d="M88.59,318.68v18.22c-6.14,3.68-14.07,8.43-15.55,9.31-.83-.48-3.04-1.76-5.95-3.45v-36.57s21.5,12.49,21.5,12.49Z"/>
          <path class="cls-15" d="M64.77,304.84l2.31,1.35v36.57c-.73-.42-1.5-.87-2.31-1.34v-36.58Z"/>
        </g>
      </g>
      <g>
        <path class="cls-2" d="M55.96,167.69l3.8,2.2c-5.04,3.03-15.8,9.48-20.31,12.16,8.01,4.64,29.3,16.97,32.36,18.74,1.92-1.14,14.66-8.77,20.31-12.16l4,2.32-24.29,14.4-40.16-23.26,24.29-14.4Z"/>
        <polygon class="cls-1" points="71.82 205.35 31.67 182.09 31.72 200.58 71.88 223.84 71.82 205.35"/>
        <polygon class="cls-15" points="71.82 205.35 71.88 223.84 96.17 209.44 96.12 190.95 71.82 205.35"/>
        <path class="cls-10" d="M39.44,182.05c4.51-2.67,15.27-9.12,20.31-12.16v23.92c-7.26-4.2-15.85-9.18-20.31-11.76Z"/>
        <g>
          <path class="cls-6" d="M92.11,176.03v12.6c-1.29.77-2.95,1.77-4.76,2.85v-18.22s4.76,2.76,4.76,2.76Z"/>
          <path class="cls-6" d="M59.76,157.23l3.78,2.2v36.58c-1.2-.69-2.46-1.43-3.78-2.19v-36.58Z"/>
        </g>
        <g>
          <path class="cls-7" d="M87.36,173.27v18.22c-6.14,3.68-14.07,8.43-15.55,9.3-.83-.48-3.04-1.76-5.95-3.45v-36.57s21.5,12.5,21.5,12.5Z"/>
          <path class="cls-15" d="M63.54,159.43l2.31,1.35v36.57c-.73-.42-1.5-.87-2.31-1.34v-36.58Z"/>
        </g>
      </g>
      <polygon class="cls-12" points="247.72 223.51 262 239.8 110.43 327.19 121.36 296.46 247.72 223.51"/>
      <polygon class="cls-16" points="173.7 306.52 197.3 292.9 197.3 331.27 173.82 344.83 173.7 306.52"/>
      <polygon class="cls-15" points="197.3 331.09 197.3 292.9 200.6 290.99 200.72 333.08 197.3 331.09"/>
      <polygon class="cls-11" points="193.56 302.4 193.6 317.44 188.01 320.67 187.97 305.63 193.56 302.4"/>
      <polygon class="cls-11" points="183.16 308.3 183.2 323.34 177.6 326.57 177.56 311.53 183.16 308.3"/>
      <g>
        <path class="cls-12" d="M120.93,34.11c38.08-21.99,44.93,23.42,45.3,25.81l-91.86,53.04c.42-2.84,8.49-56.87,46.57-78.85Z"/>
        <path class="cls-13" d="M101.79,2.75c-6.72-3.9-16.13-4.33-29.24,3.25C34.47,27.97,26.4,82,25.98,84.84l48.38,28.12c.42-2.84,8.49-56.87,46.57-78.85,13.11-7.57,22.52-7.15,29.24-3.25-16.13-9.37-32.26-18.75-48.39-28.12Z"/>
      </g>
    </g>
  </g>
</svg>