<?xml version="1.0" encoding="UTF-8"?>
<svg xmlns="http://www.w3.org/2000/svg" viewBox="0 0 157.45 211.98">
  <defs>
    <style>
      .cls-1 {
        fill: #eee7eb;
      }

      .cls-2 {
        fill: #64c298;
      }

      .cls-3 {
        fill: #231f20;
      }

      .cls-4 {
        fill: #e1dbdf;
      }

      .cls-5 {
        fill: #0a3542;
      }

      .cls-6 {
        fill: #d6d6ca;
      }

      .cls-7 {
        fill: #92d5d0;
      }

      .cls-8 {
        fill: #14b57a;
      }

      .cls-9 {
        isolation: isolate;
      }

      .cls-10 {
        fill: #fbfbe8;
      }

      .cls-11 {
        fill: #008a5f;
      }

      .cls-12 {
        fill: #e4d23b;
      }

      .cls-13 {
        fill: #006e52;
      }

      .cls-14 {
        fill: #64c8d0;
      }

      .cls-15 {
        mix-blend-mode: multiply;
      }

      .cls-15, .cls-16 {
        fill: #8c8c8c;
      }

      .cls-17 {
        fill: #b4e1e5;
      }

      .cls-18 {
        fill: #b0a67a;
      }

      .cls-19 {
        fill: #e7e7e0;
      }

      .cls-20 {
        fill: none;
        stroke: #fbfbe8;
        stroke-width: 1.37px;
      }

      .cls-21 {
        fill: #768079;
      }
    </style>
  </defs>
  <g class="cls-9">
    <g id="_레이어_2" data-name="레이어 2">
      <g id="_빌딩-2" data-name="빌딩-2">
        <g>
          <g>
            <g class="cls-9">
              <polygon class="cls-21" points="4.29 146.36 24.32 134.72 24.27 150.68 4.25 162.32 4.29 146.36"/>
              <g>
                <polygon class="cls-10" points=".16 102.46 67.27 64.78 157.45 116.84 90.34 154.52 .16 102.46"/>
                <path class="cls-4" d="M8,102.51c10.07,5.81,78.95,45.58,82.37,47.55,3.3-1.85,49.68-27.9,59.24-33.26-10.07-5.82-78.95-45.58-82.37-47.56-3.3,1.85-49.68,27.9-59.24,33.27Z"/>
                <path class="cls-20" d="M15.84,102.55c8.76,5.06,71.09,41.05,74.56,43.05,3.55-2,48.89-27.45,51.38-28.85-8.85-5.11-71.1-41.05-74.56-43.05-3.32,1.87-43.46,24.41-51.38,28.85Z"/>
              </g>
              <g class="cls-9">
                <polygon class="cls-19" points="90.34 154.52 90.26 211.98 86.02 209.52 86.06 193.57 4.29 146.36 4.25 162.32 0 159.86 .16 102.46 90.34 154.52"/>
              </g>
            </g>
            <g class="cls-9">
              <polygon class="cls-21" points="50.91 63.57 70.94 51.93 70.89 67.88 50.87 79.52 50.91 63.57"/>
              <polygon class="cls-6" points="156.99 60.09 136.96 71.73 136.89 128.22 90.34 154.52 90.26 211.98 157.27 174.11 156.99 60.09"/>
              <polygon class="cls-10" points="46.78 19.66 66.81 8.03 156.99 60.09 136.96 71.73 46.78 19.66"/>
            </g>
            <g class="cls-9">
              <polygon class="cls-6" points="113.03 32.99 132.15 21.87 132.08 46.95 112.95 58.07 113.03 32.99"/>
              <polygon class="cls-1" points="75.15 11.12 94.28 0 132.15 21.87 113.03 32.99 75.15 11.12"/>
              <polygon class="cls-19" points="112.96 57.87 113.03 32.99 75.15 11.12 75.08 36 46.78 19.66 46.62 77.06 50.87 79.52 50.91 63.57 132.68 110.77 132.64 126.73 136.89 129.18 136.96 71.73 112.96 57.87"/>
            </g>
            <g>
              <polygon class="cls-16" points="124 49.85 124 33.94 128.68 31.18 128.68 47.13 124 49.85"/>
              <polygon class="cls-15" points="124 33.94 128.68 31.18 128.68 47.13 128.56 47.2 124 45.52 124 33.94"/>
            </g>
            <g>
              <polygon class="cls-16" points="141.46 181 141.46 165.09 146.15 162.34 146.15 178.28 141.46 181"/>
              <polygon class="cls-15" points="141.46 165.09 146.15 162.34 146.15 178.28 146.02 178.36 141.46 176.67 141.46 165.09"/>
            </g>
            <g>
              <polygon class="cls-16" points="141.46 155.35 141.46 139.44 146.15 136.68 146.15 152.63 141.46 155.35"/>
              <polygon class="cls-15" points="141.46 139.44 146.15 136.68 146.15 152.63 146.02 152.71 141.46 151.02 141.46 139.44"/>
            </g>
            <g>
              <polygon class="cls-16" points="141.46 129.7 141.46 113.78 146.15 111.03 146.15 126.97 141.46 129.7"/>
              <polygon class="cls-15" points="141.46 113.78 146.15 111.03 146.15 126.97 146.02 127.05 141.46 125.36 141.46 113.78"/>
            </g>
            <g>
              <polygon class="cls-16" points="141.46 104.04 141.46 88.13 146.15 85.37 146.15 101.32 141.46 104.04"/>
              <polygon class="cls-15" points="141.46 88.13 146.15 85.37 146.15 101.32 146.02 101.4 141.46 99.71 141.46 88.13"/>
            </g>
            <path class="cls-19" d="M157.15,123.36l-8.61,5.01v7.27l8.63-5.02-.02-7.26ZM157.18,137.71l-8.64,5.03v7.27l8.66-5.04-.02-7.26ZM157.11,109.02l-8.57,4.98v7.27l8.59-5-.02-7.26ZM157,65.98l-8.46,4.92v7.27l8.48-4.93-.02-7.26ZM157.04,80.33l-8.5,4.94v7.27l8.52-4.95-.02-7.26ZM157.07,94.67l-8.54,4.97v7.27l8.55-4.98-.02-7.26Z"/>
            <polygon class="cls-7" points="50.78 33.28 130.73 78.84 130.73 74.58 50.78 29.02 50.78 33.28"/>
            <polygon class="cls-7" points="50.78 39.64 130.73 85.19 130.73 80.94 50.78 35.38 50.78 39.64"/>
            <polygon class="cls-7" points="50.78 46 130.73 91.55 130.73 87.3 50.78 41.74 50.78 46"/>
            <polygon class="cls-7" points="50.78 52.36 130.73 97.91 130.73 93.66 50.78 48.1 50.78 52.36"/>
            <polygon class="cls-7" points="50.78 58.72 130.73 104.27 130.73 100.02 50.78 54.46 50.78 58.72"/>
            <polygon class="cls-7" points="5.21 115.65 85.17 161.2 85.17 156.94 5.21 111.39 5.21 115.65"/>
            <polygon class="cls-7" points="5.21 122 85.17 167.56 85.17 163.3 5.21 117.75 5.21 122"/>
            <polygon class="cls-7" points="5.21 128.36 85.17 173.92 85.17 169.66 5.21 124.11 5.21 128.36"/>
            <polygon class="cls-7" points="5.21 134.72 85.17 180.27 85.17 176.02 5.21 130.47 5.21 134.72"/>
            <polygon class="cls-7" points="5.21 141.08 85.17 186.64 85.17 182.38 5.21 136.82 5.21 141.08"/>
            <g>
              <polygon class="cls-6" points="80.32 19.28 79.08 18.59 79.08 38.73 82.37 40.58 82.37 38.65 80.32 37.5 80.32 19.28"/>
              <polygon class="cls-6" points="86.82 23.16 85.58 22.46 85.58 42.61 88.87 44.46 88.87 42.53 86.82 41.37 86.82 23.16"/>
              <polygon class="cls-6" points="93.32 27.04 92.08 26.34 92.08 46.48 95.37 48.34 95.37 46.4 93.32 45.25 93.32 27.04"/>
              <polygon class="cls-6" points="99.82 30.91 98.58 30.21 98.58 50.36 101.87 52.21 101.87 50.28 99.82 49.12 99.82 30.91"/>
              <polygon class="cls-6" points="106.32 34.79 105.08 34.09 105.08 54.24 108.37 56.09 108.37 54.16 106.32 53 106.32 34.79"/>
              <polygon class="cls-7" points="80.32 19.28 80.32 37.5 82.37 38.65 82.37 20.44 80.32 19.28"/>
              <polygon class="cls-7" points="86.82 23.16 86.82 41.37 88.87 42.53 88.87 24.31 86.82 23.16"/>
              <polygon class="cls-7" points="93.32 27.04 93.32 45.25 95.37 46.4 95.37 28.19 93.32 27.04"/>
              <polygon class="cls-7" points="99.82 30.91 99.82 49.12 101.87 50.28 101.87 32.07 99.82 30.91"/>
              <polygon class="cls-7" points="106.32 34.79 106.32 53 108.37 54.16 108.37 35.94 106.32 34.79"/>
            </g>
            <line class="cls-20" x1="28.19" y1="109.68" x2="80.11" y2="81.53"/>
            <line class="cls-20" x1="40.66" y1="116.82" x2="92.58" y2="88.67"/>
            <line class="cls-20" x1="53.14" y1="123.95" x2="105.06" y2="95.81"/>
            <line class="cls-20" x1="65.61" y1="131.09" x2="117.53" y2="102.94"/>
            <line class="cls-20" x1="78.08" y1="138.23" x2="130.01" y2="110.08"/>
            <line class="cls-20" x1="40.13" y1="88.91" x2="115.89" y2="131.28"/>
          </g>
          <g>
            <polygon class="cls-12" points="46.35 96.79 46.36 98.66 45.71 99.03 45.7 97.16 46.35 96.79"/>
            <path class="cls-18" d="M42.58,100.97c.23-.13.41-.02.41.23,0,.26-.18.58-.41.71-.23.13-.41.03-.41-.23,0-.26.18-.58.41-.71Z"/>
            <path class="cls-3" d="M42.57,100.1c.65-.38,1.18-.08,1.19.67,0,.08,0,.16-.02.24-.09.69-.58,1.46-1.16,1.8-.58.34-1.07.13-1.16-.45-.01-.07-.02-.14-.02-.22,0-.75.53-1.66,1.18-2.04ZM42.58,101.91c.23-.13.41-.45.41-.71,0-.26-.19-.37-.41-.23-.23.13-.41.45-.41.71,0,.26.18.37.41.23"/>
            <polygon class="cls-2" points="42.81 97.47 32.29 91.37 35.84 89.32 46.35 95.43 42.81 97.47"/>
            <polygon class="cls-5" points="40.61 99.8 40.61 100.41 39.55 101.02 39.55 100.41 40.61 99.8"/>
            <path class="cls-3" d="M34.87,104.77c.65-.38,1.18-.07,1.19.68,0,.75-.52,1.66-1.18,2.04-.65.38-1.18.07-1.18-.68,0-.75.52-1.66,1.17-2.04ZM34.88,106.6c.23-.13.41-.45.41-.71,0-.26-.18-.37-.41-.24-.22.13-.41.45-.41.71,0,.26.19.37.41.24"/>
            <path class="cls-18" d="M34.88,105.65c.23-.13.41-.03.41.24,0,.26-.18.58-.41.71-.23.13-.41.03-.41-.24,0-.26.18-.58.41-.71Z"/>
            <polygon class="cls-17" points="39.83 96.52 42.8 94.81 42.81 97.47 42.81 97.62 39.84 99.33 39.83 96.52"/>
            <polygon class="cls-5" points="35.48 102.76 35.48 103.37 34.42 103.98 34.42 103.37 35.48 102.76"/>
            <polygon class="cls-11" points="31.46 108.1 20.95 101.99 20.95 101.15 31.46 107.26 31.46 108.1"/>
            <polygon class="cls-17" points="36.01 101.54 36 98.73 39.18 96.9 39.18 99.71 36.01 101.54"/>
            <polygon class="cls-12" points="32.02 105.34 32.03 106.93 31.46 107.26 31.45 105.67 32.02 105.34"/>
            <polygon class="cls-13" points="31.46 107.26 20.95 101.15 20.94 99.56 31.45 105.67 31.46 107.26"/>
            <polygon class="cls-2" points="31.45 104.03 20.94 97.92 22.53 97.01 33.04 103.11 31.45 104.03"/>
            <polygon class="cls-11" points="31.45 105.67 20.94 99.56 20.94 97.92 31.45 104.03 31.45 105.67"/>
            <polygon class="cls-17" points="33.04 103.26 33.03 100.45 35.35 99.11 35.36 101.92 33.04 103.26"/>
            <polygon class="cls-14" points="33.04 103.26 22.53 97.15 22.52 94.34 33.03 100.45 33.04 103.26"/>
            <polygon class="cls-11" points="33.03 100.45 22.52 94.34 22.52 93.08 33.02 99.19 33.03 100.45"/>
            <path class="cls-8" d="M46.35,96.79l-.65.38v1.87s.66-.38.66-.38v.84s-2.62,1.52-2.62,1.52c.01-.08.02-.16.02-.24,0-.75-.53-1.05-1.19-.67-.65.38-1.18,1.29-1.18,2.04,0,.08,0,.15.02.22l-5.35,3.09c0-.75-.53-1.05-1.19-.68-.65.38-1.17,1.29-1.17,2.04l-2.24,1.29v-.84s.57-.33.57-.33v-1.59s-.58.33-.58.33v-1.64s1.58-.92,1.58-.92v.14s2.32-1.34,2.32-1.34v-2.81s-2.33,1.34-2.33,1.34v-1.26s9.76-5.64,9.76-5.64v1.26s-2.97,1.72-2.97,1.72v2.81s2.98-1.72,2.98-1.72v-.14l3.54-2.05v1.36ZM39.18,99.71v-2.81s-3.18,1.83-3.18,1.83v2.81s3.18-1.83,3.18-1.83M35.48,103.37v-.61l-1.06.61v.61l1.06-.61M40.61,100.41v-.61s-1.06.61-1.06.61v.61l1.06-.61"/>
            <polygon class="cls-2" points="33.02 99.19 22.52 93.08 32.28 87.44 42.79 93.55 33.02 99.19"/>
          </g>
          <g>
            <polygon class="cls-12" points="70.99 110.58 71 112.46 70.35 112.83 70.34 110.96 70.99 110.58"/>
            <path class="cls-18" d="M67.22,114.77c.23-.13.41-.02.41.23,0,.26-.18.58-.41.71-.23.13-.41.03-.41-.23,0-.26.18-.58.41-.71Z"/>
            <path class="cls-3" d="M67.21,113.89c.65-.38,1.18-.08,1.19.67,0,.08,0,.16-.02.24-.09.69-.58,1.46-1.16,1.8-.58.34-1.07.13-1.16-.45-.01-.07-.02-.14-.02-.22,0-.75.53-1.66,1.18-2.04ZM67.22,115.71c.23-.13.41-.45.41-.71,0-.26-.19-.37-.41-.23-.23.13-.41.45-.41.71,0,.26.18.37.41.23"/>
            <polygon class="cls-2" points="67.45 111.27 56.93 105.17 60.48 103.12 70.99 109.23 67.45 111.27"/>
            <polygon class="cls-5" points="65.25 113.59 65.25 114.2 64.19 114.82 64.19 114.21 65.25 113.59"/>
            <path class="cls-3" d="M59.52,118.57c.65-.38,1.18-.07,1.19.68,0,.75-.52,1.66-1.18,2.04-.65.38-1.18.07-1.18-.68,0-.75.52-1.66,1.17-2.04ZM59.52,120.4c.23-.13.41-.45.41-.71,0-.26-.18-.37-.41-.24-.22.13-.41.45-.41.71,0,.26.19.37.41.24"/>
            <path class="cls-18" d="M59.52,119.45c.23-.13.41-.03.41.24,0,.26-.18.58-.41.71-.23.13-.41.03-.41-.24,0-.26.18-.58.41-.71Z"/>
            <polygon class="cls-17" points="64.47 110.32 67.44 108.61 67.45 111.27 67.45 111.42 64.48 113.13 64.47 110.32"/>
            <polygon class="cls-5" points="60.12 116.56 60.12 117.17 59.06 117.78 59.06 117.17 60.12 116.56"/>
            <polygon class="cls-11" points="56.1 121.9 45.59 115.79 45.59 114.95 56.1 121.06 56.1 121.9"/>
            <polygon class="cls-17" points="60.65 115.34 60.64 112.53 63.82 110.7 63.82 113.51 60.65 115.34"/>
            <polygon class="cls-12" points="56.67 119.14 56.67 120.73 56.1 121.06 56.09 119.47 56.67 119.14"/>
            <polygon class="cls-13" points="56.1 121.06 45.59 114.95 45.58 113.36 56.09 119.47 56.1 121.06"/>
            <polygon class="cls-2" points="56.09 117.83 45.58 111.72 47.17 110.81 57.68 116.91 56.09 117.83"/>
            <polygon class="cls-11" points="56.09 119.47 45.58 113.36 45.58 111.72 56.09 117.83 56.09 119.47"/>
            <polygon class="cls-17" points="57.68 117.05 57.67 114.25 59.99 112.91 60 115.72 57.68 117.05"/>
            <polygon class="cls-14" points="57.68 117.05 47.17 110.95 47.16 108.14 57.67 114.25 57.68 117.05"/>
            <polygon class="cls-11" points="57.67 114.25 47.16 108.14 47.16 106.88 57.67 112.99 57.67 114.25"/>
            <path class="cls-8" d="M70.99,110.58l-.65.38v1.87s.66-.38.66-.38v.84s-2.62,1.52-2.62,1.52c.01-.08.02-.16.02-.24,0-.75-.53-1.05-1.19-.67-.65.38-1.18,1.29-1.18,2.04,0,.08,0,.15.02.22l-5.35,3.09c0-.75-.53-1.05-1.19-.68-.65.38-1.17,1.29-1.17,2.04l-2.24,1.29v-.84s.57-.33.57-.33v-1.59s-.58.33-.58.33v-1.64s1.58-.92,1.58-.92v.14s2.32-1.34,2.32-1.34v-2.81s-2.33,1.34-2.33,1.34v-1.26s9.76-5.64,9.76-5.64v1.26s-2.97,1.72-2.97,1.72v2.81s2.98-1.72,2.98-1.72v-.14l3.54-2.05v1.36ZM63.82,113.51v-2.81s-3.18,1.83-3.18,1.83v2.81s3.18-1.83,3.18-1.83M60.12,117.17v-.61l-1.06.61v.61l1.06-.61M65.25,114.2v-.61s-1.06.61-1.06.61v.61l1.06-.61"/>
            <polygon class="cls-2" points="57.67 112.99 47.16 106.88 56.92 101.24 67.43 107.34 57.67 112.99"/>
          </g>
          <g>
            <polygon class="cls-12" points="122.02 111.81 122.03 113.68 121.38 114.05 121.37 112.18 122.02 111.81"/>
            <path class="cls-18" d="M118.25,115.99c.23-.13.41-.02.41.23,0,.26-.18.58-.41.71-.23.13-.41.03-.41-.23,0-.26.18-.58.41-.71Z"/>
            <path class="cls-3" d="M118.24,115.12c.65-.38,1.18-.08,1.19.67,0,.08,0,.16-.02.24-.09.69-.58,1.46-1.16,1.8-.58.34-1.07.13-1.16-.45-.01-.07-.02-.14-.02-.22,0-.75.53-1.66,1.18-2.04ZM118.25,116.93c.23-.13.41-.45.41-.71,0-.26-.19-.37-.41-.23-.23.13-.41.45-.41.71,0,.26.18.37.41.23"/>
            <polygon class="cls-2" points="118.48 112.49 107.97 106.39 111.51 104.34 122.02 110.45 118.48 112.49"/>
            <polygon class="cls-5" points="116.28 114.82 116.28 115.42 115.22 116.04 115.22 115.43 116.28 114.82"/>
            <path class="cls-3" d="M110.55,119.79c.65-.38,1.18-.07,1.19.68,0,.75-.52,1.66-1.18,2.04-.65.38-1.18.07-1.18-.68,0-.75.52-1.66,1.17-2.04ZM110.55,121.62c.23-.13.41-.45.41-.71,0-.26-.18-.37-.41-.24-.22.13-.41.45-.41.71,0,.26.19.37.41.24"/>
            <path class="cls-18" d="M110.55,120.67c.23-.13.41-.03.41.24,0,.26-.18.58-.41.71-.23.13-.41.03-.41-.24,0-.26.18-.58.41-.71Z"/>
            <polygon class="cls-17" points="115.5 111.54 118.47 109.83 118.48 112.49 118.48 112.64 115.51 114.35 115.5 111.54"/>
            <polygon class="cls-5" points="111.15 117.78 111.15 118.39 110.09 119 110.09 118.39 111.15 117.78"/>
            <polygon class="cls-11" points="107.13 123.12 96.62 117.01 96.62 116.17 107.13 122.28 107.13 123.12"/>
            <polygon class="cls-17" points="111.68 116.56 111.67 113.75 114.85 111.92 114.86 114.73 111.68 116.56"/>
            <polygon class="cls-12" points="107.7 120.36 107.7 121.95 107.13 122.28 107.12 120.69 107.7 120.36"/>
            <polygon class="cls-13" points="107.13 122.28 96.62 116.17 96.62 114.58 107.12 120.69 107.13 122.28"/>
            <polygon class="cls-2" points="107.12 119.05 96.61 112.94 98.2 112.03 108.71 118.13 107.12 119.05"/>
            <polygon class="cls-11" points="107.12 120.69 96.62 114.58 96.61 112.94 107.12 119.05 107.12 120.69"/>
            <polygon class="cls-17" points="108.71 118.28 108.7 115.47 111.02 114.13 111.03 116.94 108.71 118.28"/>
            <polygon class="cls-14" points="108.71 118.28 98.2 112.17 98.19 109.36 108.7 115.47 108.71 118.28"/>
            <polygon class="cls-11" points="108.7 115.47 98.19 109.36 98.19 108.1 108.7 114.21 108.7 115.47"/>
            <path class="cls-8" d="M122.02,111.81l-.65.38v1.87s.66-.38.66-.38v.84s-2.62,1.52-2.62,1.52c.01-.08.02-.16.02-.24,0-.75-.53-1.05-1.19-.67-.65.38-1.18,1.29-1.18,2.04,0,.08,0,.15.02.22l-5.35,3.09c0-.75-.53-1.05-1.19-.68-.65.38-1.17,1.29-1.17,2.04l-2.24,1.29v-.84s.57-.33.57-.33v-1.59s-.58.33-.58.33v-1.64s1.58-.92,1.58-.92v.14s2.32-1.34,2.32-1.34v-2.81s-2.33,1.34-2.33,1.34v-1.26s9.76-5.64,9.76-5.64v1.26s-2.97,1.72-2.97,1.72v2.81s2.98-1.72,2.98-1.72v-.14l3.54-2.05v1.36ZM114.86,114.73v-2.81s-3.18,1.83-3.18,1.83v2.81s3.18-1.83,3.18-1.83M111.15,118.39v-.61l-1.06.61v.61l1.06-.61M116.28,115.42v-.61s-1.06.61-1.06.61v.61l1.06-.61"/>
            <polygon class="cls-2" points="108.7 114.21 98.19 108.1 107.95 102.46 118.46 108.57 108.7 114.21"/>
          </g>
        </g>
      </g>
    </g>
  </g>
</svg>