<?xml version="1.0" encoding="UTF-8"?>
<svg id="_레이어_2" data-name="레이어 2" xmlns="http://www.w3.org/2000/svg" viewBox="0 0 199.89 293.69">
  <defs>
    <style>
      .cls-1 {
        fill: #c0e7f9;
      }

      .cls-2 {
        fill: #6dbfe2;
      }

      .cls-3 {
        fill: #8dccf7;
      }

      .cls-4 {
        isolation: isolate;
      }

      .cls-5 {
        fill: #72e87a;
      }

      .cls-6 {
        fill: #fff;
      }

      .cls-7 {
        fill: #4eafd1;
      }

      .cls-8 {
        fill: #ffec5f;
      }

      .cls-9 {
        fill: #f9cb08;
      }

      .cls-10 {
        fill: #8dfc98;
      }

      .cls-11 {
        fill: #ffd939;
      }

      .cls-12 {
        fill: #cc8e05;
      }
    </style>
  </defs>
  <g id="_빌딩-9" data-name="빌딩-9">
    <g>
      <g class="cls-4">
        <polygon class="cls-2" points="83.96 271.87 .5 223.36 0 47.43 83.47 95.94 83.96 271.87"/>
        <polygon class="cls-1" points="83.47 95.94 0 47.43 82.15 0 165.62 48.5 83.47 95.94"/>
        <g class="cls-4">
          <polygon class="cls-3" points="165.62 48.5 166.12 224.43 83.96 271.87 83.47 95.94 165.62 48.5"/>
        </g>
      </g>
      <path class="cls-6" d="M90.92,123.27v7.4c23.11-13.35,47.81-27.61,58.86-33.98v-7.39c-22.62,13.06-47.04,27.16-58.86,33.98Z"/>
      <path class="cls-6" d="M90.92,137.6v7.39c23.11-13.34,47.81-27.6,58.86-33.98v-7.39c-22.62,13.06-47.04,27.16-58.86,33.98Z"/>
      <path class="cls-6" d="M90.92,151.94v7.39c23.11-13.34,47.81-27.6,58.86-33.98v-7.39c-22.62,13.06-47.04,27.16-58.86,33.98Z"/>
      <path class="cls-6" d="M90.92,166.27v7.39c23.11-13.34,47.81-27.6,58.86-33.98v-7.38c-22.62,13.06-47.04,27.15-58.86,33.98Z"/>
      <path class="cls-6" d="M90.92,180.61v7.39c23.11-13.34,47.81-27.61,58.86-33.98v-7.39c-22.62,13.06-47.04,27.16-58.86,33.98Z"/>
      <path class="cls-6" d="M90.92,194.95v7.39c23.11-13.35,47.81-27.61,58.86-33.99v-7.39c-22.62,13.06-47.04,27.16-58.86,33.98Z"/>
      <path class="cls-6" d="M90.92,209.28v7.39c23.11-13.34,47.81-27.6,58.86-33.98v-7.39c-22.62,13.06-47.04,27.16-58.86,33.98Z"/>
      <path class="cls-6" d="M90.92,223.61v7.39c23.11-13.35,47.81-27.61,58.86-33.99v-7.39c-22.62,13.06-47.04,27.15-58.86,33.98Z"/>
      <path class="cls-12" d="M90.92,240.64v27.21c23.11-13.35,47.81-27.61,58.86-33.99v-27.21c-22.62,13.06-47.04,27.16-58.86,33.98Z"/>
      <path class="cls-7" d="M83.5,109.76l-23.69-13.1v150.29l24.02,14.14-.32-151.33ZM.47,213.38l19.4,10.98V74.58L.05,63.62l.43,149.76ZM26.8,228.28l26.07,14.75V92.82l-26.07-14.41v149.86Z"/>
      <path class="cls-11" d="M90.92,240.64l13.78,10.98,55.95-33.48-10.86-11.48c-22.63,13.06-47.05,27.15-58.86,33.98Z"/>
      <polygon class="cls-1" points="43.27 135.51 36.92 131.93 36.92 93.02 43.27 96.59 43.27 135.51"/>
      <polygon class="cls-1" points="43.27 183.75 36.92 180.18 36.92 141.27 43.27 144.84 43.27 183.75"/>
      <polygon class="cls-1" points="43.27 232 36.92 228.42 36.92 189.51 43.27 193.08 43.27 232"/>
      <polygon class="cls-1" points="74.89 152.25 68.54 148.67 68.54 109.76 74.89 113.34 74.89 152.25"/>
      <polygon class="cls-1" points="74.89 200.49 68.54 196.91 68.54 158 74.89 161.58 74.89 200.49"/>
      <polygon class="cls-1" points="74.89 248.74 68.54 245.16 68.54 206.25 74.89 209.82 74.89 248.74"/>
      <polygon class="cls-1" points="11.69 117.01 5.33 113.43 5.33 74.52 11.69 78.1 11.69 117.01"/>
      <polygon class="cls-1" points="11.69 165.26 5.33 161.68 5.33 122.76 11.69 126.34 11.69 165.26"/>
      <polygon class="cls-1" points="11.69 213.5 5.33 209.92 5.33 171.01 11.69 174.58 11.69 213.5"/>
      <path class="cls-6" d="M165.87,137.41c-4.19,2.42-8.41,4.86-12.6,7.27v6.95c3.37-1.95,7.67-4.42,12.62-7.29l-.02-6.93ZM165.91,151.72c-4.2,2.43-8.44,4.87-12.64,7.3v6.94c3.38-1.95,7.7-4.44,12.66-7.31l-.02-6.93ZM165.99,180.35c-4.23,2.44-8.5,4.91-12.72,7.34v6.94c3.39-1.96,7.74-4.46,12.74-7.35l-.02-6.93ZM165.95,166.04c-4.21,2.43-8.47,4.89-12.68,7.32v6.95c3.39-1.96,7.72-4.46,12.7-7.33l-.02-6.93ZM165.75,94.48c-4.15,2.39-8.34,4.81-12.48,7.2v6.94c3.34-1.93,7.6-4.39,12.5-7.21l-.02-6.93ZM165.71,80.16c-4.14,2.39-8.31,4.8-12.43,7.18v6.95c3.33-1.93,7.58-4.38,12.45-7.19l-.02-6.94ZM165.79,108.79c-4.16,2.4-8.36,4.82-12.52,7.22v6.94c3.35-1.93,7.62-4.4,12.54-7.24l-.02-6.93ZM165.83,123.1c-4.18,2.41-8.39,4.85-12.56,7.25v6.94c3.36-1.93,7.65-4.41,12.58-7.26l-.02-6.93Z"/>
      <polygon class="cls-8" points="160.7 221.71 104.69 255.23 104.69 251.61 160.7 218.08 160.7 221.71"/>
      <polygon class="cls-9" points="90.93 244.43 104.54 255.23 104.54 251.61 90.93 240.81 90.93 244.43"/>
      <polygon class="cls-5" points="117.73 293.69 86.38 275.35 86.38 272.71 168.52 227.92 199.89 243.62 199.89 246.26 117.73 293.69"/>
      <polygon class="cls-10" points="117.73 291.05 86.38 272.71 168.52 225.28 199.89 243.62 117.73 291.05"/>
    </g>
  </g>
</svg>