<?xml version="1.0" encoding="UTF-8"?>
<svg id="_레이어_2" data-name="레이어 2" xmlns="http://www.w3.org/2000/svg" viewBox="0 0 227.04 306.97">
  <defs>
    <style>
      .cls-1 {
        fill: #ff9eb6;
      }

      .cls-2 {
        fill: #6ce0a6;
      }

      .cls-3 {
        fill: #64c298;
      }

      .cls-4 {
        stroke: #844338;
      }

      .cls-4, .cls-5 {
        fill: #fff;
      }

      .cls-6 {
        isolation: isolate;
      }

      .cls-7 {
        fill: #f4e8e4;
      }

      .cls-8 {
        fill: #ceada7;
      }

      .cls-9 {
        fill: #ffcad8;
      }

      .cls-10 {
        stroke: #fff;
        stroke-width: 1.89px;
      }

      .cls-10, .cls-11 {
        fill: none;
      }

      .cls-12 {
        fill: #56c18b;
      }

      .cls-11 {
        stroke: #ffeef7;
        stroke-miterlimit: 10;
        stroke-width: 2px;
      }

      .cls-13 {
        fill: #96584e;
      }

      .cls-14 {
        fill: #bb8c80;
      }

      .cls-15 {
        fill: #c69991;
      }

      .cls-16 {
        fill: #efddd7;
      }

      .cls-17 {
        fill: #fc7a9f;
      }

      .cls-18 {
        fill: #b2857f;
      }
    </style>
  </defs>
  <g id="_빌딩-7" data-name="빌딩-7">
    <g>
      <polygon class="cls-18" points="48.22 183.14 28.87 194.32 29 251.49 48.22 240.39 48.22 183.14"/>
      <polygon class="cls-13" points="8.51 239.58 29 251.49 28.87 215.94 8.51 204.1 8.51 239.58"/>
      <g>
        <polygon class="cls-18" points="145.31 238.62 125.96 249.79 126.09 306.97 145.31 295.87 145.31 238.62"/>
        <polygon class="cls-13" points="105.59 295.06 126.09 306.97 125.96 249.79 105.59 237.96 105.59 295.06"/>
        <polygon class="cls-18" points="217.8 224.28 198.45 235.45 198.58 265.36 217.8 254.26 217.8 224.28"/>
        <polygon class="cls-13" points="178.09 253.45 198.58 265.36 198.45 208.19 178.09 196.35 178.09 253.45"/>
        <polygon class="cls-8" points="130.39 270.23 226.32 214.88 96.42 139.97 .5 195.32 130.39 270.23"/>
        <polygon class="cls-13" points="130.67 277.47 227.02 222.03 227.04 214.6 130.7 270.04 130.67 277.47"/>
        <polygon class="cls-15" points=".02 195.05 0 202.48 130.67 277.92 130.7 270.49 122.2 265.58 93.77 249.18 73.37 237.39 56.91 227.88 36.49 216.1 11.58 201.72 .02 195.05"/>
        <g>
          <g>
            <path class="cls-3" d="M38.84,176.04c-1.09.34-2.36.32-3.75-.13l-.03,10.65,3.74,2.16.03-12.68Z"/>
            <polygon class="cls-3" points="35.06 186.55 35.05 192.18 81.56 219.04 81.58 213.42 75.87 210.12 38.8 188.72 35.06 186.55"/>
            <polygon class="cls-14" points="104.78 231.51 104.76 238.83 125.46 250.79 125.48 243.46 104.78 231.51"/>
            <polygon class="cls-5" points="59.32 127.42 59.34 119.16 45.45 111.13 45.43 119.41 59.32 127.42"/>
            <polygon class="cls-5" points="109.77 200.15 109.7 223.09 120.29 229.2 120.36 206.26 109.77 200.15"/>
            <polygon class="cls-5" points="59.41 99.34 45.5 91.32 45.47 105.09 59.36 113.11 59.41 99.34"/>
            <path class="cls-14" d="M125.48,243.46l-20.7-11.95.12-41.67,20.7,11.95-.12,41.67ZM109.7,223.09l10.59,6.11.06-22.94-10.59-6.11-.07,22.94"/>
            <polygon class="cls-5" points="91.1 145.77 91.12 137.51 77.23 129.48 77.2 137.75 91.1 145.77"/>
            <polygon class="cls-12" points="132.79 255.02 205.64 212.68 205.81 154.26 132.96 196.59 132.79 255.02"/>
            <path class="cls-2" d="M81.58,213.42v5.62s-46.53-26.86-46.53-26.86l-.02,6.39,69.73,40.26.02-7.32.12-41.67,20.7,11.95-.12,41.67-.02,7.33,7.33,4.23.16-58.42-5.65-3.26-.02,5.51-25.76-14.88v-5.51s-20.26-11.7-20.26-11.7v.3l-.07,25.04c-.07,4.16-2.21,6.55-5.29,6.52l-.04,11.51,5.71,3.29Z"/>
            <polygon class="cls-5" points="91.18 117.69 77.28 109.67 77.24 123.43 91.14 131.46 91.18 117.69"/>
            <polygon class="cls-4" points="101.59 164.14 101.54 178.45 101.53 183.97 127.29 198.84 127.31 193.33 127.35 179.02 101.59 164.14"/>
            <polygon class="cls-5" points="122.87 164.11 122.89 155.85 109 147.83 108.98 156.1 122.87 164.11"/>
            <polygon class="cls-5" points="122.95 136.03 109.07 128.01 109.02 141.78 122.91 149.8 122.95 136.03"/>
            <path class="cls-16" d="M132.96,196.59l-5.65-3.26.04-14.32-25.76-14.88-.05,14.31-20.27-11.7.04-17.25-46.07-26.6.16-59.29,97.77,56.44-.22,76.55ZM45.47,105.09l13.89,8.03.04-13.77-13.9-8.02-.04,13.77M77.24,123.43l13.89,8.03.04-13.77-13.89-8.02-.04,13.76M109.02,141.78l13.89,8.02.04-13.77-13.89-8.02-.04,13.77M45.43,119.41l13.9,8.02.02-8.26-13.89-8.03-.03,8.27M77.2,137.75l13.89,8.02.03-8.27-13.89-8.02-.03,8.27M108.98,156.1l13.89,8.02.03-8.26-13.89-8.02-.02,8.26"/>
            <polygon class="cls-7" points="132.96 196.59 205.81 154.26 206.03 77.71 133.18 120.05 132.96 196.59"/>
            <g class="cls-6">
              <polygon class="cls-17" points="88.71 42.34 161.56 0 108.26 21.27 35.41 63.6 88.71 42.34"/>
              <polygon class="cls-9" points="133.18 120.05 206.03 77.71 161.56 0 88.71 42.34 133.18 120.05"/>
              <polygon class="cls-1" points="88.71 42.34 35.41 63.6 133.18 120.05 88.71 42.34"/>
              <polygon class="cls-5" points="83.3 59.98 62.61 68.24 100.57 90.15 83.3 59.98"/>
            </g>
          </g>
          <line class="cls-11" x1="167.64" y1="10.61" x2="95.23" y2="53.73"/>
          <line class="cls-11" x1="173.05" y1="19.74" x2="100.64" y2="62.85"/>
          <line class="cls-11" x1="178.47" y1="28.86" x2="106.06" y2="71.98"/>
          <line class="cls-11" x1="183.88" y1="37.98" x2="111.48" y2="81.1"/>
          <line class="cls-11" x1="189.3" y1="47.1" x2="116.89" y2="90.23"/>
          <line class="cls-11" x1="194.71" y1="56.23" x2="122.31" y2="99.35"/>
          <line class="cls-11" x1="200.13" y1="65.35" x2="127.72" y2="108.47"/>
          <line class="cls-11" x1="205.55" y1="74.48" x2="133.14" y2="117.59"/>
        </g>
        <polygon class="cls-8" points="46.15 261.41 83.82 283.3 133.14 255.28 95.47 233.38 46.15 261.41"/>
        <polygon class="cls-13" points="90.43 287.14 118.88 270.8 118.9 263.37 84.14 283.35 90.43 287.14"/>
        <polygon class="cls-5" points="38.48 174.62 38.8 188.72 75.87 210.12 75.58 184.87 36.84 166.98 38.48 174.62"/>
        <g>
          <path class="cls-1" d="M23.52,158.68c0,.06,0,.11,0,.16.06,5.96,4.24,13.14,9.41,16.13.7.4,1.39.71,2.06.93,1.39.45,2.66.47,3.75.13,2.18-.7,3.6-2.91,3.66-6.29,0-.05,0-.1,0-.16l-18.8-10.85-.08-.04Z"/>
          <path class="cls-1" d="M42.87,169.86v.16c.07,5.96,4.25,13.14,9.41,16.12,5.16,2.99,9.37.64,9.46-5.22,0-.06,0-.11,0-.17l-18.88-10.89Z"/>
          <path class="cls-1" d="M62.23,181.03v.16c.06,5.96,4.24,13.14,9.4,16.12,1.5.86,2.92,1.28,4.18,1.29,3.08.04,5.22-2.35,5.29-6.52v-.17l-18.87-10.89Z"/>
          <polygon class="cls-1" points="35.14 122.89 35.09 140.45 47.48 147.6 47.91 147.85 64.19 157.25 64.6 157.49 81.17 167.05 81.17 166.75 81.22 149.5 35.14 122.89"/>
          <polygon class="cls-9" points="81.1 192.09 81.17 166.75 35.09 140.45 23.52 158.68 81.1 192.09"/>
          <line class="cls-10" x1="61.8" y1="181.18" x2="66.1" y2="158.15"/>
          <line class="cls-10" x1="42.57" y1="169.99" x2="53.14" y2="150.75"/>
        </g>
      </g>
    </g>
  </g>
</svg>