<?xml version="1.0" encoding="UTF-8"?>
<svg id="_레이어_2" data-name="레이어 2" xmlns="http://www.w3.org/2000/svg" viewBox="0 0 100.33 219.73">
  <defs>
    <style>
      .cls-1 {
        fill: #eedcd6;
      }

      .cls-2 {
        fill: #ed6a56;
      }

      .cls-3 {
        fill: #d1d3d4;
      }

      .cls-4 {
        fill: #f1efee;
      }

      .cls-5 {
        fill: #955442;
      }

      .cls-6 {
        fill: #f5ba3d;
      }

      .cls-7 {
        fill: #f3a368;
      }

      .cls-8 {
        fill: #d8b5ab;
      }

      .cls-9 {
        fill: #e98b38;
      }

      .cls-10 {
        fill: #f8eeeb;
      }

      .cls-11 {
        fill: #ba8c7f;
      }

      .cls-12 {
        fill: #533813;
      }

      .cls-13 {
        fill: #7eafd0;
      }

      .cls-14 {
        fill: #e45c26;
      }
    </style>
  </defs>
  <g id="_빌딩-12" data-name="빌딩-12">
    <g>
      <polygon class="cls-3" points="83.86 176.71 53.36 158.98 57.84 156.39 88.35 174.12 83.86 176.71"/>
      <polygon class="cls-4" points="34.97 208.73 4.46 191 55.64 161.45 86.15 179.18 34.97 208.73"/>
      <polygon class="cls-3" points="72.64 183.19 42.13 165.46 46.62 162.87 77.13 180.6 72.64 183.19"/>
      <polygon class="cls-3" points="88.35 174.12 57.84 156.39 57.77 131.64 88.28 149.37 88.35 174.12"/>
      <polygon class="cls-13" points="83.86 176.71 53.36 158.98 53.28 134.23 83.79 151.96 83.86 176.71"/>
      <polygon class="cls-13" points="83.79 151.96 53.28 134.23 57.77 131.64 88.28 149.37 83.79 151.96"/>
      <polygon class="cls-3" points="61.43 189.66 30.92 171.93 35.41 169.34 65.92 187.07 61.43 189.66"/>
      <polygon class="cls-3" points="77.13 180.6 46.62 162.87 46.55 138.12 77.06 155.85 77.13 180.6"/>
      <polygon class="cls-13" points="72.64 183.19 42.13 165.46 42.06 140.71 72.57 158.44 72.64 183.19"/>
      <polygon class="cls-13" points="72.57 158.44 42.06 140.71 46.55 138.12 77.06 155.85 72.57 158.44"/>
      <polygon class="cls-3" points="50.21 196.14 19.7 178.41 24.19 175.82 54.69 193.55 50.21 196.14"/>
      <polygon class="cls-3" points="65.92 187.07 35.41 169.34 35.34 144.6 65.85 162.32 65.92 187.07"/>
      <polygon class="cls-13" points="61.36 164.92 30.85 147.19 35.34 144.6 65.85 162.32 61.36 164.92"/>
      <polygon class="cls-13" points="61.43 189.66 30.92 171.93 30.85 147.19 61.36 164.92 61.43 189.66"/>
      <polygon class="cls-3" points="38.99 202.62 8.48 184.89 12.97 182.3 43.48 200.02 38.99 202.62"/>
      <polygon class="cls-3" points="54.69 193.55 24.19 175.82 24.12 151.07 54.62 168.8 54.69 193.55"/>
      <polygon class="cls-13" points="50.14 171.39 19.63 153.66 24.12 151.07 54.62 168.8 50.14 171.39"/>
      <polygon class="cls-13" points="50.21 196.14 19.7 178.41 19.63 153.66 50.14 171.39 50.21 196.14"/>
      <polygon class="cls-3" points="43.48 200.02 12.97 182.3 12.9 157.55 43.41 175.28 43.48 200.02"/>
      <polygon class="cls-13" points="38.99 202.62 8.48 184.89 8.41 160.14 38.92 177.87 38.99 202.62"/>
      <polygon class="cls-13" points="38.92 177.87 8.41 160.14 12.9 157.55 43.41 175.28 38.92 177.87"/>
      <polygon class="cls-9" points="100.23 140.65 69.72 122.92 60.93 128 61 128.04 9.86 157.91 40.37 175.64 98.53 141.67 98.5 141.65 100.23 140.65"/>
      <polygon class="cls-4" points="73.45 149.16 42.94 131.43 47.43 128.83 77.94 146.56 73.45 149.16"/>
      <polygon class="cls-6" points="73.43 144 42.93 126.27 47.41 123.68 77.92 141.41 73.43 144"/>
      <polygon class="cls-4" points="77.94 146.56 47.43 128.83 47.41 123.68 77.92 141.41 77.94 146.56"/>
      <polygon class="cls-6" points="77.92 141.41 77.94 146.56 73.45 149.16 73.43 144 77.92 141.41"/>
      <polygon class="cls-6" points="73.45 149.16 42.94 131.43 42.93 126.27 73.43 144 73.45 149.16"/>
      <polygon class="cls-4" points="73.42 137.3 42.91 119.57 47.4 116.98 77.9 134.71 73.42 137.3"/>
      <polygon class="cls-12" points="73.4 132.14 42.89 114.41 47.38 111.82 77.89 129.55 73.4 132.14"/>
      <polygon class="cls-4" points="77.9 134.71 47.4 116.98 47.38 111.82 77.89 129.55 77.9 134.71"/>
      <polygon class="cls-4" points="62.23 155.63 31.72 137.9 36.21 135.31 66.72 153.04 62.23 155.63"/>
      <polygon class="cls-6" points="62.21 150.48 31.71 132.75 36.19 130.16 66.7 147.89 62.21 150.48"/>
      <polygon class="cls-4" points="66.72 153.04 36.21 135.31 36.19 130.16 66.7 147.89 66.72 153.04"/>
      <polygon class="cls-12" points="73.42 137.3 42.91 119.57 42.89 114.41 73.4 132.14 73.42 137.3"/>
      <polygon class="cls-6" points="66.7 147.89 66.72 153.04 62.23 155.63 62.21 150.48 66.7 147.89"/>
      <polygon class="cls-6" points="62.23 155.63 31.72 137.9 31.71 132.75 62.21 150.48 62.23 155.63"/>
      <polygon class="cls-4" points="73.38 125.44 42.87 107.71 47.36 105.12 77.87 122.85 73.38 125.44"/>
      <polygon class="cls-4" points="77.87 122.85 47.36 105.12 47.35 99.96 77.86 117.69 77.87 122.85"/>
      <polygon class="cls-4" points="62.2 143.78 31.69 126.05 36.18 123.45 66.68 141.19 62.2 143.78"/>
      <polygon class="cls-6" points="62.18 138.62 31.67 120.89 36.16 118.3 66.67 136.03 62.18 138.62"/>
      <polygon class="cls-4" points="66.68 141.19 36.18 123.45 36.16 118.3 66.67 136.03 66.68 141.19"/>
      <polygon class="cls-4" points="51.01 162.11 20.5 144.38 24.99 141.79 55.5 159.52 51.01 162.11"/>
      <polygon class="cls-4" points="55.5 159.52 24.99 141.79 24.98 136.63 55.49 154.36 55.5 159.52"/>
      <polygon class="cls-6" points="73.38 125.44 42.87 107.71 42.86 102.55 73.37 120.28 73.38 125.44"/>
      <polygon class="cls-6" points="77.86 117.69 77.87 122.85 73.38 125.44 73.37 120.28 77.86 117.69"/>
      <polygon class="cls-6" points="73.37 120.28 42.86 102.55 47.35 99.96 77.86 117.69 73.37 120.28"/>
      <polygon class="cls-6" points="62.2 143.78 31.69 126.05 31.67 120.89 62.18 138.62 62.2 143.78"/>
      <polygon class="cls-6" points="66.67 136.03 66.68 141.19 62.2 143.78 62.18 138.62 66.67 136.03"/>
      <polygon class="cls-6" points="51 156.95 20.49 139.22 24.98 136.63 55.49 154.36 51 156.95"/>
      <polygon class="cls-6" points="51.01 162.11 20.5 144.38 20.49 139.22 51 156.95 51.01 162.11"/>
      <polygon class="cls-6" points="55.49 154.36 55.5 159.52 51.01 162.11 51 156.95 55.49 154.36"/>
      <polygon class="cls-4" points="73.35 113.57 42.84 95.85 47.33 93.25 77.84 110.98 73.35 113.57"/>
      <polygon class="cls-6" points="73.33 108.42 42.83 90.69 47.31 88.1 77.82 105.83 73.33 108.42"/>
      <polygon class="cls-4" points="77.84 110.98 47.33 93.25 47.31 88.1 77.82 105.83 77.84 110.98"/>
      <polygon class="cls-4" points="62.16 131.92 31.65 114.19 36.14 111.6 66.65 129.33 62.16 131.92"/>
      <polygon class="cls-4" points="66.65 129.33 36.14 111.6 36.13 106.44 66.64 124.17 66.65 129.33"/>
      <polygon class="cls-4" points="50.98 150.25 20.47 132.52 24.96 129.93 55.47 147.66 50.98 150.25"/>
      <polygon class="cls-4" points="55.47 147.66 24.96 129.93 24.95 124.77 55.45 142.5 55.47 147.66"/>
      <polygon class="cls-4" points="39.79 168.59 9.28 150.86 13.77 148.27 44.28 166 39.79 168.59"/>
      <polygon class="cls-4" points="44.28 166 13.77 148.27 13.76 143.11 44.27 160.84 44.28 166"/>
      <polygon class="cls-6" points="73.35 113.57 42.84 95.85 42.83 90.69 73.33 108.42 73.35 113.57"/>
      <polygon class="cls-6" points="62.15 126.76 31.64 109.03 36.13 106.44 66.64 124.17 62.15 126.76"/>
      <polygon class="cls-6" points="62.16 131.92 31.65 114.19 31.64 109.03 62.15 126.76 62.16 131.92"/>
      <polygon class="cls-6" points="66.64 124.17 66.65 129.33 62.16 131.92 62.15 126.76 66.64 124.17"/>
      <polygon class="cls-2" points="50.96 145.09 20.46 127.36 24.95 124.77 55.45 142.5 50.96 145.09"/>
      <polygon class="cls-2" points="50.98 150.25 20.47 132.52 20.46 127.36 50.96 145.09 50.98 150.25"/>
      <polygon class="cls-6" points="39.79 168.59 9.28 150.86 9.27 145.7 39.78 163.43 39.79 168.59"/>
      <polygon class="cls-6" points="44.27 160.84 44.28 166 39.79 168.59 39.78 163.43 44.27 160.84"/>
      <polygon class="cls-6" points="39.78 163.43 9.27 145.7 13.76 143.11 44.27 160.84 39.78 163.43"/>
      <polygon class="cls-4" points="73.32 101.72 42.81 83.99 47.29 81.39 77.8 99.12 73.32 101.72"/>
      <polygon class="cls-6" points="73.3 96.56 42.79 78.83 47.28 76.24 77.79 93.97 73.3 96.56"/>
      <polygon class="cls-4" points="77.8 99.12 47.29 81.39 47.28 76.24 77.79 93.97 77.8 99.12"/>
      <polygon class="cls-4" points="62.13 120.05 31.62 102.32 36.11 99.73 66.62 117.46 62.13 120.05"/>
      <polygon class="cls-4" points="66.62 117.46 36.11 99.73 36.09 94.58 66.6 112.31 66.62 117.46"/>
      <polygon class="cls-4" points="50.95 138.39 20.44 120.66 24.93 118.07 55.43 135.8 50.95 138.39"/>
      <polygon class="cls-4" points="55.43 135.8 24.93 118.07 24.91 112.91 55.42 130.64 55.43 135.8"/>
      <polygon class="cls-4" points="39.76 156.73 9.25 139 13.74 136.41 44.25 154.14 39.76 156.73"/>
      <polygon class="cls-4" points="44.25 154.14 13.74 136.41 13.72 131.25 44.23 148.98 44.25 154.14"/>
      <polygon class="cls-6" points="77.79 93.97 77.8 99.12 73.32 101.72 73.3 96.56 77.79 93.97"/>
      <polygon class="cls-6" points="73.32 101.72 42.81 83.99 42.79 78.83 73.3 96.56 73.32 101.72"/>
      <polygon class="cls-6" points="62.13 120.05 31.62 102.32 31.6 97.17 62.11 114.9 62.13 120.05"/>
      <polygon class="cls-6" points="66.6 112.31 66.62 117.46 62.13 120.05 62.11 114.9 66.6 112.31"/>
      <polygon class="cls-6" points="62.11 114.9 31.6 97.17 36.09 94.58 66.6 112.31 62.11 114.9"/>
      <polygon class="cls-6" points="50.95 138.39 20.44 120.66 20.42 115.51 50.93 133.24 50.95 138.39"/>
      <polygon class="cls-6" points="50.93 133.24 20.42 115.51 24.91 112.91 55.42 130.64 50.93 133.24"/>
      <polygon class="cls-6" points="55.42 130.64 55.43 135.8 50.95 138.39 50.93 133.24 55.42 130.64"/>
      <polygon class="cls-6" points="39.75 151.57 9.24 133.84 13.72 131.25 44.23 148.98 39.75 151.57"/>
      <polygon class="cls-6" points="39.76 156.73 9.25 139 9.24 133.84 39.75 151.57 39.76 156.73"/>
      <polygon class="cls-4" points="73.28 89.86 42.77 72.13 47.26 69.54 77.77 87.27 73.28 89.86"/>
      <polygon class="cls-2" points="73.27 84.71 42.76 66.98 47.25 64.39 77.76 82.11 73.27 84.71"/>
      <polygon class="cls-4" points="77.77 87.27 47.26 69.54 47.25 64.39 77.76 82.11 77.77 87.27"/>
      <polygon class="cls-4" points="62.09 108.19 31.59 90.46 36.07 87.87 66.58 105.6 62.09 108.19"/>
      <polygon class="cls-6" points="62.08 103.04 31.57 85.31 36.06 82.72 66.57 100.45 62.08 103.04"/>
      <polygon class="cls-4" points="66.58 105.6 36.07 87.87 36.06 82.72 66.57 100.45 66.58 105.6"/>
      <polygon class="cls-4" points="50.91 126.53 20.4 108.8 24.89 106.21 55.4 123.94 50.91 126.53"/>
      <polygon class="cls-4" points="55.4 123.94 24.89 106.21 24.88 101.06 55.39 118.79 55.4 123.94"/>
      <polygon class="cls-4" points="39.73 144.87 9.22 127.14 13.7 124.55 44.21 142.28 39.73 144.87"/>
      <polygon class="cls-4" points="44.21 142.28 13.7 124.55 13.69 119.39 44.2 137.12 44.21 142.28"/>
      <polygon class="cls-2" points="73.28 89.86 42.77 72.13 42.76 66.98 73.27 84.71 73.28 89.86"/>
      <polygon class="cls-2" points="77.76 82.11 77.77 87.27 73.28 89.86 73.27 84.71 77.76 82.11"/>
      <polygon class="cls-6" points="62.09 108.19 31.59 90.46 31.57 85.31 62.08 103.04 62.09 108.19"/>
      <polygon class="cls-6" points="55.39 118.79 55.4 123.94 50.91 126.53 50.9 121.38 55.39 118.79"/>
      <polygon class="cls-6" points="50.9 121.38 20.39 103.65 24.88 101.06 55.39 118.79 50.9 121.38"/>
      <polygon class="cls-6" points="50.91 126.53 20.4 108.8 20.39 103.65 50.9 121.38 50.91 126.53"/>
      <polygon class="cls-6" points="39.71 139.71 9.2 121.98 13.69 119.39 44.2 137.12 39.71 139.71"/>
      <polygon class="cls-6" points="44.2 137.12 44.21 142.28 39.73 144.87 39.71 139.71 44.2 137.12"/>
      <polygon class="cls-6" points="39.73 144.87 9.22 127.14 9.2 121.98 39.71 139.71 39.73 144.87"/>
      <polygon class="cls-4" points="73.25 78 42.74 60.27 47.23 57.68 77.74 75.41 73.25 78"/>
      <polygon class="cls-6" points="73.23 72.84 42.72 55.11 47.21 52.52 77.72 70.25 73.23 72.84"/>
      <polygon class="cls-4" points="77.74 75.41 47.23 57.68 47.21 52.52 77.72 70.25 77.74 75.41"/>
      <polygon class="cls-4" points="62.06 96.34 31.55 78.61 36.04 76.01 66.55 93.75 62.06 96.34"/>
      <polygon class="cls-6" points="62.05 91.19 31.54 73.45 36.02 70.86 66.53 88.59 62.05 91.19"/>
      <polygon class="cls-4" points="66.55 93.75 36.04 76.01 36.02 70.86 66.53 88.59 66.55 93.75"/>
      <polygon class="cls-4" points="50.88 114.67 20.37 96.94 24.86 94.35 55.37 112.08 50.88 114.67"/>
      <polygon class="cls-4" points="55.37 112.08 24.86 94.35 24.84 89.2 55.35 106.93 55.37 112.08"/>
      <polygon class="cls-4" points="39.69 133.01 9.18 115.28 13.67 112.69 44.18 130.42 39.69 133.01"/>
      <polygon class="cls-4" points="44.18 130.42 13.67 112.69 13.66 107.53 44.17 125.26 44.18 130.42"/>
      <polygon class="cls-6" points="77.72 70.25 77.74 75.41 73.25 78 73.23 72.84 77.72 70.25"/>
      <polygon class="cls-6" points="73.25 78 42.74 60.27 42.72 55.11 73.23 72.84 73.25 78"/>
      <polygon class="cls-6" points="66.53 88.59 66.55 93.75 62.06 96.34 62.05 91.19 66.53 88.59"/>
      <polygon class="cls-6" points="62.06 96.34 31.55 78.61 31.54 73.45 62.05 91.19 62.06 96.34"/>
      <polygon class="cls-6" points="50.88 114.67 20.37 96.94 20.35 91.79 50.86 109.52 50.88 114.67"/>
      <polygon class="cls-6" points="50.86 109.52 20.35 91.79 24.84 89.2 55.35 106.93 50.86 109.52"/>
      <polygon class="cls-2" points="39.69 133.01 9.18 115.28 9.17 110.13 39.68 127.86 39.69 133.01"/>
      <polygon class="cls-2" points="39.68 127.86 9.17 110.13 13.66 107.53 44.17 125.26 39.68 127.86"/>
      <polygon class="cls-4" points="73.21 66.14 42.71 48.41 47.19 45.82 77.7 63.55 73.21 66.14"/>
      <polygon class="cls-12" points="73.2 60.98 42.69 43.25 47.18 40.66 77.69 58.39 73.2 60.98"/>
      <polygon class="cls-4" points="77.7 63.55 47.19 45.82 47.18 40.66 77.69 58.39 77.7 63.55"/>
      <polygon class="cls-4" points="62.03 84.48 31.52 66.75 36.01 64.16 66.51 81.89 62.03 84.48"/>
      <polygon class="cls-6" points="62.01 79.32 31.5 61.59 35.99 59 66.5 76.73 62.01 79.32"/>
      <polygon class="cls-4" points="66.51 81.89 36.01 64.16 35.99 59 66.5 76.73 66.51 81.89"/>
      <polygon class="cls-4" points="50.85 102.81 20.34 85.08 24.82 82.49 55.33 100.22 50.85 102.81"/>
      <polygon class="cls-4" points="55.33 100.22 24.82 82.49 24.81 77.34 55.32 95.07 55.33 100.22"/>
      <polygon class="cls-4" points="39.66 121.15 9.15 103.42 13.64 100.83 44.15 118.56 39.66 121.15"/>
      <polygon class="cls-4" points="44.15 118.56 13.64 100.83 13.62 95.68 44.13 113.41 44.15 118.56"/>
      <polygon class="cls-12" points="73.21 66.14 42.71 48.41 42.69 43.25 73.2 60.98 73.21 66.14"/>
      <polygon class="cls-6" points="62.03 84.48 31.52 66.75 31.5 61.59 62.01 79.32 62.03 84.48"/>
      <polygon class="cls-6" points="50.85 102.81 20.34 85.08 20.32 79.93 50.83 97.66 50.85 102.81"/>
      <polygon class="cls-6" points="50.83 97.66 20.32 79.93 24.81 77.34 55.32 95.07 50.83 97.66"/>
      <polygon class="cls-6" points="39.66 121.15 9.15 103.42 9.13 98.27 39.64 116 39.66 121.15"/>
      <polygon class="cls-6" points="44.13 113.41 44.15 118.56 39.66 121.15 39.64 116 44.13 113.41"/>
      <polygon class="cls-6" points="39.64 116 9.13 98.27 13.62 95.68 44.13 113.41 39.64 116"/>
      <polygon class="cls-4" points="73.18 54.28 42.67 36.55 47.16 33.96 77.67 51.69 73.18 54.28"/>
      <polygon class="cls-6" points="73.17 49.12 42.66 31.4 47.15 28.8 77.65 46.53 73.17 49.12"/>
      <polygon class="cls-4" points="77.67 51.69 47.16 33.96 47.15 28.8 77.65 46.53 77.67 51.69"/>
      <polygon class="cls-4" points="61.99 72.62 31.48 54.89 35.97 52.3 66.48 70.03 61.99 72.62"/>
      <polygon class="cls-6" points="61.98 67.46 31.47 49.73 35.96 47.14 66.47 64.87 61.98 67.46"/>
      <polygon class="cls-4" points="66.48 70.03 35.97 52.3 35.96 47.14 66.47 64.87 66.48 70.03"/>
      <polygon class="cls-4" points="50.81 90.95 20.3 73.22 24.79 70.63 55.3 88.36 50.81 90.95"/>
      <polygon class="cls-4" points="55.3 88.36 24.79 70.63 24.78 65.47 55.29 83.2 55.3 88.36"/>
      <polygon class="cls-4" points="39.62 109.29 9.12 91.56 13.6 88.97 44.11 106.7 39.62 109.29"/>
      <polygon class="cls-4" points="44.11 106.7 13.6 88.97 13.59 83.82 44.1 101.55 44.11 106.7"/>
      <polygon class="cls-6" points="73.18 54.28 42.67 36.55 42.66 31.4 73.17 49.12 73.18 54.28"/>
      <polygon class="cls-6" points="77.65 46.53 77.67 51.69 73.18 54.28 73.17 49.12 77.65 46.53"/>
      <polygon class="cls-6" points="61.99 72.62 31.48 54.89 31.47 49.73 61.98 67.46 61.99 72.62"/>
      <polygon class="cls-6" points="66.47 64.87 66.48 70.03 61.99 72.62 61.98 67.46 66.47 64.87"/>
      <polygon class="cls-6" points="50.81 90.95 20.3 73.22 20.29 68.07 50.8 85.8 50.81 90.95"/>
      <polygon class="cls-6" points="50.8 85.8 20.29 68.07 24.78 65.47 55.29 83.2 50.8 85.8"/>
      <polygon class="cls-6" points="55.29 83.2 55.3 88.36 50.81 90.95 50.8 85.8 55.29 83.2"/>
      <polygon class="cls-12" points="39.62 109.29 9.12 91.56 9.1 86.41 39.61 104.14 39.62 109.29"/>
      <polygon class="cls-12" points="39.61 104.14 9.1 86.41 13.59 83.82 44.1 101.55 39.61 104.14"/>
      <polygon class="cls-4" points="73.15 42.42 42.64 24.69 47.13 22.1 77.64 39.83 73.15 42.42"/>
      <polygon class="cls-4" points="77.64 39.83 47.13 22.1 47.11 16.95 77.62 34.68 77.64 39.83"/>
      <polygon class="cls-4" points="61.96 60.76 31.45 43.03 35.94 40.44 66.45 58.17 61.96 60.76"/>
      <polygon class="cls-6" points="61.95 55.6 31.44 37.87 35.92 35.28 66.43 53.01 61.95 55.6"/>
      <polygon class="cls-4" points="66.45 58.17 35.94 40.44 35.92 35.28 66.43 53.01 66.45 58.17"/>
      <polygon class="cls-4" points="50.78 79.09 20.27 61.36 24.76 58.77 55.27 76.5 50.78 79.09"/>
      <polygon class="cls-4" points="55.27 76.5 24.76 58.77 24.74 53.62 55.25 71.35 55.27 76.5"/>
      <polygon class="cls-4" points="39.59 97.43 9.08 79.7 13.57 77.11 44.08 94.84 39.59 97.43"/>
      <polygon class="cls-4" points="44.08 94.84 13.57 77.11 13.55 71.95 44.06 89.68 44.08 94.84"/>
      <polygon class="cls-6" points="73.15 42.42 42.64 24.69 42.62 19.54 73.13 37.27 73.15 42.42"/>
      <polygon class="cls-6" points="77.62 34.68 77.64 39.83 73.15 42.42 73.13 37.27 77.62 34.68"/>
      <polygon class="cls-6" points="73.13 37.27 42.62 19.54 47.11 16.95 77.62 34.68 73.13 37.27"/>
      <polygon class="cls-6" points="61.96 60.76 31.45 43.03 31.44 37.87 61.95 55.6 61.96 60.76"/>
      <polygon class="cls-2" points="50.78 79.09 20.27 61.36 20.26 56.21 50.76 73.94 50.78 79.09"/>
      <polygon class="cls-2" points="55.25 71.35 55.27 76.5 50.78 79.09 50.76 73.94 55.25 71.35"/>
      <polygon class="cls-2" points="50.76 73.94 20.26 56.21 24.74 53.62 55.25 71.35 50.76 73.94"/>
      <polygon class="cls-6" points="39.59 97.43 9.08 79.7 9.07 74.54 39.57 92.27 39.59 97.43"/>
      <polygon class="cls-6" points="39.57 92.27 9.07 74.54 13.55 71.95 44.06 89.68 39.57 92.27"/>
      <polygon class="cls-6" points="44.06 89.68 44.08 94.84 39.59 97.43 39.57 92.27 44.06 89.68"/>
      <polygon class="cls-4" points="61.93 48.9 31.42 31.17 35.91 28.58 66.42 46.31 61.93 48.9"/>
      <polygon class="cls-2" points="61.91 43.75 31.4 26.02 35.89 23.42 66.4 41.15 61.91 43.75"/>
      <polygon class="cls-4" points="66.42 46.31 35.91 28.58 35.89 23.42 66.4 41.15 66.42 46.31"/>
      <polygon class="cls-4" points="50.74 67.24 20.24 49.51 24.72 46.92 55.23 64.65 50.74 67.24"/>
      <polygon class="cls-4" points="55.23 64.65 24.72 46.92 24.71 41.76 55.22 59.49 55.23 64.65"/>
      <polygon class="cls-4" points="39.56 85.57 9.05 67.84 13.54 65.25 44.05 82.98 39.56 85.57"/>
      <polygon class="cls-4" points="44.05 82.98 13.54 65.25 13.52 60.09 44.03 77.83 44.05 82.98"/>
      <polygon class="cls-2" points="61.93 48.9 31.42 31.17 31.4 26.02 61.91 43.75 61.93 48.9"/>
      <polygon class="cls-6" points="50.73 62.08 20.22 44.35 24.71 41.76 55.22 59.49 50.73 62.08"/>
      <polygon class="cls-6" points="55.22 59.49 55.23 64.65 50.74 67.24 50.73 62.08 55.22 59.49"/>
      <polygon class="cls-6" points="50.74 67.24 20.24 49.51 20.22 44.35 50.73 62.08 50.74 67.24"/>
      <polygon class="cls-6" points="39.56 85.57 9.05 67.84 9.03 62.69 39.54 80.42 39.56 85.57"/>
      <polygon class="cls-6" points="44.03 77.83 44.05 82.98 39.56 85.57 39.54 80.42 44.03 77.83"/>
      <polygon class="cls-6" points="39.54 80.42 9.03 62.69 13.52 60.09 44.03 77.83 39.54 80.42"/>
      <polygon class="cls-4" points="50.71 55.38 20.2 37.65 24.69 35.06 55.2 52.79 50.71 55.38"/>
      <polygon class="cls-4" points="55.2 52.79 24.69 35.06 24.68 29.9 55.19 47.63 55.2 52.79"/>
      <polygon class="cls-4" points="39.52 73.72 9.01 55.98 13.5 53.39 44.01 71.12 39.52 73.72"/>
      <polygon class="cls-4" points="44.01 71.12 13.5 53.39 13.49 48.24 44 65.97 44.01 71.12"/>
      <polygon class="cls-6" points="50.71 55.38 20.2 37.65 20.19 32.49 50.7 50.22 50.71 55.38"/>
      <polygon class="cls-6" points="55.19 47.63 55.2 52.79 50.71 55.38 50.7 50.22 55.19 47.63"/>
      <polygon class="cls-6" points="50.7 50.22 20.19 32.49 24.68 29.9 55.19 47.63 50.7 50.22"/>
      <polygon class="cls-12" points="44 65.97 44.01 71.12 39.52 73.72 39.51 68.56 44 65.97"/>
      <polygon class="cls-12" points="39.52 73.72 9.01 55.98 9 50.83 39.51 68.56 39.52 73.72"/>
      <polygon class="cls-12" points="39.51 68.56 9 50.83 13.49 48.24 44 65.97 39.51 68.56"/>
      <polygon class="cls-4" points="39.49 61.86 8.98 44.13 13.47 41.54 43.98 59.27 39.49 61.86"/>
      <polygon class="cls-4" points="43.98 59.27 13.47 41.54 13.45 36.38 43.96 54.11 43.98 59.27"/>
      <polygon class="cls-6" points="39.49 61.86 8.98 44.13 8.97 38.97 39.48 56.7 39.49 61.86"/>
      <polygon class="cls-6" points="39.48 56.7 8.97 38.97 13.45 36.38 43.96 54.11 39.48 56.7"/>
      <polygon class="cls-6" points="43.96 54.11 43.98 59.27 39.49 61.86 39.48 56.7 43.96 54.11"/>
      <path class="cls-1" d="M86.05,142.91l-51.19,29.55.1,36.27,51.19-29.55.02,8.69-55.19,31.86-.48-170.14,55.19-31.86.36,125.18ZM50.8,85.8v5.16s4.5-2.59,4.5-2.59v-5.16s-4.5,2.59-4.5,2.59M50.73,62.08v5.16s4.5-2.59,4.5-2.59v-5.16s-4.5,2.59-4.5,2.59M39.51,68.56v5.16s4.5-2.59,4.5-2.59l-.02-5.16-4.49,2.59M39.54,80.42v5.16s4.5-2.59,4.5-2.59v-5.16s-4.5,2.59-4.5,2.59M39.57,92.27l.02,5.16,4.49-2.59-.02-5.16-4.49,2.59M50.76,73.94v5.16s4.5-2.59,4.5-2.59v-5.16s-4.5,2.59-4.5,2.59M73.23,72.84l.02,5.16,4.49-2.59v-5.16s-4.5,2.59-4.5,2.59M73.2,60.98l.02,5.16,4.49-2.59-.02-5.16-4.49,2.59M73.17,49.12v5.16s4.5-2.59,4.5-2.59v-5.16s-4.5,2.59-4.5,2.59M62.01,79.32v5.16s4.5-2.59,4.5-2.59v-5.16s-4.5,2.59-4.5,2.59M61.98,67.46l.02,5.16,4.49-2.59v-5.16s-4.5,2.59-4.5,2.59M61.95,55.6v5.16s4.5-2.59,4.5-2.59l-.02-5.16-4.49,2.59M50.96,145.09l.02,5.16,4.49-2.59v-5.16s-4.5,2.59-4.5,2.59M50.93,133.24v5.16s4.5-2.59,4.5-2.59l-.02-5.16-4.49,2.59M51,156.95v5.16s4.5-2.59,4.5-2.59v-5.16s-4.5,2.59-4.5,2.59M39.75,151.57v5.16s4.5-2.59,4.5-2.59v-5.16s-4.5,2.59-4.5,2.59M39.71,139.71v5.16s4.5-2.59,4.5-2.59v-5.16s-4.5,2.59-4.5,2.59M39.48,56.7v5.16s4.5-2.59,4.5-2.59v-5.16s-4.5,2.59-4.5,2.59M50.7,50.22l.02,5.16,4.49-2.59v-5.16s-4.5,2.59-4.5,2.59M39.78,163.43v5.16s4.5-2.59,4.5-2.59l-.02-5.16-4.49,2.59M62.15,126.76l.02,5.16,4.49-2.59v-5.16s-4.5,2.59-4.5,2.59M73.13,37.27v5.16s4.5-2.59,4.5-2.59v-5.16s-4.5,2.59-4.5,2.59M73.37,120.28v5.16s4.5-2.59,4.5-2.59v-5.16s-4.5,2.59-4.5,2.59M73.4,132.14v5.16s4.5-2.59,4.5-2.59v-5.16s-4.5,2.59-4.5,2.59M73.43,144v5.16s4.5-2.59,4.5-2.59v-5.16s-4.5,2.59-4.5,2.59M61.91,43.75v5.16s4.5-2.59,4.5-2.59l-.02-5.16-4.49,2.59M62.18,138.62v5.16s4.5-2.59,4.5-2.59v-5.16s-4.5,2.59-4.5,2.59M62.21,150.48v5.16s4.5-2.59,4.5-2.59l-.02-5.16-4.49,2.59M50.86,109.52v5.15s4.5-2.59,4.5-2.59l-.02-5.15-4.49,2.59M50.83,97.66v5.15s4.5-2.59,4.5-2.59v-5.15s-4.5,2.59-4.5,2.59M39.64,116l.02,5.15,4.49-2.59v-5.15s-4.5,2.59-4.5,2.59M39.68,127.86v5.15s4.5-2.59,4.5-2.59v-5.15s-4.5,2.59-4.5,2.59M39.61,104.14l.02,5.15,4.49-2.59-.02-5.15-4.49,2.59M50.9,121.38v5.15s4.5-2.59,4.5-2.59v-5.15s-4.5,2.59-4.5,2.59M62.08,103.04v5.15s4.5-2.59,4.5-2.59l-.02-5.15-4.49,2.59M73.33,108.42v5.15s4.5-2.59,4.5-2.59v-5.15s-4.5,2.59-4.5,2.59M73.3,96.56v5.15s4.5-2.59,4.5-2.59v-5.15s-4.5,2.59-4.5,2.59M73.27,84.71l.02,5.15,4.49-2.59v-5.15s-4.5,2.59-4.5,2.59M62.11,114.9l.02,5.15,4.49-2.59-.02-5.15-4.49,2.59M62.05,91.19v5.15s4.5-2.59,4.5-2.59v-5.15s-4.5,2.59-4.5,2.59"/>
      <polygon class="cls-12" points="77.89 129.55 77.9 134.71 73.42 137.3 73.4 132.14 77.89 129.55"/>
      <polygon class="cls-6" points="77.82 105.83 77.84 110.98 73.35 113.57 73.33 108.42 77.82 105.83"/>
      <polygon class="cls-2" points="55.45 142.5 55.47 147.66 50.98 150.25 50.96 145.09 55.45 142.5"/>
      <polygon class="cls-6" points="44.23 148.98 44.25 154.14 39.76 156.73 39.75 151.57 44.23 148.98"/>
      <polygon class="cls-6" points="66.57 100.45 66.58 105.6 62.09 108.19 62.08 103.04 66.57 100.45"/>
      <polygon class="cls-6" points="55.35 106.93 55.37 112.08 50.88 114.67 50.86 109.52 55.35 106.93"/>
      <polygon class="cls-2" points="44.17 125.26 44.18 130.42 39.69 133.01 39.68 127.86 44.17 125.26"/>
      <polygon class="cls-12" points="77.69 58.39 77.7 63.55 73.21 66.14 73.2 60.98 77.69 58.39"/>
      <polygon class="cls-6" points="66.5 76.73 66.51 81.89 62.03 84.48 62.01 79.32 66.5 76.73"/>
      <polygon class="cls-6" points="55.32 95.07 55.33 100.22 50.85 102.81 50.83 97.66 55.32 95.07"/>
      <polygon class="cls-12" points="44.1 101.55 44.11 106.7 39.62 109.29 39.61 104.14 44.1 101.55"/>
      <polygon class="cls-6" points="66.43 53.01 66.45 58.17 61.96 60.76 61.95 55.6 66.43 53.01"/>
      <polygon class="cls-2" points="66.4 41.15 66.42 46.31 61.93 48.9 61.91 43.75 66.4 41.15"/>
      <polygon class="cls-8" points="30.99 219.73 .48 202 0 31.86 30.51 49.59 30.99 219.73"/>
      <polygon class="cls-10" points="30.51 49.59 0 31.86 55.19 0 85.69 17.73 30.51 49.59"/>
      <polygon class="cls-13" points="93.67 152.19 93.75 176.93 89.26 179.52 89.19 154.78 93.67 152.19"/>
      <path class="cls-7" d="M91.44,145.73l8.79-5.07.1,36.27-8.79,5.07-51.19,29.55-.1-36.27,51.18-29.55ZM93.75,176.93l-.07-24.75-4.49,2.59.07,24.75,4.49-2.59M82.52,183.41l-.07-24.75-4.49,2.59.07,24.75,4.49-2.59M48.87,202.84l-.07-24.74-4.49,2.59.07,24.75,4.49-2.59M71.31,189.89l-.07-24.75-4.49,2.59.07,24.75,4.49-2.59M60.09,196.37l-.07-24.75-4.48,2.59.07,24.75,4.48-2.59"/>
      <polygon class="cls-13" points="82.45 158.67 82.52 183.41 78.03 186 77.96 161.26 82.45 158.67"/>
      <polygon class="cls-13" points="71.24 165.14 71.31 189.89 66.82 192.48 66.75 167.73 71.24 165.14"/>
      <polygon class="cls-13" points="60.02 171.62 60.09 196.37 55.6 198.95 55.53 174.21 60.02 171.62"/>
      <polygon class="cls-13" points="48.8 178.1 48.87 202.84 44.38 205.43 44.31 180.69 48.8 178.1"/>
      <polygon class="cls-14" points="40.47 211.91 34.97 208.89 34.86 172.63 40.37 175.64 40.47 211.91"/>
      <polygon class="cls-6" points="9.93 134.53 9.92 139.68 14.41 142.27 14.42 137.12 9.93 134.53"/>
      <polygon class="cls-6" points="10 110.81 9.98 115.96 14.47 118.55 14.49 113.4 10 110.81"/>
      <polygon class="cls-6" points="10.07 87.09 10.05 92.24 14.54 94.83 14.55 89.68 10.07 87.09"/>
      <polygon class="cls-6" points="10.1 75.23 10.09 80.38 14.57 82.98 14.59 77.82 10.1 75.23"/>
      <polygon class="cls-12" points="10.13 63.37 10.12 68.53 14.61 71.12 14.62 65.96 10.13 63.37"/>
      <polygon class="cls-6" points="10.17 51.51 10.15 56.67 14.64 59.26 14.66 54.1 10.17 51.51"/>
      <polygon class="cls-6" points="9.9 146.38 9.88 151.54 14.37 154.13 14.39 148.98 9.9 146.38"/>
      <polygon class="cls-2" points="9.97 122.67 9.95 127.82 14.44 130.41 14.45 125.26 9.97 122.67"/>
      <polygon class="cls-12" points="10.03 98.95 10.02 104.1 14.51 106.69 14.52 101.54 10.03 98.95"/>
      <g>
        <polygon class="cls-11" points="20.99 177.76 6.22 169.17 6.33 205.43 6.92 205.78 21.05 197.52 20.99 177.76"/>
        <polygon class="cls-5" points="21.05 197.52 6.92 205.78 21.1 214.03 21.05 197.52"/>
      </g>
      <polygon class="cls-6" points="10.24 171.23 10.15 203.46 21.26 209.99 21.35 177.76 10.24 171.23"/>
    </g>
  </g>
</svg>