<?xml version="1.0" encoding="UTF-8"?>
<svg id="_레이어_2" data-name="레이어 2" xmlns="http://www.w3.org/2000/svg" viewBox="0 0 832.09 256.88">
  <defs>
    <style>
      .cls-1 {
        fill: #483318;
      }

      .cls-2 {
        fill: #f15f5a;
      }

      .cls-3 {
        fill: #ed1c24;
      }

      .cls-4 {
        fill: #bde1cf;
      }

      .cls-5 {
        fill: #f58e81;
      }

      .cls-6 {
        fill: #ffec5f;
      }

      .cls-7 {
        fill: #7bd3f7;
      }

      .cls-8 {
        fill: #fd0;
      }

      .cls-9 {
        fill: none;
        stroke: #ed1c24;
        stroke-width: 2.44px;
      }

      .cls-10 {
        fill: #b4e1e5;
      }

      .cls-11 {
        fill: #b35638;
      }
    </style>
  </defs>
  <g id="_빨간차" data-name="빨간차">
    <g>
      <path class="cls-4" d="M63.32,231.45c0,1.81-1.09,3.28-2.44,3.28s-2.44-1.47-2.44-3.28,1.09-3.28,2.44-3.28,2.44,1.47,2.44,3.28Z"/>
      <path class="cls-4" d="M26.88,252.23c0,1.81-1.22,3.28-2.72,3.28s-2.72-1.47-2.72-3.28,1.22-3.28,2.72-3.28,2.72,1.47,2.72,3.28Z"/>
      <polygon class="cls-8" points="69.59 224.17 69.6 227.77 65 230.42 65 229.57 64.99 226.83 68.86 224.6 69.59 224.17"/>
      <path class="cls-1" d="M64.41,229.91c-.13,2.02-1.55,4.39-3.28,5.39-1.73,1-3.16.28-3.3-1.6l1.26-.73c.13,1.08.99,1.48,2.03.88,1.04-.6,1.9-1.99,2.02-3.22l1.27-.73Z"/>
      <polygon class="cls-10" points="67.64 210.16 68.71 215.26 66.07 216.78 66.05 211.08 67.64 210.16"/>
      <polygon class="cls-5" points="20.24 236.36 1.45 225.44 29.17 209.43 47.97 220.36 20.24 236.36"/>
      <polygon class="cls-5" points="61.04 212.81 42.25 201.89 48.64 198.2 67.43 209.12 61.04 212.81"/>
      <polygon class="cls-11" points="62.76 221.76 62.78 226.83 47.88 235.44 47.86 230.36 62.76 221.76"/>
      <polygon class="cls-11" points="46.49 232.57 46.46 223.77 46.46 222.71 43.15 224.62 43.2 242.16 46.51 240.25 46.49 232.57"/>
      <polygon class="cls-10" points="46.02 226.05 46.03 232.47 43.62 233.87 43.6 227.44 46.02 226.05"/>
      <polygon class="cls-5" points="47.96 217.4 29.16 206.47 39.83 200.31 58.63 211.23 47.96 217.4"/>
      <polygon class="cls-3" points="47.97 220.36 29.17 209.43 29.16 206.47 47.96 217.4 47.97 220.36"/>
      <path class="cls-1" d="M27.83,251.03c-.12,2.02-1.55,4.39-3.28,5.39-1.73,1-3.16.28-3.3-1.6l1.27-.73c.13,1.08.99,1.49,2.03.89,1.04-.6,1.9-2,2.02-3.22l1.26-.73Z"/>
      <polygon class="cls-11" points="41.34 234.13 41.35 239.2 26.45 247.81 26.44 242.73 41.34 234.13"/>
      <polygon class="cls-3" points="18.83 256.23 .03 245.31 .03 243.83 18.82 254.75 18.83 256.23"/>
      <polygon class="cls-5" points="18.82 254.75 .03 243.83 0 236.43 18.8 247.36 18.82 254.75"/>
      <polygon class="cls-3" points="18.8 247.36 0 236.43 0 233.15 18.79 244.08 18.8 247.36"/>
      <polygon class="cls-10" points="22.73 236.09 22.74 241.8 18.79 244.08 20 237.67 22.73 236.09"/>
      <polygon class="cls-7" points="18.79 244.08 0 233.15 1.2 226.75 20 237.67 18.79 244.08"/>
      <polygon class="cls-3" points="20 237.67 1.2 226.75 1.45 225.44 20.24 236.36 20 237.67"/>
      <path class="cls-2" d="M68.86,224.6l-.02-8.77-.12-.57-2.64,1.53-.02-5.71,1.59-.92-.21-1.04-6.39,3.69-2.42-1.57-10.67,6.16v2.96s-27.71,16-27.71,16l-.25,1.31,2.73-1.58.02,5.71-3.95,2.28v3.28s.03,7.39.03,7.39v1.48s2.43-1.4,2.43-1.4l1.27-.73,1.06-.61,1.93-1.11,1.06-.61,1.26-.73,15.37-8.87-.05-17.54,3.31-1.91v1.06l.03,8.8.02,7.68,11.33-6.54,1.26-.73,1.06-.62,1.92-1.11,1.06-.61,1.27-.73.59-.34v-2.75s3.86-2.23,3.86-2.23ZM26.45,247.81v-5.07s14.89-8.6,14.89-8.6v5.07s-14.89,8.6-14.89,8.6ZM47.88,235.44v-5.07s14.89-8.6,14.89-8.6v5.07s-14.89,8.6-14.89,8.6Z"/>
      <path class="cls-6" d="M68.85,223.75v.85s.73-.42.73-.42l-.73-.42Z"/>
      <polygon class="cls-10" points="62.32 214.05 62.33 219.13 47.43 227.73 47.42 222.66 62.32 214.05"/>
      <polygon class="cls-10" points="40.89 226.43 40.9 231.5 26.01 240.1 25.99 235.03 40.89 226.43"/>
      <line class="cls-9" x1="3.66" y1="237.51" x2="3.66" y2="246.54"/>
      <line class="cls-9" x1="14.25" y1="243.58" x2="14.25" y2="252.62"/>
    </g>
    <g>
      <path class="cls-4" d="M825.82,33.26c0,1.81-1.09,3.28-2.44,3.28s-2.44-1.47-2.44-3.28,1.09-3.28,2.44-3.28,2.44,1.47,2.44,3.28Z"/>
      <path class="cls-4" d="M789.37,54.03c0,1.81-1.22,3.28-2.72,3.28s-2.72-1.47-2.72-3.28,1.22-3.28,2.72-3.28,2.72,1.47,2.72,3.28Z"/>
      <polygon class="cls-8" points="832.08 25.98 832.09 29.57 827.5 32.23 827.49 31.38 827.49 28.63 831.35 26.4 832.08 25.98"/>
      <path class="cls-1" d="M826.91,31.72c-.13,2.02-1.55,4.39-3.28,5.39-1.73,1-3.16.28-3.3-1.6l1.26-.73c.13,1.08.99,1.48,2.03.88,1.04-.6,1.9-1.99,2.02-3.22l1.27-.73Z"/>
      <polygon class="cls-10" points="830.14 11.96 831.2 17.06 828.56 18.59 828.54 12.88 830.14 11.96"/>
      <polygon class="cls-5" points="782.74 38.16 763.94 27.24 791.67 11.24 810.46 22.16 782.74 38.16"/>
      <polygon class="cls-5" points="823.54 14.61 804.74 3.69 811.13 0 829.93 10.92 823.54 14.61"/>
      <polygon class="cls-11" points="825.26 23.56 825.27 28.64 810.37 37.24 810.36 32.17 825.26 23.56"/>
      <polygon class="cls-11" points="808.98 34.37 808.96 25.57 808.96 24.51 805.65 26.42 805.7 43.96 809 42.05 808.98 34.37"/>
      <polygon class="cls-10" points="808.51 27.85 808.53 34.28 806.11 35.67 806.09 29.25 808.51 27.85"/>
      <polygon class="cls-5" points="810.45 19.2 791.66 8.28 802.33 2.12 821.12 13.04 810.45 19.2"/>
      <polygon class="cls-3" points="810.46 22.16 791.67 11.24 791.66 8.28 810.45 19.2 810.46 22.16"/>
      <path class="cls-1" d="M790.32,52.84c-.12,2.02-1.55,4.39-3.28,5.39s-3.16.28-3.3-1.6l1.27-.73c.13,1.08.99,1.49,2.03.89,1.04-.6,1.9-2,2.02-3.22l1.26-.73Z"/>
      <polygon class="cls-11" points="803.83 35.94 803.85 41.01 788.94 49.61 788.93 44.54 803.83 35.94"/>
      <polygon class="cls-3" points="781.32 58.04 762.53 47.12 762.53 45.63 781.32 56.56 781.32 58.04"/>
      <polygon class="cls-5" points="781.32 56.56 762.53 45.63 762.5 38.24 781.3 49.16 781.32 56.56"/>
      <polygon class="cls-3" points="781.3 49.16 762.5 38.24 762.49 34.96 781.29 45.88 781.3 49.16"/>
      <polygon class="cls-10" points="785.22 37.89 785.24 43.6 781.29 45.88 782.49 39.47 785.22 37.89"/>
      <polygon class="cls-7" points="781.29 45.88 762.49 34.96 763.7 28.55 782.49 39.47 781.29 45.88"/>
      <polygon class="cls-3" points="782.49 39.47 763.7 28.55 763.94 27.24 782.74 38.16 782.49 39.47"/>
      <path class="cls-2" d="M831.35,26.4l-.02-8.77-.12-.57-2.64,1.53-.02-5.71,1.59-.92-.21-1.04-6.39,3.69-2.42-1.57-10.67,6.16v2.96s-27.71,16-27.71,16l-.25,1.31,2.73-1.58.02,5.71-3.95,2.28v3.28s.03,7.39.03,7.39v1.48s2.43-1.4,2.43-1.4l1.27-.73,1.06-.61,1.93-1.11,1.06-.61,1.26-.73,15.37-8.87-.05-17.54,3.31-1.91v1.06l.03,8.8.02,7.68,11.33-6.54,1.26-.73,1.06-.62,1.92-1.11,1.06-.61,1.27-.73.59-.34v-2.75s3.86-2.23,3.86-2.23ZM788.94,49.61v-5.07s14.89-8.6,14.89-8.6v5.07s-14.89,8.6-14.89,8.6ZM810.37,37.24v-5.07s14.89-8.6,14.89-8.6v5.07s-14.89,8.6-14.89,8.6Z"/>
      <path class="cls-6" d="M831.35,25.55v.85s.73-.42.73-.42l-.73-.42Z"/>
      <polygon class="cls-10" points="824.82 15.86 824.83 20.93 809.93 29.54 809.91 24.46 824.82 15.86"/>
      <polygon class="cls-10" points="803.39 28.23 803.4 33.3 788.5 41.91 788.49 36.83 803.39 28.23"/>
      <line class="cls-9" x1="766.15" y1="39.31" x2="766.15" y2="48.35"/>
      <line class="cls-9" x1="776.75" y1="45.39" x2="776.75" y2="54.42"/>
    </g>
  </g>
</svg>