<?xml version="1.0" encoding="UTF-8"?>
<svg id="_레이어_2" data-name="레이어 2" xmlns="http://www.w3.org/2000/svg" viewBox="0 0 453.01 693.6">
  <defs>
    <style>
      .cls-1 {
        fill: #f1bf08;
      }

      .cls-2 {
        fill: #483318;
      }

      .cls-3 {
        fill: #64c298;
      }

      .cls-4 {
        fill: #231f20;
      }

      .cls-5 {
        fill: #fff4c1;
      }

      .cls-6 {
        fill: #0a3542;
      }

      .cls-7 {
        fill: #14b57a;
      }

      .cls-8 {
        fill: #f58e81;
      }

      .cls-9 {
        fill: #ffec5f;
      }

      .cls-10 {
        fill: #008a5f;
      }

      .cls-11 {
        fill: #e4d23b;
      }

      .cls-12 {
        fill: #006e52;
      }

      .cls-13 {
        fill: #64c8d0;
      }

      .cls-14 {
        fill: #fd0;
      }

      .cls-15 {
        fill: #b4e1e5;
      }

      .cls-16 {
        fill: #b0a67a;
      }
    </style>
  </defs>
  <g id="_자동차" data-name="자동차">
    <g>
      <polygon class="cls-11" points="453.01 12.74 453.01 14.62 452.34 15 452.33 13.12 453.01 12.74"/>
      <path class="cls-4" d="M448.96,16.34c.77-.44,1.4-.09,1.4.8,0,.88-.62,1.97-1.39,2.41-.77.44-1.4.09-1.4-.8,0-.88.62-1.97,1.39-2.41ZM448.97,18.51c.27-.15.49-.53.49-.84,0-.31-.22-.44-.49-.28-.27.16-.49.53-.49.84s.22.43.49.28"/>
      <path class="cls-16" d="M448.97,17.39c.27-.16.49-.03.49.28,0,.31-.21.69-.49.84-.27.16-.49.03-.49-.28s.22-.69.49-.84Z"/>
      <polygon class="cls-3" points="451.12 11.88 438.68 4.65 440.56 3.57 453 10.8 451.12 11.88"/>
      <polygon class="cls-6" points="449.49 14.08 449.49 14.79 448.24 15.51 448.24 14.8 449.49 14.08"/>
      <polygon class="cls-15" points="448.37 10.31 451.11 8.73 451.12 11.88 451.12 12.05 448.38 13.63 448.37 10.31"/>
      <polygon class="cls-6" points="443.42 17.58 443.42 18.3 442.17 19.02 442.16 18.3 443.42 17.58"/>
      <path class="cls-16" d="M439.85,22.37c.27-.15.49-.03.49.28,0,.31-.22.69-.49.84-.27.16-.49.03-.49-.28s.22-.69.49-.84Z"/>
      <path class="cls-4" d="M439.85,21.33c.77-.45,1.4-.09,1.4.8,0,.09,0,.19-.02.29-.11.82-.68,1.73-1.37,2.12-.69.4-1.26.15-1.37-.54-.01-.08-.02-.17-.02-.26,0-.89.62-1.97,1.39-2.41ZM439.86,23.49c.27-.15.49-.53.49-.84,0-.31-.22-.43-.49-.28-.27.15-.49.53-.49.84s.22.44.49.28"/>
      <polygon class="cls-15" points="443.85 16.25 443.84 12.92 447.6 10.75 447.61 14.08 443.85 16.25"/>
      <polygon class="cls-10" points="435.38 25.8 422.94 18.56 422.93 17.57 435.38 24.8 435.38 25.8"/>
      <polygon class="cls-3" points="435.37 20.98 422.92 13.75 427.11 11.33 439.56 18.56 435.37 20.98"/>
      <polygon class="cls-13" points="439.56 18.73 427.11 11.5 427.11 8.17 439.55 15.4 439.56 18.73"/>
      <polygon class="cls-15" points="439.56 18.73 439.55 15.4 443.07 13.37 443.08 16.69 439.56 18.73"/>
      <polygon class="cls-12" points="435.38 24.8 422.93 17.57 422.93 15.35 435.37 22.58 435.38 24.8"/>
      <polygon class="cls-11" points="436.14 22.14 436.15 24.35 435.38 24.8 435.37 22.58 436.14 22.14"/>
      <polygon class="cls-10" points="439.55 15.4 427.11 8.17 427.1 6.68 439.54 13.91 439.55 15.4"/>
      <polygon class="cls-3" points="439.54 13.91 427.1 6.68 438.66 0 451.11 7.23 439.54 13.91"/>
      <polygon class="cls-10" points="435.37 22.58 422.93 15.35 422.92 13.75 435.37 20.98 435.37 22.58"/>
      <path class="cls-7" d="M453.01,12.74l-.67.39v1.88s.68-.39.68-.39v1s-2.65,1.53-2.65,1.53c0-.89-.63-1.24-1.4-.8-.77.45-1.4,1.53-1.39,2.41l-6.33,3.66c.01-.1.02-.19.02-.29,0-.89-.63-1.25-1.4-.8-.77.44-1.39,1.52-1.39,2.41,0,.09,0,.18.02.26l-3.11,1.79v-1s.77-.44.77-.44v-2.22s-.78.44-.78.44v-1.61s4.18-2.42,4.18-2.42v.17l3.52-2.03v-3.33s-3.53,2.03-3.53,2.03v-1.49s11.56-6.68,11.56-6.68v1.5s-2.74,1.59-2.74,1.59v3.32s2.76-1.59,2.76-1.59v-.17l1.88-1.09v1.94ZM447.61,14.08v-3.33s-3.77,2.17-3.77,2.17v3.32s3.77-2.17,3.77-2.17M449.49,14.79v-.72s-1.25.72-1.25.72v.72s1.25-.72,1.25-.72M443.42,18.3v-.72s-1.25.72-1.25.72v.72s1.25-.72,1.25-.72"/>
    </g>
    <g>
      <path class="cls-16" d="M131.5,377.81c.4-.23.75-.05.75.43s-.34,1.05-.74,1.28c-.41.24-.74.04-.75-.43,0-.47.33-1.04.74-1.28Z"/>
      <path class="cls-2" d="M131.49,375.07c1.72-.99,3.13-.19,3.13,1.79,0,1.98-1.39,4.4-3.12,5.39-1.73,1-3.13.19-3.14-1.79,0-1.99,1.39-4.4,3.12-5.4ZM131.5,379.52c.4-.23.74-.82.74-1.28s-.34-.66-.75-.43c-.41.24-.74.81-.74,1.28,0,.47.34.66.75.43"/>
      <path class="cls-16" d="M117.15,386.14c.41-.24.74-.05.75.42,0,.47-.33,1.04-.74,1.28-.41.24-.74.05-.74-.42s.33-1.04.74-1.28Z"/>
      <polygon class="cls-15" points="136.14 358.35 136.17 367.7 130.54 370.95 130.51 361.6 136.14 358.35"/>
      <path class="cls-9" d="M117.5,347.52l-5.63,3.25,18.64,10.83,5.63-3.25-18.64-10.83ZM98.11,358.72l18.64,10.83,13.76-7.95-18.64-10.83-13.76,7.94Z"/>
      <path class="cls-2" d="M117.11,383.38c1.73-1,3.13-.2,3.14,1.79,0,1.98-1.39,4.4-3.12,5.39-1.73,1-3.13.2-3.14-1.78,0-1.99,1.39-4.41,3.12-5.4ZM117.16,387.84c.41-.24.74-.81.74-1.28,0-.47-.34-.66-.75-.42-.41.24-.74.81-.74,1.28s.33.66.74.42"/>
      <polygon class="cls-1" points="109.3 391.49 90.66 380.66 90.65 375.26 109.28 386.09 109.3 391.49"/>
      <polygon class="cls-13" points="116.78 378.17 98.14 367.34 98.12 360.16 116.76 370.99 116.78 378.17"/>
      <polygon class="cls-15" points="122.7 367.56 122.72 374.74 116.78 378.17 116.76 370.99 122.7 367.56"/>
      <polygon class="cls-9" points="109.27 382.51 90.63 371.67 98.14 367.34 116.78 378.17 109.27 382.51"/>
      <polygon class="cls-14" points="109.28 386.09 90.65 375.26 90.63 371.67 109.27 382.51 109.28 386.09"/>
      <polygon class="cls-1" points="116.76 370.99 98.12 360.16 98.11 358.72 116.75 369.55 116.76 370.99"/>
      <path class="cls-14" d="M136.17,367.7l-5.62,3.25-.03-9.35-13.76,7.95v1.44s5.95-3.43,5.95-3.43l.02,7.18-5.94,3.43-7.5,4.33v3.59s.03,5.39.03,5.39l2.5-1.44,2.19-1.26c0-1.99,1.39-4.41,3.12-5.4,1.73-1,3.13-.2,3.14,1.79l8.13-4.69c0-1.99,1.39-4.4,3.12-5.4,1.72-.99,3.13-.19,3.13,1.79l1.56-.9-.02-8.27Z"/>
      <path class="cls-5" d="M107.97,387.85c0,.98-.4,1.76-.88,1.76s-.88-.79-.88-1.76.4-1.76.88-1.76.88.79.88,1.76Z"/>
      <path class="cls-5" d="M93.42,379.33c0,.97-.4,1.76-.88,1.76s-.88-.79-.88-1.76.39-1.76.88-1.76.88.79.88,1.76Z"/>
    </g>
    <g>
      <path class="cls-16" d="M409.32,55.1c.24-.13.45-.03.45.24s-.2.58-.45.71c-.25.13-.45.02-.45-.24,0-.26.2-.58.45-.71Z"/>
      <path class="cls-2" d="M409.32,53.59c1.03-.55,1.88-.11,1.88.99,0,1.09-.84,2.43-1.87,2.98-1.04.55-1.88.11-1.89-.99,0-1.1.84-2.43,1.87-2.99ZM409.32,56.05c.24-.13.45-.45.45-.71s-.2-.37-.45-.24c-.25.13-.45.45-.45.71,0,.26.2.37.45.24"/>
      <path class="cls-16" d="M400.7,59.71c.25-.13.45-.03.45.23,0,.26-.2.57-.45.71-.25.13-.45.03-.45-.23s.2-.58.45-.71Z"/>
      <polygon class="cls-15" points="412.11 44.35 412.13 49.51 408.74 51.31 408.73 46.14 412.11 44.35"/>
      <path class="cls-9" d="M400.91,38.36l-3.38,1.8,11.2,5.99,3.38-1.8-11.2-5.99ZM389.26,44.55l11.2,5.99,8.27-4.39-11.2-5.99-8.27,4.39Z"/>
      <path class="cls-2" d="M400.67,58.18c1.04-.55,1.88-.11,1.89.99,0,1.09-.83,2.43-1.87,2.98-1.04.55-1.88.11-1.89-.99,0-1.1.83-2.43,1.87-2.99ZM400.7,60.65c.25-.13.45-.45.45-.71,0-.26-.2-.37-.45-.23-.25.13-.45.45-.45.71s.2.36.45.23"/>
      <polygon class="cls-1" points="395.98 62.66 384.78 56.68 384.77 53.69 395.97 59.68 395.98 62.66"/>
      <polygon class="cls-13" points="400.47 55.3 389.28 49.32 389.26 45.35 400.46 51.33 400.47 55.3"/>
      <polygon class="cls-15" points="404.03 49.44 404.05 53.41 400.47 55.3 400.46 51.33 404.03 49.44"/>
      <polygon class="cls-9" points="395.97 57.7 384.77 51.71 389.28 49.32 400.47 55.3 395.97 57.7"/>
      <polygon class="cls-14" points="395.97 59.68 384.77 53.69 384.77 51.71 395.97 57.7 395.97 59.68"/>
      <polygon class="cls-1" points="400.46 51.33 389.26 45.35 389.26 44.55 400.46 50.54 400.46 51.33"/>
      <path class="cls-14" d="M412.12,49.51l-3.38,1.8-.02-5.17-8.27,4.39v.8s3.57-1.9,3.57-1.9v3.97s-3.56,1.9-3.56,1.9l-4.51,2.39v1.98s.02,2.98.02,2.98l1.5-.8,1.31-.7c0-1.1.83-2.43,1.87-2.99,1.04-.55,1.88-.11,1.89.99l4.88-2.59c0-1.1.84-2.43,1.87-2.99,1.03-.55,1.88-.11,1.88.99l.94-.5v-4.57Z"/>
      <path class="cls-5" d="M395.18,60.65c0,.54-.24.97-.53.97s-.53-.44-.53-.97.24-.97.53-.97.53.44.53.97Z"/>
      <path class="cls-5" d="M386.44,55.94c0,.54-.24.97-.53.97s-.53-.44-.53-.97.24-.97.53-.97.53.44.53.97Z"/>
    </g>
    <g>
      <polygon class="cls-11" points="60.39 667.38 60.4 671.16 59.04 671.94 59.03 668.16 60.39 667.38"/>
      <path class="cls-4" d="M52.27,674.63c1.55-.89,2.81-.17,2.82,1.61,0,1.78-1.25,3.95-2.8,4.84-1.55.89-2.81.17-2.82-1.61,0-1.78,1.25-3.95,2.8-4.84ZM52.28,678.98c.55-.31.98-1.07.98-1.69,0-.63-.44-.88-.98-.56-.54.31-.98,1.07-.98,1.69s.44.87.98.56"/>
      <path class="cls-16" d="M52.27,676.73c.55-.31.98-.06.98.56,0,.63-.43,1.38-.98,1.69-.54.31-.98.07-.98-.56s.43-1.38.98-1.69Z"/>
      <polygon class="cls-3" points="56.6 665.67 31.63 651.15 35.4 648.98 60.37 663.49 56.6 665.67"/>
      <polygon class="cls-6" points="53.32 670.07 53.32 671.51 50.81 672.96 50.81 671.52 53.32 670.07"/>
      <polygon class="cls-15" points="51.07 662.52 56.59 659.34 56.6 665.67 56.6 666.01 51.09 669.19 51.07 662.52"/>
      <polygon class="cls-6" points="41.13 677.11 41.14 678.55 38.63 680 38.62 678.56 41.13 677.11"/>
      <path class="cls-16" d="M33.98,686.72c.54-.31.98-.06.98.56,0,.63-.44,1.39-.98,1.69-.54.31-.98.06-.98-.56s.43-1.38.98-1.69Z"/>
      <path class="cls-4" d="M33.98,684.63c1.55-.9,2.81-.18,2.82,1.6,0,.19-.01.38-.04.58-.23,1.64-1.37,3.46-2.76,4.26-1.38.8-2.53.3-2.76-1.08-.03-.17-.04-.34-.04-.53,0-1.79,1.24-3.95,2.79-4.84ZM33.99,688.97c.54-.31.98-1.07.98-1.69,0-.62-.45-.87-.98-.56-.54.31-.98,1.07-.98,1.69s.44.88.98.56"/>
      <polygon class="cls-15" points="42 674.44 41.98 667.76 49.53 663.41 49.55 670.08 42 674.44"/>
      <polygon class="cls-10" points="25 693.6 .03 679.08 .02 677.08 25 691.6 25 693.6"/>
      <polygon class="cls-3" points="24.98 683.93 0 669.41 8.41 664.56 33.39 679.07 24.98 683.93"/>
      <polygon class="cls-13" points="33.39 679.41 8.41 664.9 8.39 658.22 33.37 672.74 33.39 679.41"/>
      <polygon class="cls-15" points="33.39 679.41 33.37 672.74 40.43 668.66 40.45 675.33 33.39 679.41"/>
      <polygon class="cls-12" points="25 691.6 .02 677.08 0 672.64 24.99 687.15 25 691.6"/>
      <polygon class="cls-11" points="26.53 686.26 26.55 690.71 25 691.6 24.99 687.15 26.53 686.26"/>
      <polygon class="cls-10" points="33.37 672.74 8.39 658.22 8.38 655.22 33.36 669.74 33.37 672.74"/>
      <polygon class="cls-3" points="33.36 669.74 8.38 655.22 31.6 641.82 56.58 656.33 33.36 669.74"/>
      <polygon class="cls-10" points="24.99 687.15 0 672.64 0 669.41 24.98 683.93 24.99 687.15"/>
      <path class="cls-7" d="M60.39,667.38l-1.35.78v3.78s1.36-.78,1.36-.78v2s-5.31,3.07-5.31,3.07c0-1.78-1.27-2.5-2.82-1.61-1.54.89-2.8,3.07-2.8,4.84l-12.71,7.34c.03-.2.04-.39.04-.58,0-1.79-1.26-2.5-2.82-1.6-1.54.89-2.79,3.05-2.79,4.84,0,.19.02.36.04.53l-6.24,3.6v-2s1.54-.89,1.54-.89v-4.45s-1.56.89-1.56.89v-3.22s8.4-4.85,8.4-4.85v.34l7.07-4.08-.02-6.67-7.06,4.08v-2.99s23.21-13.41,23.21-13.41v3s-5.51,3.18-5.51,3.18l.02,6.67,5.51-3.18v-.34l3.77-2.18v3.89ZM49.55,670.08l-.02-6.67-7.54,4.36.02,6.67,7.54-4.35M53.32,671.51v-1.44s-2.52,1.45-2.52,1.45v1.44s2.52-1.45,2.52-1.45M41.14,678.55v-1.44s-2.52,1.45-2.52,1.45v1.44s2.52-1.45,2.52-1.45"/>
    </g>
    <g>
      <path class="cls-16" d="M160.54,669.03c.55-.32,1-.06,1,.57,0,.63-.44,1.4-.99,1.72-.55.32-1,.06-1-.57,0-.63.44-1.4.99-1.72Z"/>
      <path class="cls-2" d="M160.58,665.28c2.32-1.34,4.2-.27,4.21,2.39,0,2.66-1.87,5.9-4.18,7.24-2.31,1.34-4.19.26-4.2-2.4,0-2.66,1.86-5.89,4.17-7.23ZM160.55,671.32c.55-.32.99-1.08.99-1.72,0-.63-.45-.89-1-.57-.55.32-1,1.09-.99,1.72,0,.63.45.89,1,.57"/>
      <polygon class="cls-9" points="160.98 657.81 136.01 643.29 146.06 637.48 171.04 652 160.98 657.81"/>
      <path class="cls-16" d="M141.32,680.07c.55-.32,1-.06,1,.57,0,.63-.44,1.4-.99,1.72-.55.32-1,.06-1-.57s.44-1.4.99-1.72Z"/>
      <path class="cls-2" d="M141.31,676.4c2.32-1.34,4.19-.27,4.2,2.39,0,2.66-1.86,5.9-4.17,7.24s-4.2.26-4.21-2.4c0-2.66,1.87-5.89,4.18-7.23ZM141.33,682.35c.55-.32.99-1.08.99-1.72,0-.63-.45-.89-1-.57-.55.32-.99,1.09-.99,1.72s.45.89,1,.57"/>
      <polygon class="cls-15" points="160.96 648.17 160.98 657.81 153.02 662.4 152.99 652.77 160.96 648.17"/>
      <polygon class="cls-1" points="135.03 684.84 110.06 670.33 109.99 646.74 134.97 661.25 135.03 684.84"/>
      <polygon class="cls-13" points="135.01 673.77 110.03 659.25 109.99 646.74 134.97 661.25 135.01 673.77"/>
      <polygon class="cls-9" points="135.97 631.74 117.53 642.38 109.99 646.74 134.97 661.25 142.51 656.9 160.95 646.25 135.97 631.74"/>
      <polygon class="cls-15" points="142.51 656.9 142.54 669.41 135.01 673.77 134.97 661.25 142.51 656.9"/>
      <path class="cls-14" d="M171.05,656.82v-4.82s-10.07,5.81-10.07,5.81l-7.96,4.6-.03-9.63,7.96-4.6v-1.92s-18.44,10.65-18.44,10.65l.03,12.52-7.54,4.36-.04-12.52.07,23.59,2.1-1.21c0-2.66,1.87-5.89,4.18-7.23,2.32-1.34,4.19-.27,4.2,2.39l10.9-6.29c0-2.66,1.86-5.89,4.17-7.23s4.2-.27,4.21,2.39l2.93-1.69,3.35-1.94-.02-7.22Z"/>
      <path class="cls-8" d="M132.27,676.43c0,1.85-.88,3.35-1.97,3.35s-1.97-1.5-1.97-3.35.88-3.35,1.97-3.35,1.97,1.5,1.97,3.35Z"/>
      <path class="cls-8" d="M115.72,666.58c0,1.85-.88,3.35-1.97,3.35s-1.97-1.5-1.97-3.35.88-3.35,1.97-3.35,1.97,1.5,1.97,3.35Z"/>
    </g>
  </g>
</svg>