<?xml version="1.0" encoding="UTF-8"?>
<svg id="_레이어_2" data-name="레이어 2" xmlns="http://www.w3.org/2000/svg" viewBox="0 0 1007.4 582.14">
  <defs>
    <style>
      .cls-1 {
        fill: #f1bf08;
      }

      .cls-2 {
        fill: #b2b2b2;
        opacity: .43;
      }

      .cls-3 {
        fill: #483318;
      }

      .cls-4 {
        fill: #64c298;
      }

      .cls-5 {
        fill: #231f20;
      }

      .cls-6 {
        fill: #fff4c1;
      }

      .cls-7 {
        fill: #0a3542;
      }

      .cls-8 {
        fill: #14b57a;
      }

      .cls-9 {
        fill: none;
        stroke: #fff;
        stroke-width: 6.5px;
      }

      .cls-10 {
        fill: #f58e81;
      }

      .cls-11 {
        fill: #ffec5f;
      }

      .cls-12 {
        fill: #008a5f;
      }

      .cls-13 {
        fill: #e4d23b;
      }

      .cls-14 {
        fill: #006e52;
      }

      .cls-15 {
        fill: #64c8d0;
      }

      .cls-16 {
        fill: #fd0;
      }

      .cls-17 {
        fill: #b4e1e5;
      }

      .cls-18 {
        fill: #b0a67a;
      }
    </style>
  </defs>
  <g id="_주차장" data-name="주차장">
    <g>
      <polygon class="cls-2" points="0 356.53 634.01 0 1007.4 217.16 689.59 406.98 388.2 582.14 0 356.53"/>
      <g>
        <polygon class="cls-9" points="87.52 332.19 424.27 527.9 554.01 452.89 216.43 256.7 87.52 332.19"/>
        <g>
          <line class="cls-9" x1="129.4" y1="356.53" x2="258.8" y2="281.32"/>
          <line class="cls-9" x1="179.85" y1="385.3" x2="309.25" y2="310.1"/>
          <line class="cls-9" x1="230.31" y1="414.08" x2="359.71" y2="338.87"/>
          <line class="cls-9" x1="280.76" y1="442.85" x2="410.16" y2="367.65"/>
          <line class="cls-9" x1="331.21" y1="471.62" x2="460.61" y2="396.42"/>
          <line class="cls-9" x1="381.66" y1="500.4" x2="511.06" y2="425.19"/>
        </g>
        <line class="cls-9" x1="489.14" y1="490.39" x2="148.37" y2="292.35"/>
        <g>
          <polygon class="cls-13" points="315.93 401.62 315.94 405.4 314.59 406.18 314.58 402.4 315.93 401.62"/>
          <path class="cls-5" d="M307.81,408.87c1.55-.89,2.81-.17,2.82,1.61,0,1.78-1.25,3.95-2.8,4.84-1.55.89-2.81.17-2.82-1.61,0-1.78,1.25-3.95,2.8-4.84ZM307.83,413.22c.55-.31.98-1.07.98-1.69,0-.63-.44-.88-.98-.56-.54.31-.98,1.07-.98,1.69s.44.87.98.56"/>
          <path class="cls-18" d="M307.82,410.97c.55-.31.98-.06.98.56,0,.63-.43,1.38-.98,1.69-.54.31-.98.07-.98-.56s.43-1.38.98-1.69Z"/>
          <polygon class="cls-4" points="312.15 399.91 287.17 385.39 290.94 383.22 315.92 397.73 312.15 399.91"/>
          <polygon class="cls-7" points="308.87 404.31 308.87 405.75 306.36 407.2 306.36 405.76 308.87 404.31"/>
          <polygon class="cls-17" points="306.62 396.76 312.13 393.57 312.15 399.91 312.15 400.25 306.64 403.43 306.62 396.76"/>
          <polygon class="cls-7" points="296.68 411.35 296.69 412.79 294.17 414.24 294.17 412.8 296.68 411.35"/>
          <path class="cls-18" d="M289.53,420.96c.54-.31.98-.06.98.56,0,.63-.44,1.39-.98,1.69-.54.31-.98.06-.98-.56s.43-1.38.98-1.69Z"/>
          <path class="cls-5" d="M289.53,418.87c1.55-.9,2.81-.18,2.82,1.6,0,.19-.01.38-.04.58-.23,1.64-1.37,3.46-2.76,4.26-1.38.8-2.53.3-2.76-1.08-.03-.17-.04-.34-.04-.53,0-1.79,1.24-3.95,2.79-4.84ZM289.54,423.21c.54-.31.98-1.07.98-1.69,0-.62-.45-.87-.98-.56-.54.31-.98,1.07-.98,1.69s.44.88.98.56"/>
          <polygon class="cls-17" points="297.55 408.68 297.53 402 305.07 397.65 305.09 404.32 297.55 408.68"/>
          <polygon class="cls-12" points="280.55 427.84 255.57 413.32 255.57 411.32 280.54 425.84 280.55 427.84"/>
          <polygon class="cls-4" points="280.52 418.17 255.55 403.65 263.96 398.8 288.93 413.31 280.52 418.17"/>
          <polygon class="cls-15" points="288.93 413.65 263.96 399.14 263.94 392.46 288.92 406.97 288.93 413.65"/>
          <polygon class="cls-17" points="288.93 413.65 288.92 406.97 295.98 402.9 296 409.57 288.93 413.65"/>
          <polygon class="cls-14" points="280.54 425.84 255.57 411.32 255.55 406.88 280.53 421.39 280.54 425.84"/>
          <polygon class="cls-13" points="282.08 420.5 282.09 424.95 280.54 425.84 280.53 421.39 282.08 420.5"/>
          <polygon class="cls-12" points="288.92 406.97 263.94 392.46 263.93 389.46 288.91 403.98 288.92 406.97"/>
          <polygon class="cls-4" points="288.91 403.98 263.93 389.46 287.14 376.06 312.12 390.57 288.91 403.98"/>
          <polygon class="cls-12" points="280.53 421.39 255.55 406.88 255.55 403.65 280.52 418.17 280.53 421.39"/>
          <path class="cls-8" d="M315.93,401.62l-1.35.78v3.78s1.36-.78,1.36-.78v2s-5.31,3.07-5.31,3.07c0-1.78-1.27-2.5-2.82-1.61-1.54.89-2.8,3.07-2.8,4.84l-12.71,7.34c.03-.2.04-.39.04-.58,0-1.79-1.26-2.5-2.82-1.6-1.54.89-2.79,3.05-2.79,4.84,0,.19.02.36.04.53l-6.24,3.6v-2s1.54-.89,1.54-.89v-4.45s-1.56.89-1.56.89v-3.22s8.4-4.85,8.4-4.85v.34l7.07-4.08-.02-6.67-7.06,4.08v-2.99s23.21-13.41,23.21-13.41v3s-5.51,3.18-5.51,3.18l.02,6.67,5.51-3.18v-.34l3.77-2.18v3.89ZM305.09,404.32l-.02-6.67-7.54,4.36.02,6.67,7.54-4.35M308.87,405.75v-1.44s-2.52,1.45-2.52,1.45v1.44s2.52-1.45,2.52-1.45M296.69,412.79v-1.44s-2.52,1.45-2.52,1.45v1.44s2.52-1.45,2.52-1.45"/>
        </g>
        <g>
          <polygon class="cls-13" points="518.64 443.83 518.65 448.28 517.11 449.17 517.1 444.72 518.64 443.83"/>
          <path class="cls-18" d="M509.67,453.76c.54-.31.98-.05.98.56,0,.63-.44,1.38-.98,1.69-.55.31-.98.06-.98-.56,0-.62.43-1.38.98-1.69Z"/>
          <path class="cls-5" d="M509.65,451.69c1.55-.9,2.81-.18,2.82,1.6,0,.19-.01.38-.04.58-.23,1.65-1.37,3.46-2.76,4.27-1.38.8-2.53.3-2.77-1.08-.03-.16-.04-.34-.05-.53,0-1.79,1.25-3.95,2.8-4.84ZM509.68,456.02c.54-.31.98-1.07.98-1.69,0-.61-.44-.87-.98-.56-.55.31-.98,1.08-.98,1.69,0,.62.44.87.98.56"/>
          <polygon class="cls-4" points="510.21 445.47 485.24 430.95 493.65 426.09 518.63 440.61 510.21 445.47"/>
          <polygon class="cls-7" points="505 450.98 505.01 452.43 502.48 453.88 502.48 452.44 505 450.98"/>
          <path class="cls-5" d="M491.37,462.8c1.55-.9,2.81-.17,2.82,1.61,0,1.78-1.24,3.95-2.8,4.84-1.55.89-2.8.17-2.8-1.61,0-1.78,1.24-3.94,2.79-4.84ZM491.38,467.15c.54-.31.98-1.07.98-1.69,0-.63-.44-.87-.98-.56-.53.31-.97,1.07-.97,1.69,0,.63.44.88.98.56"/>
          <path class="cls-18" d="M491.37,464.9c.55-.31.98-.06.98.56,0,.63-.43,1.38-.98,1.69-.54.31-.97.06-.98-.56,0-.62.44-1.38.97-1.69Z"/>
          <polygon class="cls-17" points="503.14 443.2 510.2 439.13 510.21 445.47 510.21 445.8 503.16 449.88 503.14 443.2"/>
          <polygon class="cls-7" points="492.81 458.02 492.81 459.47 490.29 460.92 490.29 459.47 492.81 458.02"/>
          <polygon class="cls-12" points="483.25 470.72 458.28 456.2 458.27 454.2 483.25 468.72 483.25 470.72"/>
          <polygon class="cls-17" points="494.06 455.13 494.04 448.45 501.59 444.1 501.61 450.77 494.06 455.13"/>
          <polygon class="cls-13" points="484.59 464.15 484.61 467.93 483.25 468.72 483.24 464.94 484.59 464.15"/>
          <polygon class="cls-14" points="483.25 468.72 458.27 454.2 458.26 450.42 483.24 464.94 483.25 468.72"/>
          <polygon class="cls-4" points="483.23 461.04 458.25 446.53 462.02 444.35 487 458.87 483.23 461.04"/>
          <polygon class="cls-12" points="483.24 464.94 458.26 450.42 458.25 446.53 483.23 461.04 483.24 464.94"/>
          <polygon class="cls-17" points="487 459.2 486.98 452.53 492.49 449.35 492.51 456.02 487 459.2"/>
          <polygon class="cls-15" points="487 459.2 462.02 444.69 462 438.02 486.98 452.53 487 459.2"/>
          <polygon class="cls-12" points="486.98 452.53 462 438.02 461.99 435.02 486.97 449.54 486.98 452.53"/>
          <path class="cls-8" d="M518.64,443.83l-1.54.89v4.45s1.56-.89,1.56-.89v2s-6.23,3.6-6.23,3.6c.03-.2.04-.39.04-.58,0-1.78-1.26-2.5-2.82-1.6-1.54.89-2.8,3.06-2.8,4.84,0,.19.02.37.05.53l-12.72,7.34c0-1.78-1.26-2.5-2.82-1.61-1.55.89-2.79,3.06-2.79,4.84l-5.33,3.08v-2s1.35-.79,1.35-.79v-3.78s-1.37.79-1.37.79v-3.89s3.76-2.18,3.76-2.18v.34s5.52-3.18,5.52-3.18l-.02-6.67-5.51,3.18v-2.99s23.21-13.41,23.21-13.41v3s-7.05,4.08-7.05,4.08l.02,6.67,7.06-4.08v-.34l8.42-4.86v3.22ZM501.61,450.77l-.02-6.67-7.54,4.36.02,6.67,7.54-4.36M492.81,459.47v-1.45l-2.52,1.46v1.45l2.52-1.45M505.01,452.43v-1.45s-2.52,1.46-2.52,1.46v1.45l2.52-1.46"/>
          <polygon class="cls-4" points="486.97 449.54 461.99 435.02 485.21 421.62 510.19 436.13 486.97 449.54"/>
        </g>
        <g>
          <path class="cls-18" d="M160.13,324.51c.54-.31,1-.06,1,.57s-.45,1.41-.99,1.72c-.55.32-1,.05-1-.57,0-.63.44-1.4.99-1.72Z"/>
          <path class="cls-3" d="M160.12,320.84c2.31-1.33,4.19-.26,4.2,2.4,0,2.65-1.87,5.9-4.17,7.23-2.32,1.34-4.2.26-4.21-2.39,0-2.66,1.87-5.9,4.18-7.24ZM160.14,326.8c.54-.31.99-1.1.99-1.72s-.46-.88-1-.57c-.55.32-.99,1.09-.99,1.72,0,.63.45.89,1,.57"/>
          <path class="cls-18" d="M140.91,335.68c.55-.32,1-.06,1,.57,0,.63-.44,1.39-1,1.71-.55.32-1,.06-1-.56s.44-1.4.99-1.72Z"/>
          <polygon class="cls-17" points="166.35 298.43 166.39 310.95 158.85 315.31 158.81 302.79 166.35 298.43"/>
          <path class="cls-11" d="M141.37,283.92l-7.54,4.36,24.98,14.51,7.54-4.36-24.98-14.51ZM115.39,298.92l24.98,14.52,18.44-10.65-24.98-14.51-18.44,10.65Z"/>
          <path class="cls-3" d="M140.84,331.97c2.31-1.34,4.2-.26,4.21,2.4,0,2.65-1.86,5.89-4.18,7.23s-4.2.26-4.21-2.39c0-2.66,1.86-5.9,4.18-7.24ZM140.91,337.95c.55-.32,1-1.08,1-1.71,0-.63-.45-.89-1-.57-.55.32-.99,1.08-.99,1.72s.45.88,1,.56"/>
          <polygon class="cls-1" points="130.38 342.84 105.4 328.32 105.38 321.09 130.36 335.61 130.38 342.84"/>
          <polygon class="cls-15" points="140.4 324.99 115.42 310.48 115.39 300.85 140.37 315.37 140.4 324.99"/>
          <polygon class="cls-17" points="148.34 310.77 148.36 320.39 140.4 324.99 140.37 315.37 148.34 310.77"/>
          <polygon class="cls-11" points="130.35 330.8 105.37 316.28 115.42 310.48 140.4 324.99 130.35 330.8"/>
          <polygon class="cls-16" points="130.36 335.61 105.38 321.09 105.37 316.28 130.35 330.8 130.36 335.61"/>
          <polygon class="cls-1" points="140.37 315.37 115.39 300.85 115.39 298.92 140.37 313.43 140.37 315.37"/>
          <path class="cls-16" d="M166.38,310.95l-7.54,4.36-.04-12.52-18.44,10.65v1.93s7.97-4.6,7.97-4.6l.03,9.63-7.97,4.6-10.05,5.81v4.81s.03,7.23.03,7.23l3.35-1.94,2.93-1.69c0-2.66,1.86-5.9,4.18-7.24,2.31-1.34,4.2-.26,4.21,2.4l10.89-6.29c0-2.66,1.87-5.9,4.18-7.24,2.31-1.33,4.19-.26,4.2,2.4l2.09-1.21-.03-11.08Z"/>
          <path class="cls-6" d="M128.6,337.96c0,1.31-.53,2.36-1.18,2.36s-1.18-1.06-1.18-2.36.53-2.36,1.18-2.36,1.18,1.06,1.18,2.36Z"/>
          <path class="cls-6" d="M109.11,326.54c0,1.3-.53,2.36-1.18,2.36s-1.18-1.06-1.18-2.36.53-2.36,1.18-2.36,1.18,1.06,1.18,2.36Z"/>
        </g>
        <g>
          <path class="cls-18" d="M210.85,352.89c.54-.31,1-.06,1,.57s-.45,1.41-.99,1.72c-.55.32-1,.05-1-.57,0-.63.44-1.4.99-1.72Z"/>
          <path class="cls-3" d="M210.84,349.22c2.31-1.33,4.19-.26,4.2,2.4,0,2.65-1.87,5.9-4.17,7.23-2.32,1.34-4.2.26-4.21-2.39,0-2.66,1.87-5.9,4.18-7.24ZM210.86,355.18c.54-.31.99-1.1.99-1.72s-.46-.89-1-.57c-.55.32-.99,1.09-.99,1.72,0,.63.45.89,1,.57"/>
          <path class="cls-18" d="M191.63,364.06c.55-.32,1-.06,1,.57,0,.63-.44,1.39-1,1.71-.55.32-1,.06-1-.56s.44-1.4.99-1.72Z"/>
          <polygon class="cls-17" points="217.08 326.81 217.11 339.33 209.57 343.69 209.53 331.16 217.08 326.81"/>
          <path class="cls-11" d="M192.1,312.3l-7.54,4.36,24.98,14.51,7.54-4.36-24.98-14.51ZM166.11,327.3l24.98,14.52,18.44-10.65-24.98-14.51-18.44,10.65Z"/>
          <path class="cls-3" d="M191.57,360.35c2.31-1.34,4.2-.26,4.21,2.4,0,2.65-1.86,5.89-4.18,7.23-2.32,1.34-4.2.26-4.21-2.39,0-2.66,1.86-5.9,4.18-7.24ZM191.63,366.33c.55-.32,1-1.08,1-1.71,0-.63-.45-.89-1-.57-.55.32-.99,1.08-.99,1.72s.45.88,1,.56"/>
          <polygon class="cls-1" points="181.1 371.22 156.12 356.7 156.11 349.47 181.08 363.99 181.1 371.22"/>
          <polygon class="cls-15" points="191.12 353.37 166.15 338.86 166.12 329.23 191.1 343.75 191.12 353.37"/>
          <polygon class="cls-17" points="199.06 339.15 199.09 348.77 191.12 353.37 191.1 343.75 199.06 339.15"/>
          <polygon class="cls-11" points="181.07 359.18 156.09 344.66 166.15 338.86 191.12 353.37 181.07 359.18"/>
          <polygon class="cls-16" points="181.08 363.99 156.11 349.47 156.09 344.66 181.07 359.18 181.08 363.99"/>
          <polygon class="cls-1" points="191.1 343.75 166.12 329.23 166.11 327.3 191.09 341.81 191.1 343.75"/>
          <path class="cls-16" d="M217.11,339.33l-7.54,4.36-.04-12.52-18.44,10.65v1.93s7.97-4.6,7.97-4.6l.03,9.63-7.97,4.6-10.05,5.81v4.81s.04,7.23.04,7.23l3.35-1.94,2.93-1.69c0-2.66,1.86-5.9,4.18-7.24,2.31-1.34,4.2-.26,4.21,2.4l10.89-6.29c0-2.66,1.87-5.9,4.18-7.24,2.31-1.33,4.19-.26,4.2,2.4l2.09-1.21-.03-11.08Z"/>
          <path class="cls-6" d="M179.32,366.34c0,1.31-.53,2.36-1.18,2.36s-1.18-1.06-1.18-2.36.53-2.36,1.18-2.36,1.18,1.06,1.18,2.36Z"/>
          <path class="cls-6" d="M159.83,354.92c0,1.3-.53,2.36-1.18,2.36s-1.18-1.06-1.18-2.36.53-2.36,1.18-2.36,1.18,1.06,1.18,2.36Z"/>
        </g>
        <g>
          <path class="cls-18" d="M325.19,345.61c.55-.32,1-.06,1,.57,0,.63-.44,1.4-.99,1.72-.55.32-1,.06-1-.57,0-.63.44-1.4.99-1.72Z"/>
          <path class="cls-3" d="M325.23,341.85c2.32-1.34,4.2-.27,4.21,2.39,0,2.66-1.87,5.9-4.18,7.24-2.31,1.34-4.19.26-4.2-2.4,0-2.66,1.86-5.89,4.17-7.23ZM325.2,347.9c.55-.32.99-1.08.99-1.72,0-.63-.45-.89-1-.57-.55.32-1,1.09-.99,1.72,0,.63.45.89,1,.57"/>
          <polygon class="cls-11" points="325.63 334.38 300.66 319.87 310.71 314.06 335.69 328.58 325.63 334.38"/>
          <path class="cls-18" d="M305.97,356.64c.55-.32,1-.06,1,.57,0,.63-.44,1.4-.99,1.72-.55.32-1,.06-1-.57s.44-1.4.99-1.72Z"/>
          <path class="cls-3" d="M305.96,352.98c2.32-1.34,4.19-.27,4.2,2.39,0,2.66-1.86,5.9-4.17,7.24s-4.2.26-4.21-2.4c0-2.66,1.87-5.89,4.18-7.23ZM305.98,358.93c.55-.32.99-1.08.99-1.72,0-.63-.45-.89-1-.57-.55.32-.99,1.09-.99,1.72s.45.89,1,.57"/>
          <polygon class="cls-17" points="325.61 324.75 325.63 334.38 317.67 338.98 317.65 329.35 325.61 324.75"/>
          <polygon class="cls-1" points="299.69 361.42 274.71 346.9 274.64 323.31 299.62 337.83 299.69 361.42"/>
          <polygon class="cls-15" points="299.66 350.35 274.68 335.83 274.64 323.31 299.62 337.83 299.66 350.35"/>
          <polygon class="cls-11" points="300.62 308.31 282.18 318.96 274.64 323.31 299.62 337.83 307.16 333.47 325.6 322.83 300.62 308.31"/>
          <polygon class="cls-17" points="307.16 333.47 307.2 345.99 299.66 350.35 299.62 337.83 307.16 333.47"/>
          <path class="cls-16" d="M335.7,333.4v-4.82s-10.07,5.81-10.07,5.81l-7.96,4.6-.03-9.63,7.96-4.6v-1.92s-18.44,10.65-18.44,10.65l.03,12.52-7.54,4.36-.04-12.51.07,23.59,2.1-1.21c0-2.66,1.87-5.89,4.18-7.23,2.32-1.34,4.19-.27,4.2,2.39l10.9-6.29c0-2.66,1.86-5.89,4.17-7.23,2.32-1.34,4.2-.27,4.21,2.39l2.93-1.69,3.35-1.94-.02-7.22Z"/>
          <path class="cls-10" d="M296.92,353c0,1.85-.88,3.35-1.97,3.35s-1.97-1.5-1.97-3.35.88-3.35,1.97-3.35,1.97,1.5,1.97,3.35Z"/>
          <path class="cls-10" d="M280.38,343.16c0,1.85-.88,3.35-1.97,3.35s-1.97-1.5-1.97-3.35.88-3.35,1.97-3.35,1.97,1.5,1.97,3.35Z"/>
        </g>
        <g>
          <path class="cls-18" d="M416.09,403.27c.55-.32,1-.06,1,.57,0,.63-.44,1.4-.99,1.72-.55.32-1,.06-1-.57,0-.63.44-1.4.99-1.72Z"/>
          <path class="cls-3" d="M416.13,399.52c2.32-1.34,4.2-.27,4.21,2.39,0,2.66-1.87,5.9-4.18,7.24-2.31,1.34-4.19.26-4.2-2.4,0-2.66,1.86-5.89,4.17-7.23ZM416.09,405.56c.55-.32.99-1.08.99-1.72,0-.63-.45-.89-1-.57-.55.32-1,1.09-.99,1.72,0,.63.45.89,1,.57"/>
          <polygon class="cls-11" points="416.53 392.05 391.56 377.53 401.61 371.72 426.58 386.24 416.53 392.05"/>
          <path class="cls-18" d="M396.87,414.31c.55-.32,1-.06,1,.57,0,.63-.44,1.4-.99,1.72-.55.32-1,.06-1-.57s.44-1.4.99-1.72Z"/>
          <path class="cls-3" d="M396.86,410.64c2.32-1.34,4.19-.27,4.2,2.39,0,2.66-1.86,5.9-4.17,7.24s-4.2.26-4.21-2.4c0-2.66,1.87-5.89,4.18-7.23ZM396.88,416.59c.55-.32.99-1.08.99-1.72,0-.63-.45-.89-1-.57-.55.32-.99,1.09-.99,1.72s.45.89,1,.57"/>
          <polygon class="cls-17" points="416.5 382.41 416.53 392.05 408.57 396.64 408.54 387.01 416.5 382.41"/>
          <polygon class="cls-1" points="390.58 419.08 365.61 404.57 365.54 380.98 390.51 395.49 390.58 419.08"/>
          <polygon class="cls-15" points="390.55 408.01 365.57 393.49 365.54 380.98 390.51 395.49 390.55 408.01"/>
          <polygon class="cls-11" points="391.52 365.98 373.08 376.62 365.54 380.98 390.51 395.49 398.06 391.14 416.5 380.49 391.52 365.98"/>
          <polygon class="cls-17" points="398.06 391.14 398.09 403.65 390.55 408.01 390.51 395.49 398.06 391.14"/>
          <path class="cls-16" d="M426.6,391.06v-4.82s-10.07,5.81-10.07,5.81l-7.96,4.6-.03-9.63,7.96-4.6v-1.92s-18.44,10.65-18.44,10.65l.03,12.52-7.54,4.36-.04-12.52.07,23.59,2.1-1.21c0-2.66,1.87-5.89,4.18-7.23,2.32-1.34,4.19-.27,4.2,2.39l10.9-6.29c0-2.66,1.86-5.89,4.17-7.23s4.2-.27,4.21,2.39l2.93-1.69,3.35-1.94-.02-7.22Z"/>
          <path class="cls-10" d="M387.81,410.67c0,1.85-.88,3.35-1.97,3.35s-1.97-1.5-1.97-3.35.88-3.35,1.97-3.35,1.97,1.5,1.97,3.35Z"/>
          <path class="cls-10" d="M371.27,400.82c0,1.85-.88,3.35-1.97,3.35s-1.97-1.5-1.97-3.35.88-3.35,1.97-3.35,1.97,1.5,1.97,3.35Z"/>
        </g>
      </g>
      <g>
        <polygon class="cls-9" points="282.08 219.5 618.83 415.21 748.57 340.21 411 144.01 282.08 219.5"/>
        <g>
          <line class="cls-9" x1="323.96" y1="243.84" x2="453.36" y2="168.64"/>
          <line class="cls-9" x1="374.42" y1="272.62" x2="503.82" y2="197.41"/>
          <line class="cls-9" x1="424.87" y1="301.39" x2="554.27" y2="226.19"/>
          <line class="cls-9" x1="475.32" y1="330.16" x2="604.72" y2="254.96"/>
          <line class="cls-9" x1="525.77" y1="358.94" x2="655.17" y2="283.73"/>
          <line class="cls-9" x1="576.23" y1="387.71" x2="705.63" y2="312.51"/>
        </g>
        <line class="cls-9" x1="683.7" y1="377.71" x2="342.94" y2="179.66"/>
        <g>
          <polygon class="cls-13" points="510.5 288.94 510.5 292.72 509.15 293.49 509.14 289.71 510.5 288.94"/>
          <path class="cls-5" d="M502.38,296.18c1.55-.89,2.81-.17,2.82,1.61,0,1.78-1.25,3.95-2.8,4.84-1.55.89-2.81.17-2.82-1.61,0-1.78,1.25-3.95,2.8-4.84ZM502.39,300.53c.55-.31.98-1.07.98-1.69,0-.63-.44-.88-.98-.56-.54.31-.98,1.07-.98,1.69s.44.87.98.56"/>
          <path class="cls-18" d="M502.38,298.28c.55-.31.98-.06.98.56,0,.63-.43,1.38-.98,1.69-.54.31-.98.07-.98-.56s.43-1.38.98-1.69Z"/>
          <polygon class="cls-4" points="506.71 287.22 481.73 272.71 485.51 270.53 510.48 285.04 506.71 287.22"/>
          <polygon class="cls-7" points="503.43 291.63 503.43 293.06 500.92 294.51 500.92 293.08 503.43 291.63"/>
          <polygon class="cls-17" points="501.18 284.07 506.69 280.89 506.71 287.22 506.71 287.56 501.2 290.74 501.18 284.07"/>
          <polygon class="cls-7" points="491.24 298.66 491.25 300.1 488.74 301.55 488.73 300.11 491.24 298.66"/>
          <path class="cls-18" d="M484.09,308.27c.54-.31.98-.06.98.56,0,.63-.44,1.39-.98,1.69-.54.31-.98.06-.98-.56s.43-1.38.98-1.69Z"/>
          <path class="cls-5" d="M484.09,306.19c1.55-.9,2.81-.18,2.82,1.6,0,.19-.01.38-.04.58-.23,1.64-1.37,3.46-2.76,4.26-1.38.8-2.53.3-2.76-1.08-.03-.17-.04-.34-.04-.53,0-1.79,1.24-3.95,2.79-4.84ZM484.1,310.52c.54-.31.98-1.07.98-1.69,0-.62-.45-.87-.98-.56-.54.31-.98,1.07-.98,1.69s.44.88.98.56"/>
          <polygon class="cls-17" points="492.11 295.99 492.09 289.32 499.64 284.96 499.66 291.64 492.11 295.99"/>
          <polygon class="cls-12" points="475.11 315.15 450.13 300.64 450.13 298.63 475.11 313.15 475.11 315.15"/>
          <polygon class="cls-4" points="475.09 305.48 450.11 290.96 458.52 286.11 483.5 300.63 475.09 305.48"/>
          <polygon class="cls-15" points="483.5 300.96 458.52 286.45 458.5 279.78 483.48 294.29 483.5 300.96"/>
          <polygon class="cls-17" points="483.5 300.96 483.48 294.29 490.54 290.21 490.56 296.88 483.5 300.96"/>
          <polygon class="cls-14" points="475.11 313.15 450.13 298.63 450.12 294.19 475.09 308.7 475.11 313.15"/>
          <polygon class="cls-13" points="476.64 307.81 476.66 312.26 475.11 313.15 475.09 308.7 476.64 307.81"/>
          <polygon class="cls-12" points="483.48 294.29 458.5 279.78 458.49 276.78 483.47 291.29 483.48 294.29"/>
          <polygon class="cls-4" points="483.47 291.29 458.49 276.78 481.71 263.37 506.69 277.89 483.47 291.29"/>
          <polygon class="cls-12" points="475.09 308.7 450.12 294.19 450.11 290.96 475.09 305.48 475.09 308.7"/>
          <path class="cls-8" d="M510.5,288.94l-1.35.78v3.78s1.36-.78,1.36-.78v2s-5.31,3.07-5.31,3.07c0-1.78-1.27-2.5-2.82-1.61-1.54.89-2.8,3.07-2.8,4.84l-12.71,7.34c.03-.2.04-.39.04-.58,0-1.79-1.26-2.5-2.82-1.6-1.54.89-2.79,3.05-2.79,4.84,0,.19.02.36.04.53l-6.24,3.6v-2s1.54-.89,1.54-.89v-4.45s-1.56.89-1.56.89v-3.22s8.4-4.85,8.4-4.85v.34l7.07-4.08-.02-6.67-7.06,4.08v-2.99s23.21-13.41,23.21-13.41v3s-5.51,3.18-5.51,3.18l.02,6.67,5.51-3.18v-.34l3.77-2.18v3.89ZM499.66,291.64l-.02-6.67-7.54,4.36.02,6.67,7.54-4.35M503.43,293.06v-1.44s-2.52,1.45-2.52,1.45v1.44s2.52-1.45,2.52-1.45M491.25,300.1v-1.44s-2.52,1.45-2.52,1.45v1.44s2.52-1.45,2.52-1.45"/>
        </g>
        <g>
          <polygon class="cls-13" points="713.2 331.14 713.22 335.59 711.67 336.48 711.66 332.03 713.2 331.14"/>
          <path class="cls-18" d="M704.23,341.08c.54-.31.98-.05.98.56,0,.63-.44,1.38-.98,1.69-.55.31-.98.06-.98-.56,0-.62.43-1.38.98-1.69Z"/>
          <path class="cls-5" d="M704.21,339.01c1.55-.9,2.81-.18,2.82,1.6,0,.19-.01.38-.04.58-.23,1.65-1.37,3.46-2.76,4.27-1.38.8-2.53.3-2.77-1.08-.03-.16-.04-.34-.05-.53,0-1.79,1.25-3.95,2.8-4.84ZM704.24,343.33c.54-.31.98-1.07.98-1.69,0-.61-.44-.87-.98-.56-.55.31-.98,1.08-.98,1.69,0,.62.44.87.98.56"/>
          <polygon class="cls-4" points="704.78 332.78 679.8 318.26 688.21 313.4 713.19 327.92 704.78 332.78"/>
          <polygon class="cls-7" points="699.57 338.3 699.57 339.74 697.05 341.2 697.05 339.75 699.57 338.3"/>
          <path class="cls-5" d="M685.93,350.12c1.55-.9,2.81-.17,2.82,1.61,0,1.78-1.24,3.95-2.8,4.84-1.55.89-2.8.17-2.8-1.61,0-1.78,1.24-3.94,2.79-4.84ZM685.94,354.47c.54-.31.98-1.07.98-1.69,0-.63-.44-.87-.98-.56-.53.31-.97,1.07-.97,1.69,0,.63.44.88.98.56"/>
          <path class="cls-18" d="M685.94,352.21c.55-.31.98-.06.98.56,0,.63-.43,1.38-.98,1.69-.54.31-.97.06-.98-.56,0-.62.44-1.38.97-1.69Z"/>
          <polygon class="cls-17" points="697.7 330.52 704.76 326.44 704.78 332.78 704.78 333.12 697.72 337.19 697.7 330.52"/>
          <polygon class="cls-7" points="687.38 345.33 687.38 346.78 684.86 348.23 684.86 346.79 687.38 345.33"/>
          <polygon class="cls-12" points="677.82 358.03 652.84 343.51 652.83 341.51 677.81 356.03 677.82 358.03"/>
          <polygon class="cls-17" points="688.63 342.44 688.61 335.77 696.15 331.41 696.17 338.08 688.63 342.44"/>
          <polygon class="cls-13" points="679.16 351.46 679.17 355.24 677.81 356.03 677.8 352.25 679.16 351.46"/>
          <polygon class="cls-14" points="677.81 356.03 652.83 341.51 652.82 337.73 677.8 352.25 677.81 356.03"/>
          <polygon class="cls-4" points="677.79 348.36 652.81 333.84 656.58 331.67 681.56 346.18 677.79 348.36"/>
          <polygon class="cls-12" points="677.8 352.25 652.82 337.73 652.81 333.84 677.79 348.36 677.8 352.25"/>
          <polygon class="cls-17" points="681.56 346.52 681.54 339.84 687.06 336.66 687.08 343.34 681.56 346.52"/>
          <polygon class="cls-15" points="681.56 346.52 656.59 332.01 656.57 325.33 681.54 339.84 681.56 346.52"/>
          <polygon class="cls-12" points="681.54 339.84 656.57 325.33 656.56 322.33 681.53 336.85 681.54 339.84"/>
          <path class="cls-8" d="M713.2,331.14l-1.54.89v4.45s1.56-.89,1.56-.89v2s-6.23,3.6-6.23,3.6c.03-.2.04-.39.04-.58,0-1.78-1.26-2.5-2.82-1.6-1.54.89-2.8,3.06-2.8,4.84,0,.19.02.37.05.53l-12.72,7.34c0-1.78-1.26-2.5-2.82-1.61-1.55.89-2.79,3.06-2.79,4.84l-5.33,3.08v-2s1.35-.79,1.35-.79v-3.78s-1.37.79-1.37.79v-3.89s3.76-2.18,3.76-2.18v.34s5.52-3.18,5.52-3.18l-.02-6.67-5.51,3.18v-2.99s23.21-13.41,23.21-13.41v3s-7.05,4.08-7.05,4.08l.02,6.67,7.06-4.08v-.34l8.42-4.86v3.22ZM696.17,338.08l-.02-6.67-7.54,4.36.02,6.67,7.54-4.36M687.38,346.78v-1.45l-2.52,1.46v1.45l2.52-1.45M699.57,339.74v-1.45s-2.52,1.46-2.52,1.46v1.45l2.52-1.46"/>
          <polygon class="cls-4" points="681.53 336.85 656.56 322.33 679.77 308.93 704.75 323.44 681.53 336.85"/>
        </g>
        <g>
          <path class="cls-18" d="M519.76,232.92c.55-.32,1-.06,1,.57,0,.63-.44,1.4-.99,1.72-.55.32-1,.06-1-.57,0-.63.44-1.4.99-1.72Z"/>
          <path class="cls-3" d="M519.8,229.17c2.32-1.34,4.2-.27,4.21,2.39,0,2.66-1.87,5.9-4.18,7.24-2.31,1.34-4.19.26-4.2-2.4,0-2.66,1.86-5.89,4.17-7.23ZM519.76,235.21c.55-.32.99-1.08.99-1.72,0-.63-.45-.89-1-.57-.55.32-1,1.09-.99,1.72,0,.63.45.89,1,.57"/>
          <polygon class="cls-11" points="520.2 221.7 495.22 207.18 505.27 201.37 530.25 215.89 520.2 221.7"/>
          <path class="cls-18" d="M500.53,243.96c.55-.32,1-.06,1,.57,0,.63-.44,1.4-.99,1.72-.55.32-1,.06-1-.57s.44-1.4.99-1.72Z"/>
          <path class="cls-3" d="M500.53,240.29c2.32-1.34,4.19-.27,4.2,2.39,0,2.66-1.86,5.9-4.17,7.24-2.32,1.34-4.2.26-4.21-2.4,0-2.66,1.87-5.89,4.18-7.23ZM500.54,246.24c.55-.32.99-1.08.99-1.72,0-.63-.45-.89-1-.57-.55.32-.99,1.09-.99,1.72s.45.89,1,.57"/>
          <polygon class="cls-17" points="520.17 212.06 520.2 221.7 512.23 226.29 512.21 216.66 520.17 212.06"/>
          <polygon class="cls-1" points="494.25 248.73 469.27 234.22 469.2 210.63 494.18 225.14 494.25 248.73"/>
          <polygon class="cls-15" points="494.22 237.66 469.24 223.14 469.2 210.63 494.18 225.14 494.22 237.66"/>
          <polygon class="cls-11" points="495.19 195.62 476.75 206.27 469.2 210.63 494.18 225.14 501.73 220.79 520.16 210.14 495.19 195.62"/>
          <polygon class="cls-17" points="501.73 220.79 501.76 233.3 494.22 237.66 494.18 225.14 501.73 220.79"/>
          <path class="cls-16" d="M530.27,220.71v-4.82s-10.07,5.81-10.07,5.81l-7.96,4.6-.03-9.63,7.96-4.6v-1.92s-18.44,10.65-18.44,10.65l.03,12.52-7.54,4.36-.04-12.51.07,23.59,2.1-1.21c0-2.66,1.87-5.89,4.18-7.23,2.32-1.34,4.19-.27,4.2,2.39l10.9-6.29c0-2.66,1.86-5.89,4.17-7.23,2.32-1.34,4.2-.27,4.21,2.39l2.93-1.69,3.35-1.94-.02-7.22Z"/>
          <path class="cls-10" d="M491.48,240.32c0,1.85-.88,3.35-1.97,3.35s-1.97-1.5-1.97-3.35.88-3.35,1.97-3.35,1.97,1.5,1.97,3.35Z"/>
          <path class="cls-10" d="M474.94,230.47c0,1.85-.88,3.35-1.97,3.35s-1.97-1.5-1.97-3.35.88-3.35,1.97-3.35,1.97,1.5,1.97,3.35Z"/>
        </g>
        <g>
          <path class="cls-18" d="M610.65,290.59c.55-.32,1-.06,1,.57,0,.63-.44,1.4-.99,1.72-.55.32-1,.06-1-.57,0-.63.44-1.4.99-1.72Z"/>
          <path class="cls-3" d="M610.69,286.83c2.32-1.34,4.2-.27,4.21,2.39,0,2.66-1.87,5.9-4.18,7.24-2.31,1.34-4.19.26-4.2-2.4,0-2.66,1.86-5.89,4.17-7.23ZM610.66,292.87c.55-.32.99-1.08.99-1.72,0-.63-.45-.89-1-.57-.55.32-1,1.09-.99,1.72,0,.63.45.89,1,.57"/>
          <polygon class="cls-11" points="611.09 279.36 586.12 264.84 596.17 259.04 621.15 273.55 611.09 279.36"/>
          <path class="cls-18" d="M591.43,301.62c.55-.32,1-.06,1,.57,0,.63-.44,1.4-.99,1.72-.55.32-1,.06-1-.57s.44-1.4.99-1.72Z"/>
          <path class="cls-3" d="M591.42,297.96c2.32-1.34,4.19-.27,4.2,2.39,0,2.66-1.86,5.9-4.17,7.24s-4.2.26-4.21-2.4c0-2.66,1.87-5.89,4.18-7.23ZM591.44,303.91c.55-.32.99-1.08.99-1.72,0-.63-.45-.89-1-.57-.55.32-.99,1.09-.99,1.72s.45.89,1,.57"/>
          <polygon class="cls-17" points="611.07 269.73 611.09 279.36 603.13 283.96 603.1 274.33 611.07 269.73"/>
          <polygon class="cls-1" points="585.14 306.4 560.17 291.88 560.1 268.29 585.08 282.81 585.14 306.4"/>
          <polygon class="cls-15" points="585.12 295.32 560.14 280.81 560.1 268.29 585.08 282.81 585.12 295.32"/>
          <polygon class="cls-11" points="586.08 253.29 567.64 263.94 560.1 268.29 585.08 282.81 592.62 278.45 611.06 267.81 586.08 253.29"/>
          <polygon class="cls-17" points="592.62 278.45 592.65 290.97 585.12 295.32 585.08 282.81 592.62 278.45"/>
          <path class="cls-16" d="M621.16,278.37v-4.82s-10.07,5.81-10.07,5.81l-7.96,4.6-.03-9.63,7.96-4.6v-1.92s-18.44,10.65-18.44,10.65l.03,12.52-7.54,4.36-.04-12.52.07,23.59,2.1-1.21c0-2.66,1.87-5.89,4.18-7.23,2.32-1.34,4.19-.27,4.2,2.39l10.9-6.29c0-2.66,1.86-5.89,4.17-7.23s4.2-.27,4.21,2.39l2.93-1.69,3.35-1.94-.02-7.22Z"/>
          <path class="cls-10" d="M582.37,297.98c0,1.85-.88,3.35-1.97,3.35s-1.97-1.5-1.97-3.35.88-3.35,1.97-3.35,1.97,1.5,1.97,3.35Z"/>
          <path class="cls-10" d="M565.83,288.13c0,1.85-.88,3.35-1.97,3.35s-1.97-1.5-1.97-3.35.88-3.35,1.97-3.35,1.97,1.5,1.97,3.35Z"/>
        </g>
      </g>
      <g>
        <polygon class="cls-9" points="469.28 106.21 806.03 301.91 935.77 226.91 598.2 30.72 469.28 106.21"/>
        <g>
          <line class="cls-9" x1="511.16" y1="130.55" x2="640.56" y2="55.34"/>
          <line class="cls-9" x1="561.62" y1="159.32" x2="691.02" y2="84.12"/>
          <line class="cls-9" x1="612.07" y1="188.09" x2="741.47" y2="112.89"/>
          <line class="cls-9" x1="662.52" y1="216.87" x2="791.92" y2="141.66"/>
          <line class="cls-9" x1="712.97" y1="245.64" x2="842.37" y2="170.44"/>
          <line class="cls-9" x1="763.43" y1="274.42" x2="892.83" y2="199.21"/>
        </g>
        <line class="cls-9" x1="870.9" y1="264.41" x2="530.14" y2="66.37"/>
        <g>
          <polygon class="cls-13" points="697.69 175.64 697.7 179.42 696.35 180.2 696.34 176.42 697.69 175.64"/>
          <path class="cls-5" d="M689.58,182.89c1.55-.89,2.81-.17,2.82,1.61,0,1.78-1.25,3.95-2.8,4.84-1.55.89-2.81.17-2.82-1.61,0-1.78,1.25-3.95,2.8-4.84ZM689.59,187.24c.55-.31.98-1.07.98-1.69,0-.63-.44-.88-.98-.56-.54.31-.98,1.07-.98,1.69s.44.87.98.56"/>
          <path class="cls-18" d="M689.58,184.98c.55-.31.98-.06.98.56,0,.63-.43,1.38-.98,1.69-.54.31-.98.07-.98-.56s.43-1.38.98-1.69Z"/>
          <polygon class="cls-4" points="693.91 173.93 668.93 159.41 672.71 157.24 697.68 171.75 693.91 173.93"/>
          <polygon class="cls-7" points="690.63 178.33 690.63 179.77 688.12 181.22 688.12 179.78 690.63 178.33"/>
          <polygon class="cls-17" points="688.38 170.78 693.89 167.59 693.91 173.93 693.91 174.26 688.4 177.45 688.38 170.78"/>
          <polygon class="cls-7" points="678.44 185.37 678.45 186.81 675.94 188.26 675.93 186.82 678.44 185.37"/>
          <path class="cls-18" d="M671.29,194.97c.54-.31.98-.06.98.56,0,.63-.44,1.39-.98,1.69-.54.31-.98.06-.98-.56s.43-1.38.98-1.69Z"/>
          <path class="cls-5" d="M671.29,192.89c1.55-.9,2.81-.18,2.82,1.6,0,.19-.01.38-.04.58-.23,1.64-1.37,3.46-2.76,4.26-1.38.8-2.53.3-2.76-1.08-.03-.17-.04-.34-.04-.53,0-1.79,1.24-3.95,2.79-4.84ZM671.3,197.23c.54-.31.98-1.07.98-1.69,0-.62-.45-.87-.98-.56-.54.31-.98,1.07-.98,1.69s.44.88.98.56"/>
          <polygon class="cls-17" points="679.31 182.69 679.29 176.02 686.84 171.67 686.86 178.34 679.31 182.69"/>
          <polygon class="cls-12" points="662.31 201.86 637.33 187.34 637.33 185.34 662.31 199.86 662.31 201.86"/>
          <polygon class="cls-4" points="662.29 192.19 637.31 177.67 645.72 172.81 670.7 187.33 662.29 192.19"/>
          <polygon class="cls-15" points="670.7 187.67 645.72 173.15 645.7 166.48 670.68 180.99 670.7 187.67"/>
          <polygon class="cls-17" points="670.7 187.67 670.68 180.99 677.74 176.91 677.76 183.59 670.7 187.67"/>
          <polygon class="cls-14" points="662.31 199.86 637.33 185.34 637.32 180.89 662.29 195.41 662.31 199.86"/>
          <polygon class="cls-13" points="663.84 194.52 663.86 198.96 662.31 199.86 662.29 195.41 663.84 194.52"/>
          <polygon class="cls-12" points="670.68 180.99 645.7 166.48 645.69 163.48 670.67 178 670.68 180.99"/>
          <polygon class="cls-4" points="670.67 178 645.69 163.48 668.91 150.08 693.89 164.59 670.67 178"/>
          <polygon class="cls-12" points="662.29 195.41 637.32 180.89 637.31 177.67 662.29 192.19 662.29 195.41"/>
          <path class="cls-8" d="M697.69,175.64l-1.35.78v3.78s1.36-.78,1.36-.78v2s-5.31,3.07-5.31,3.07c0-1.78-1.27-2.5-2.82-1.61-1.54.89-2.8,3.07-2.8,4.84l-12.71,7.34c.03-.2.04-.39.04-.58,0-1.79-1.26-2.5-2.82-1.6-1.54.89-2.79,3.05-2.79,4.84,0,.19.02.36.04.53l-6.24,3.6v-2s1.54-.89,1.54-.89v-4.45s-1.56.89-1.56.89v-3.22s8.4-4.85,8.4-4.85v.34l7.07-4.08-.02-6.67-7.06,4.08v-2.99s23.21-13.41,23.21-13.41v3s-5.51,3.18-5.51,3.18l.02,6.67,5.51-3.18v-.34l3.77-2.18v3.89ZM686.86,178.34l-.02-6.67-7.54,4.36.02,6.67,7.54-4.35M690.63,179.77v-1.44s-2.52,1.45-2.52,1.45v1.44s2.52-1.45,2.52-1.45M678.45,186.81v-1.44s-2.52,1.45-2.52,1.45v1.44s2.52-1.45,2.52-1.45"/>
        </g>
        <g>
          <polygon class="cls-13" points="900.4 217.85 900.42 222.29 898.87 223.19 898.86 218.74 900.4 217.85"/>
          <path class="cls-18" d="M891.43,227.78c.54-.31.98-.05.98.56,0,.63-.44,1.38-.98,1.69-.55.31-.98.06-.98-.56,0-.62.43-1.38.98-1.69Z"/>
          <path class="cls-5" d="M891.41,225.71c1.55-.9,2.81-.18,2.82,1.6,0,.19-.01.38-.04.58-.23,1.65-1.37,3.46-2.76,4.27-1.38.8-2.53.3-2.77-1.08-.03-.16-.04-.34-.05-.53,0-1.79,1.25-3.95,2.8-4.84ZM891.44,230.04c.54-.31.98-1.07.98-1.69,0-.61-.44-.87-.98-.56-.55.31-.98,1.08-.98,1.69,0,.62.44.87.98.56"/>
          <polygon class="cls-4" points="891.98 219.48 867 204.97 875.41 200.11 900.39 214.62 891.98 219.48"/>
          <polygon class="cls-7" points="886.76 225 886.77 226.45 884.25 227.9 884.25 226.46 886.76 225"/>
          <path class="cls-5" d="M873.13,236.82c1.55-.9,2.81-.17,2.82,1.61,0,1.78-1.24,3.95-2.8,4.84-1.55.89-2.8.17-2.8-1.61,0-1.78,1.24-3.94,2.79-4.84ZM873.14,241.17c.54-.31.98-1.07.98-1.69,0-.63-.44-.87-.98-.56-.53.31-.97,1.07-.97,1.69,0,.63.44.88.98.56"/>
          <path class="cls-18" d="M873.14,238.92c.55-.31.98-.06.98.56,0,.63-.43,1.38-.98,1.69-.54.31-.97.06-.98-.56,0-.62.44-1.38.97-1.69Z"/>
          <polygon class="cls-17" points="884.9 217.22 891.96 213.15 891.98 219.48 891.98 219.82 884.92 223.9 884.9 217.22"/>
          <polygon class="cls-7" points="874.58 232.04 874.58 233.49 872.06 234.94 872.06 233.49 874.58 232.04"/>
          <polygon class="cls-12" points="865.02 244.74 840.04 230.22 840.03 228.22 865.01 242.73 865.02 244.74"/>
          <polygon class="cls-17" points="875.83 229.14 875.81 222.47 883.35 218.12 883.37 224.79 875.83 229.14"/>
          <polygon class="cls-13" points="866.36 238.17 866.37 241.95 865.01 242.73 865 238.96 866.36 238.17"/>
          <polygon class="cls-14" points="865.01 242.73 840.03 228.22 840.02 224.44 865 238.96 865.01 242.73"/>
          <polygon class="cls-4" points="864.99 235.06 840.01 220.55 843.78 218.37 868.76 232.88 864.99 235.06"/>
          <polygon class="cls-12" points="865 238.96 840.02 224.44 840.01 220.55 864.99 235.06 865 238.96"/>
          <polygon class="cls-17" points="868.76 233.22 868.74 226.55 874.26 223.37 874.28 230.04 868.76 233.22"/>
          <polygon class="cls-15" points="868.76 233.22 843.79 218.71 843.77 212.04 868.74 226.55 868.76 233.22"/>
          <polygon class="cls-12" points="868.74 226.55 843.77 212.04 843.76 209.04 868.73 223.55 868.74 226.55"/>
          <path class="cls-8" d="M900.4,217.85l-1.54.89v4.45s1.56-.89,1.56-.89v2s-6.23,3.6-6.23,3.6c.03-.2.04-.39.04-.58,0-1.78-1.26-2.5-2.82-1.6-1.54.89-2.8,3.06-2.8,4.84,0,.19.02.37.05.53l-12.72,7.34c0-1.78-1.26-2.5-2.82-1.61-1.55.89-2.79,3.06-2.79,4.84l-5.33,3.08v-2s1.35-.79,1.35-.79v-3.78s-1.37.79-1.37.79v-3.89s3.76-2.18,3.76-2.18v.34s5.52-3.18,5.52-3.18l-.02-6.67-5.51,3.18v-2.99s23.21-13.41,23.21-13.41v3s-7.05,4.08-7.05,4.08l.02,6.67,7.06-4.08v-.34l8.42-4.86v3.22ZM883.37,224.79l-.02-6.67-7.54,4.36.02,6.67,7.54-4.36M874.58,233.49v-1.45l-2.52,1.46v1.45l2.52-1.45M886.77,226.45v-1.45s-2.52,1.46-2.52,1.46v1.45l2.52-1.46"/>
          <polygon class="cls-4" points="868.73 223.55 843.76 209.04 866.97 195.63 891.95 210.15 868.73 223.55"/>
        </g>
        <g>
          <path class="cls-18" d="M541.89,98.53c.54-.31,1-.06,1,.57s-.45,1.41-.99,1.72c-.55.32-1,.05-1-.57,0-.63.44-1.4.99-1.72Z"/>
          <path class="cls-3" d="M541.88,94.86c2.31-1.33,4.19-.26,4.2,2.4,0,2.65-1.87,5.9-4.17,7.23-2.32,1.34-4.2.26-4.21-2.39,0-2.66,1.87-5.9,4.18-7.24ZM541.9,100.82c.54-.31.99-1.1.99-1.72s-.46-.88-1-.57c-.55.32-.99,1.09-.99,1.72,0,.63.45.89,1,.57"/>
          <path class="cls-18" d="M522.67,109.69c.55-.32,1-.06,1,.57,0,.63-.44,1.39-1,1.71-.55.32-1,.06-1-.56s.44-1.4.99-1.72Z"/>
          <polygon class="cls-17" points="548.11 72.45 548.15 84.97 540.61 89.33 540.57 76.8 548.11 72.45"/>
          <path class="cls-11" d="M523.14,57.93l-7.54,4.36,24.98,14.51,7.54-4.36-24.98-14.51ZM497.15,72.94l24.98,14.52,18.44-10.65-24.98-14.51-18.44,10.65Z"/>
          <path class="cls-3" d="M522.61,105.99c2.31-1.34,4.2-.26,4.21,2.4,0,2.65-1.86,5.89-4.18,7.23-2.32,1.34-4.2.26-4.21-2.39,0-2.66,1.86-5.9,4.18-7.24ZM522.67,111.97c.55-.32,1-1.08,1-1.71,0-.63-.45-.89-1-.57-.55.32-.99,1.08-.99,1.72s.45.88,1,.56"/>
          <polygon class="cls-1" points="512.14 116.85 487.16 102.34 487.15 95.11 512.12 109.63 512.14 116.85"/>
          <polygon class="cls-15" points="522.16 99.01 497.19 84.5 497.16 74.87 522.14 89.39 522.16 99.01"/>
          <polygon class="cls-17" points="530.1 84.79 530.13 94.41 522.16 99.01 522.14 89.39 530.1 84.79"/>
          <polygon class="cls-11" points="512.11 104.82 487.13 90.3 497.19 84.5 522.16 99.01 512.11 104.82"/>
          <polygon class="cls-16" points="512.12 109.63 487.15 95.11 487.13 90.3 512.11 104.82 512.12 109.63"/>
          <polygon class="cls-1" points="522.14 89.39 497.16 74.87 497.15 72.94 522.13 87.45 522.14 89.39"/>
          <path class="cls-16" d="M548.15,84.97l-7.54,4.36-.04-12.52-18.44,10.65v1.93s7.97-4.6,7.97-4.6l.03,9.63-7.97,4.6-10.05,5.81v4.81s.03,7.23.03,7.23l3.35-1.94,2.93-1.69c0-2.66,1.86-5.9,4.18-7.24,2.31-1.34,4.2-.26,4.21,2.4l10.89-6.29c0-2.66,1.87-5.9,4.18-7.24,2.31-1.33,4.19-.26,4.2,2.4l2.09-1.21-.03-11.08Z"/>
          <path class="cls-6" d="M510.36,111.98c0,1.31-.53,2.36-1.18,2.36s-1.18-1.06-1.18-2.36.53-2.36,1.18-2.36,1.18,1.06,1.18,2.36Z"/>
          <path class="cls-6" d="M490.87,100.56c0,1.3-.53,2.36-1.18,2.36s-1.18-1.06-1.18-2.36.53-2.36,1.18-2.36,1.18,1.06,1.18,2.36Z"/>
        </g>
        <g>
          <path class="cls-18" d="M592.62,126.91c.54-.31,1-.06,1,.57s-.45,1.41-.99,1.72c-.55.32-1,.05-1-.57,0-.63.44-1.4.99-1.72Z"/>
          <path class="cls-3" d="M592.61,123.24c2.31-1.33,4.19-.26,4.2,2.4,0,2.65-1.87,5.9-4.17,7.23-2.32,1.34-4.2.26-4.21-2.39,0-2.66,1.87-5.9,4.18-7.24ZM592.62,129.2c.54-.31.99-1.1.99-1.72s-.46-.89-1-.57c-.55.32-.99,1.09-.99,1.72,0,.63.45.89,1,.57"/>
          <path class="cls-18" d="M573.39,138.07c.55-.32,1-.06,1,.57,0,.63-.44,1.39-1,1.71-.55.32-1,.06-1-.56s.44-1.4.99-1.72Z"/>
          <polygon class="cls-17" points="598.84 100.83 598.87 113.35 591.33 117.71 591.29 105.18 598.84 100.83"/>
          <path class="cls-11" d="M573.86,86.31l-7.54,4.36,24.98,14.51,7.54-4.36-24.98-14.51ZM547.88,101.32l24.98,14.52,18.44-10.65-24.98-14.51-18.44,10.65Z"/>
          <path class="cls-3" d="M573.33,134.37c2.31-1.34,4.2-.26,4.21,2.4,0,2.65-1.86,5.89-4.18,7.23-2.32,1.34-4.2.26-4.21-2.39,0-2.66,1.86-5.9,4.18-7.24ZM573.4,140.35c.55-.32,1-1.08,1-1.71,0-.63-.45-.89-1-.57-.55.32-.99,1.08-.99,1.72s.45.88,1,.56"/>
          <polygon class="cls-1" points="562.87 145.23 537.89 130.72 537.87 123.49 562.84 138.01 562.87 145.23"/>
          <polygon class="cls-15" points="572.88 127.39 547.91 112.88 547.88 103.25 572.86 117.76 572.88 127.39"/>
          <polygon class="cls-17" points="580.83 113.17 580.85 122.79 572.88 127.39 572.86 117.76 580.83 113.17"/>
          <polygon class="cls-11" points="562.83 133.2 537.85 118.68 547.91 112.88 572.88 127.39 562.83 133.2"/>
          <polygon class="cls-16" points="562.84 138.01 537.87 123.49 537.85 118.68 562.83 133.2 562.84 138.01"/>
          <polygon class="cls-1" points="572.86 117.76 547.88 103.25 547.88 101.32 572.85 115.83 572.86 117.76"/>
          <path class="cls-16" d="M598.87,113.35l-7.54,4.36-.04-12.52-18.44,10.65v1.93s7.97-4.6,7.97-4.6l.03,9.63-7.97,4.6-10.05,5.81v4.81s.04,7.23.04,7.23l3.35-1.94,2.93-1.69c0-2.66,1.86-5.9,4.18-7.24,2.31-1.34,4.2-.26,4.21,2.4l10.89-6.29c0-2.66,1.87-5.9,4.18-7.24,2.31-1.33,4.19-.26,4.2,2.4l2.09-1.21-.03-11.08Z"/>
          <path class="cls-6" d="M561.08,140.36c0,1.31-.53,2.36-1.18,2.36s-1.18-1.06-1.18-2.36.53-2.36,1.18-2.36,1.18,1.06,1.18,2.36Z"/>
          <path class="cls-6" d="M541.59,128.94c0,1.3-.53,2.36-1.18,2.36s-1.18-1.06-1.18-2.36.53-2.36,1.18-2.36,1.18,1.06,1.18,2.36Z"/>
        </g>
        <g>
          <path class="cls-18" d="M706.96,119.63c.55-.32,1-.06,1,.57,0,.63-.44,1.4-.99,1.72-.55.32-1,.06-1-.57,0-.63.44-1.4.99-1.72Z"/>
          <path class="cls-3" d="M707,115.87c2.32-1.34,4.2-.27,4.21,2.39,0,2.66-1.87,5.9-4.18,7.24-2.31,1.34-4.19.26-4.2-2.4,0-2.66,1.86-5.89,4.17-7.23ZM706.96,121.91c.55-.32.99-1.08.99-1.72,0-.63-.45-.89-1-.57-.55.32-1,1.09-.99,1.72,0,.63.45.89,1,.57"/>
          <polygon class="cls-11" points="707.4 108.4 682.42 93.88 692.47 88.08 717.45 102.59 707.4 108.4"/>
          <path class="cls-18" d="M687.73,130.66c.55-.32,1-.06,1,.57,0,.63-.44,1.4-.99,1.72-.55.32-1,.06-1-.57s.44-1.4.99-1.72Z"/>
          <path class="cls-3" d="M687.73,127c2.32-1.34,4.19-.27,4.2,2.39,0,2.66-1.86,5.9-4.17,7.24s-4.2.26-4.21-2.4c0-2.66,1.87-5.89,4.18-7.23ZM687.74,132.95c.55-.32.99-1.08.99-1.72,0-.63-.45-.89-1-.57-.55.32-.99,1.09-.99,1.72s.45.89,1,.57"/>
          <polygon class="cls-17" points="707.37 98.77 707.4 108.4 699.43 113 699.41 103.37 707.37 98.77"/>
          <polygon class="cls-1" points="681.45 135.44 656.47 120.92 656.4 97.33 681.38 111.85 681.45 135.44"/>
          <polygon class="cls-15" points="681.42 124.36 656.44 109.85 656.4 97.33 681.38 111.85 681.42 124.36"/>
          <polygon class="cls-11" points="682.39 82.33 663.95 92.98 656.4 97.33 681.38 111.85 688.93 107.49 707.36 96.85 682.39 82.33"/>
          <polygon class="cls-17" points="688.93 107.49 688.96 120.01 681.42 124.36 681.38 111.85 688.93 107.49"/>
          <path class="cls-16" d="M717.47,107.41v-4.82s-10.07,5.81-10.07,5.81l-7.96,4.6-.03-9.63,7.96-4.6v-1.92s-18.44,10.65-18.44,10.65l.03,12.52-7.54,4.36-.04-12.51.07,23.59,2.1-1.21c0-2.66,1.87-5.89,4.18-7.23,2.32-1.34,4.19-.27,4.2,2.39l10.9-6.29c0-2.66,1.86-5.89,4.17-7.23,2.32-1.34,4.2-.27,4.21,2.39l2.93-1.69,3.35-1.94-.02-7.22Z"/>
          <path class="cls-10" d="M678.68,127.02c0,1.85-.88,3.35-1.97,3.35s-1.97-1.5-1.97-3.35.88-3.35,1.97-3.35,1.97,1.5,1.97,3.35Z"/>
          <path class="cls-10" d="M662.14,117.17c0,1.85-.88,3.35-1.97,3.35s-1.97-1.5-1.97-3.35.88-3.35,1.97-3.35,1.97,1.5,1.97,3.35Z"/>
        </g>
        <g>
          <path class="cls-18" d="M797.85,177.29c.55-.32,1-.06,1,.57,0,.63-.44,1.4-.99,1.72-.55.32-1,.06-1-.57,0-.63.44-1.4.99-1.72Z"/>
          <path class="cls-3" d="M797.89,173.54c2.32-1.34,4.2-.27,4.21,2.39,0,2.66-1.87,5.9-4.18,7.24-2.31,1.34-4.19.26-4.2-2.4,0-2.66,1.86-5.89,4.17-7.23ZM797.86,179.58c.55-.32.99-1.08.99-1.72,0-.63-.45-.89-1-.57-.55.32-1,1.09-.99,1.72,0,.63.45.89,1,.57"/>
          <polygon class="cls-11" points="798.29 166.06 773.32 151.55 783.37 145.74 808.35 160.26 798.29 166.06"/>
          <path class="cls-18" d="M778.63,188.32c.55-.32,1-.06,1,.57,0,.63-.44,1.4-.99,1.72-.55.32-1,.06-1-.57s.44-1.4.99-1.72Z"/>
          <path class="cls-3" d="M778.62,184.66c2.32-1.34,4.19-.27,4.2,2.39,0,2.66-1.86,5.9-4.17,7.24s-4.2.26-4.21-2.4c0-2.66,1.87-5.89,4.18-7.23ZM778.64,190.61c.55-.32.99-1.08.99-1.72,0-.63-.45-.89-1-.57-.55.32-.99,1.09-.99,1.72s.45.89,1,.57"/>
          <polygon class="cls-17" points="798.27 156.43 798.29 166.06 790.33 170.66 790.3 161.03 798.27 156.43"/>
          <polygon class="cls-1" points="772.34 193.1 747.37 178.59 747.3 155 772.28 169.51 772.34 193.1"/>
          <polygon class="cls-15" points="772.32 182.03 747.34 167.51 747.3 155 772.28 169.51 772.32 182.03"/>
          <polygon class="cls-11" points="773.28 139.99 754.84 150.64 747.3 155 772.28 169.51 779.82 165.16 798.26 154.51 773.28 139.99"/>
          <polygon class="cls-17" points="779.82 165.16 779.85 177.67 772.32 182.03 772.28 169.51 779.82 165.16"/>
          <path class="cls-16" d="M808.36,165.08v-4.82s-10.07,5.81-10.07,5.81l-7.96,4.6-.03-9.63,7.96-4.6v-1.92s-18.44,10.65-18.44,10.65l.03,12.52-7.54,4.36-.04-12.52.07,23.59,2.1-1.21c0-2.66,1.87-5.89,4.18-7.23,2.32-1.34,4.19-.27,4.2,2.39l10.9-6.29c0-2.66,1.86-5.89,4.17-7.23s4.2-.27,4.21,2.39l2.93-1.69,3.35-1.94-.02-7.22Z"/>
          <path class="cls-10" d="M769.57,184.69c0,1.85-.88,3.35-1.97,3.35s-1.97-1.5-1.97-3.35.88-3.35,1.97-3.35,1.97,1.5,1.97,3.35Z"/>
          <path class="cls-10" d="M753.03,174.84c0,1.85-.88,3.35-1.97,3.35s-1.97-1.5-1.97-3.35.88-3.35,1.97-3.35,1.97,1.5,1.97,3.35Z"/>
        </g>
      </g>
    </g>
  </g>
</svg>