<?xml version="1.0" encoding="UTF-8"?>
<svg id="_레이어_2" data-name="레이어 2" xmlns="http://www.w3.org/2000/svg" viewBox="0 0 453.3 622.54">
  <defs>
    <style>
      .cls-1 {
        fill: #009442;
      }

      .cls-2 {
        fill: #2db34a;
      }
    </style>
  </defs>
  <g id="_풀" data-name="풀">
    <g>
      <path class="cls-2" d="M26.05,7.57c-.76-.44-1.53-.3-2.11.52l-6.59,9.35-2.96-7.68c-.44-1.13-1.01-1.9-1.59-2.24-.58-.33-1.15-.23-1.6.4L0,23.82l53.05,30.63-11.09-28.79c-.43-1.13-1.01-1.9-1.59-2.24-.58-.33-1.16-.23-1.6.4l-3.55,5.04-7.07-18.35c-.58-1.49-1.34-2.51-2.1-2.95Z"/>
      <path class="cls-1" d="M41.71,25.1h0c-.39-.82-.87-1.4-1.34-1.67-.58-.33-1.16-.23-1.6.4l-3.55,5.04-7.07-18.35c-.58-1.49-1.34-2.51-2.1-2.95-.76-.44-1.53-.3-2.11.52l-6.59,9.35-2.96-7.68c-.44-1.13-1.01-1.9-1.59-2.24-.09-.05-.18-.09-.26-.12-.03,0-.05-.02-.08-.02-.07-.02-.13-.03-.2-.04-.02,0-.05,0-.07,0-.08,0-.17,0-.25.02,0,0-.02,0-.03,0-.07.02-.14.05-.21.09-.01,0-.02,0-.03.01L24.27.15c.35-.2.74-.18,1.13.05.58.33,1.15,1.11,1.59,2.24l1.15,2.98L37.15.18c.46-.27.98-.24,1.5.06.76.44,1.52,1.46,2.1,2.95l6.08,15.78,5.01-2.91c.35-.2.74-.18,1.13.05.58.33,1.15,1.11,1.59,2.24l11.09,28.79-12.6,7.32-11.09-28.79c-.08-.2-.16-.39-.25-.57Z"/>
    </g>
    <g id="_레이어_27" data-name="레이어 27">
      <g>
        <path class="cls-2" d="M405.25,126.31c-.92-.53-1.85-.37-2.56.63l-8,11.34-3.59-9.32c-.53-1.37-1.23-2.31-1.93-2.71-.7-.4-1.4-.28-1.94.48l-13.61,19.3,64.38,37.17-13.46-34.93c-.53-1.37-1.23-2.31-1.93-2.71-.7-.4-1.4-.28-1.94.48l-4.31,6.12-8.58-22.27c-.7-1.81-1.62-3.05-2.55-3.58Z"/>
        <path class="cls-1" d="M424.26,147.59h0c-.48-1-1.05-1.7-1.63-2.03-.7-.4-1.4-.28-1.94.48l-4.31,6.12-8.58-22.27c-.7-1.81-1.62-3.05-2.55-3.58-.92-.53-1.85-.37-2.56.63l-8,11.34-3.59-9.32c-.53-1.37-1.23-2.31-1.93-2.71-.11-.06-.21-.11-.32-.14-.03-.01-.06-.02-.09-.03-.08-.02-.16-.04-.24-.04-.03,0-.06,0-.09,0-.1,0-.2,0-.31.03-.01,0-.02.01-.03.01-.09.03-.17.06-.26.11-.01,0-.03,0-.04.02l15.28-8.88c.42-.24.9-.22,1.37.06.7.4,1.4,1.34,1.93,2.71l1.39,3.62,10.93-6.35c.56-.33,1.19-.29,1.82.08.92.54,1.85,1.77,2.55,3.58l7.38,19.15,6.08-3.53c.42-.25.9-.22,1.37.06.7.4,1.4,1.34,1.93,2.71l13.46,34.93-15.28,8.88-13.46-34.93c-.09-.24-.2-.47-.3-.69Z"/>
      </g>
    </g>
    <g id="_레이어_28" data-name="레이어 28">
      <g>
        <path class="cls-2" d="M50.91,565.64c-1.04-.53-2.09-.37-2.89.63l-9.02,11.34-4.05-9.32c-.6-1.37-1.38-2.31-2.18-2.71-.79-.4-1.58-.28-2.18.48l-15.36,19.3,72.66,37.17-15.19-34.93c-.6-1.37-1.38-2.31-2.17-2.71-.79-.4-1.58-.28-2.19.48l-4.87,6.12-9.69-22.27c-.79-1.81-1.83-3.05-2.87-3.58Z"/>
        <path class="cls-1" d="M72.36,586.92h0c-.54-1-1.19-1.7-1.83-2.03-.79-.4-1.58-.28-2.19.48l-4.87,6.12-9.69-22.27c-.79-1.81-1.83-3.05-2.87-3.58-1.04-.53-2.09-.37-2.89.63l-9.02,11.34-4.05-9.32c-.6-1.37-1.38-2.31-2.18-2.71-.12-.06-.24-.11-.36-.14-.04-.01-.07-.02-.1-.03-.09-.02-.18-.04-.27-.04-.03,0-.07,0-.1,0-.12,0-.23,0-.34.03-.01,0-.03.01-.04.01-.1.03-.2.06-.29.11-.01,0-.03,0-.04.02l17.25-8.88c.48-.24,1.01-.22,1.55.06.79.4,1.58,1.34,2.18,2.71l1.57,3.62,12.34-6.35c.63-.33,1.34-.29,2.05.08,1.04.54,2.09,1.77,2.87,3.58l8.33,19.15,6.86-3.53c.48-.25,1.01-.22,1.55.06.79.4,1.58,1.34,2.17,2.71l15.19,34.93-17.25,8.88-15.19-34.93c-.11-.24-.22-.47-.34-.69Z"/>
      </g>
    </g>
  </g>
</svg>