<?xml version="1.0" encoding="UTF-8"?>
<svg id="_레이어_2" data-name="레이어 2" xmlns="http://www.w3.org/2000/svg" viewBox="0 0 1336.05 619.14">
  <defs>
    <style>
      .cls-1 {
        fill: #009c4e;
      }

      .cls-2 {
        fill: #64c298;
      }

      .cls-3 {
        fill: #f15f5a;
      }

      .cls-4 {
        isolation: isolate;
      }

      .cls-5 {
        fill: #e4d23b;
      }

      .cls-6 {
        fill: #bb8c80;
      }

      .cls-7 {
        fill: #d9b5ac;
      }
    </style>
  </defs>
  <g id="_화단" data-name="화단">
    <g>
      <polygon class="cls-7" points="843.83 85.01 818.07 100.79 684.38 26.85 710.14 11.07 843.83 85.01"/>
      <g>
        <polygon class="cls-6" points="689.15 28.32 686.5 26.85 710.25 12.31 841.71 85.01 839.31 86.48 710.51 15.24 689.15 28.32"/>
        <polygon class="cls-2" points="689.15 28.32 710.51 15.24 839.31 86.48 817.96 99.55 689.15 28.32"/>
      </g>
      <polygon class="cls-6" points="843.83 85.01 818.07 100.79 684.38 26.85 684.78 31.47 818.47 105.41 844.24 89.63 843.83 85.01"/>
      <g class="cls-4">
        <path class="cls-1" d="M723.52,9.99c.39-.24.78-.25,1.14.05,2.18,1.79-4.19,8.3-5.56,9.66l.57,6.29c.64-2.1,2.63-8.12,4.46-9.24.39-.24.78-.25,1.15.05,2.18,1.79-4.19,8.3-5.56,9.66l.57,6.3c.64-2.1,2.63-8.13,4.46-9.24.39-.24.78-.25,1.14.05,2.18,1.79-4.19,8.3-5.56,9.66l.14,1.54-.8.49-.08-.83c-1.54.38-8.23,1.82-6.61-2.25.27-.69.62-1.12,1.02-1.36,1.81-1.1,4.56,1.9,5.54,3.08l-.56-6.23c-1.54.38-8.23,1.82-6.61-2.25.28-.69.62-1.12,1.02-1.36,1.81-1.1,4.56,1.9,5.54,3.08l-.56-6.23c-1.54.38-8.23,1.83-6.6-2.24.28-.69.62-1.12,1.02-1.36,1.81-1.1,4.56,1.9,5.54,3.07l-.55-6.04c.11-.05.22-.11.34-.18.16-.1.31-.21.46-.33l.49,5.41c.64-2.09,2.63-8.12,4.46-9.24Z"/>
        <path class="cls-3" d="M720.51,2.16c1.45-.88,2.76-.17,2.92,1.6.16,1.76-.89,3.91-2.35,4.79-.24.15-.48.24-.71.3.04.16.08.32.09.5.14,1.57-.68,3.45-1.89,4.47-.15.12-.3.24-.46.33-.11.07-.23.13-.34.18-1.32.59-2.44-.15-2.59-1.77-.01-.16-.01-.31,0-.48-.17.15-.35.28-.53.39-1.46.89-2.76.17-2.92-1.58-.16-1.77.88-3.91,2.35-4.8.19-.12.38-.2.56-.26-.06-.19-.1-.4-.12-.64-.16-1.76.89-3.91,2.35-4.79,1.45-.88,2.77-.18,2.93,1.58.02.26,0,.53-.02.8.23-.23.47-.44.73-.6ZM717.77,9.41c.94-.57,1.61-1.94,1.5-3.07-.1-1.12-.94-1.59-1.88-1.02-.94.57-1.61,1.95-1.51,3.07.1,1.13.94,1.59,1.88,1.02"/>
        <path class="cls-5" d="M717.4,5.32c.94-.57,1.77-.11,1.88,1.02.1,1.13-.57,2.51-1.5,3.07-.94.57-1.77.12-1.88-1.02-.1-1.12.57-2.5,1.51-3.07Z"/>
      </g>
      <g class="cls-4">
        <path class="cls-1" d="M758.51,26.51c.39-.24.78-.25,1.14.05,2.18,1.79-4.19,8.3-5.56,9.66l.57,6.29c.64-2.1,2.63-8.12,4.46-9.24.39-.24.78-.25,1.15.05,2.18,1.79-4.19,8.3-5.56,9.66l.57,6.3c.64-2.1,2.63-8.13,4.46-9.24.39-.24.78-.25,1.14.05,2.18,1.79-4.19,8.3-5.56,9.66l.14,1.54-.8.49-.07-.83c-1.54.38-8.23,1.82-6.61-2.25.27-.69.62-1.12,1.02-1.36,1.81-1.1,4.56,1.9,5.54,3.08l-.56-6.23c-1.54.38-8.23,1.82-6.61-2.25.28-.69.62-1.12,1.02-1.36,1.81-1.1,4.56,1.9,5.54,3.08l-.56-6.23c-1.54.38-8.23,1.83-6.6-2.24.28-.69.62-1.12,1.02-1.36,1.81-1.1,4.56,1.9,5.54,3.07l-.55-6.04c.11-.05.22-.11.34-.18.16-.1.31-.21.46-.33l.49,5.41c.64-2.09,2.63-8.12,4.46-9.24Z"/>
        <path class="cls-3" d="M755.5,18.68c1.45-.88,2.76-.17,2.92,1.6.16,1.76-.89,3.91-2.35,4.79-.24.15-.48.24-.71.3.04.16.08.32.09.5.14,1.57-.68,3.45-1.89,4.47-.15.12-.3.24-.46.33-.11.07-.23.13-.34.18-1.32.59-2.44-.15-2.59-1.77-.01-.16-.01-.31,0-.48-.17.15-.35.28-.53.39-1.46.89-2.76.17-2.92-1.58-.16-1.77.88-3.91,2.35-4.8.19-.12.38-.2.56-.26-.06-.19-.1-.4-.12-.64-.16-1.76.89-3.91,2.35-4.79,1.45-.88,2.77-.18,2.93,1.58.02.26,0,.53-.02.8.23-.23.47-.44.73-.6ZM752.76,25.93c.94-.57,1.61-1.94,1.5-3.07-.1-1.12-.94-1.59-1.88-1.02-.94.57-1.61,1.95-1.51,3.07.1,1.13.94,1.59,1.88,1.02"/>
        <path class="cls-5" d="M752.39,21.84c.94-.57,1.77-.11,1.88,1.02.1,1.13-.57,2.5-1.5,3.07-.94.57-1.77.12-1.88-1.02-.1-1.12.57-2.5,1.51-3.07Z"/>
      </g>
      <g class="cls-4">
        <path class="cls-1" d="M789.36,44.1c.39-.24.78-.25,1.14.05,2.18,1.79-4.19,8.3-5.56,9.66l.57,6.29c.64-2.1,2.63-8.12,4.46-9.24.39-.24.78-.25,1.15.05,2.18,1.79-4.19,8.3-5.56,9.66l.57,6.3c.64-2.1,2.63-8.13,4.46-9.24.39-.24.78-.25,1.14.05,2.18,1.79-4.19,8.3-5.56,9.66l.14,1.54-.8.49-.07-.83c-1.54.38-8.23,1.82-6.61-2.25.27-.69.62-1.12,1.02-1.36,1.81-1.1,4.56,1.9,5.54,3.08l-.56-6.23c-1.54.38-8.23,1.82-6.61-2.25.28-.69.62-1.12,1.02-1.36,1.81-1.1,4.56,1.9,5.54,3.08l-.56-6.23c-1.54.38-8.23,1.83-6.6-2.24.28-.69.62-1.12,1.02-1.36,1.81-1.1,4.56,1.9,5.54,3.07l-.55-6.04c.11-.05.22-.11.34-.18.16-.1.31-.21.46-.33l.49,5.41c.64-2.09,2.63-8.12,4.46-9.24Z"/>
        <path class="cls-3" d="M786.35,36.27c1.45-.88,2.76-.17,2.92,1.6.16,1.76-.89,3.91-2.35,4.79-.24.15-.48.24-.71.3.04.16.08.32.09.5.14,1.57-.68,3.45-1.89,4.47-.15.12-.3.24-.46.33-.11.07-.23.13-.34.18-1.32.59-2.44-.15-2.59-1.77-.01-.16-.01-.31,0-.48-.17.15-.35.28-.53.39-1.46.89-2.76.17-2.92-1.58-.16-1.77.88-3.91,2.35-4.8.19-.12.38-.2.56-.26-.06-.19-.1-.4-.12-.64-.16-1.76.89-3.91,2.35-4.79,1.45-.88,2.77-.18,2.93,1.58.02.26,0,.53-.02.8.23-.23.47-.44.73-.6ZM783.61,43.51c.94-.57,1.61-1.94,1.5-3.07-.1-1.12-.94-1.59-1.88-1.02-.94.57-1.61,1.95-1.51,3.07.1,1.13.94,1.59,1.88,1.02"/>
        <path class="cls-5" d="M783.24,39.42c.94-.57,1.77-.11,1.88,1.02.1,1.13-.57,2.5-1.5,3.07-.94.57-1.77.12-1.88-1.02-.1-1.12.57-2.5,1.51-3.07Z"/>
      </g>
      <g class="cls-4">
        <path class="cls-1" d="M822.1,61.93c.39-.24.78-.25,1.14.05,2.18,1.79-4.19,8.3-5.56,9.66l.57,6.29c.64-2.1,2.63-8.12,4.46-9.24.39-.24.78-.25,1.15.05,2.18,1.79-4.19,8.3-5.56,9.66l.57,6.3c.64-2.1,2.63-8.13,4.46-9.24.39-.24.78-.25,1.14.05,2.18,1.79-4.19,8.3-5.56,9.66l.14,1.54-.8.49-.08-.83c-1.54.38-8.23,1.82-6.61-2.25.27-.69.62-1.12,1.02-1.36,1.81-1.1,4.56,1.9,5.54,3.08l-.56-6.23c-1.54.38-8.23,1.82-6.61-2.25.28-.69.62-1.12,1.02-1.36,1.81-1.1,4.56,1.9,5.54,3.08l-.56-6.23c-1.54.38-8.23,1.83-6.6-2.24.28-.69.62-1.12,1.02-1.36,1.81-1.1,4.56,1.9,5.54,3.07l-.55-6.04c.11-.05.22-.11.34-.18.16-.1.31-.21.46-.33l.49,5.41c.64-2.09,2.63-8.12,4.46-9.24Z"/>
        <path class="cls-3" d="M819.09,54.1c1.45-.88,2.76-.17,2.92,1.6.16,1.76-.89,3.91-2.35,4.79-.24.15-.48.24-.71.3.04.16.08.32.09.5.14,1.57-.68,3.45-1.89,4.47-.15.12-.3.24-.46.33-.11.07-.23.13-.34.18-1.32.59-2.44-.15-2.59-1.77-.01-.16-.01-.31,0-.48-.17.15-.34.28-.53.39-1.46.89-2.76.17-2.92-1.59-.16-1.77.88-3.91,2.35-4.8.19-.12.38-.2.56-.26-.06-.19-.1-.4-.12-.64-.16-1.76.89-3.91,2.35-4.79,1.45-.88,2.77-.18,2.93,1.58.02.26,0,.53-.02.8.23-.23.47-.44.73-.6ZM816.35,61.34c.94-.57,1.61-1.94,1.5-3.07-.1-1.12-.94-1.59-1.88-1.02-.94.57-1.61,1.95-1.51,3.07.1,1.13.94,1.59,1.88,1.02"/>
        <path class="cls-5" d="M815.98,57.25c.94-.57,1.77-.11,1.88,1.02.1,1.13-.57,2.5-1.5,3.07-.94.57-1.77.12-1.88-1.02-.1-1.12.57-2.5,1.51-3.07Z"/>
      </g>
    </g>
    <g id="_레이어_29" data-name="레이어 29">
      <g>
        <polygon class="cls-7" points="1137.84 592.95 1172.7 613.21 1336.05 518.27 1301.2 498.01 1137.84 592.95"/>
        <g>
          <polygon class="cls-6" points="1330.08 520.15 1333.32 518.27 1301.2 499.6 1140.57 592.95 1143.81 594.83 1301.2 503.36 1330.08 520.15"/>
          <polygon class="cls-2" points="1330.08 520.15 1301.2 503.36 1143.81 594.83 1172.7 611.62 1330.08 520.15"/>
        </g>
        <polygon class="cls-6" points="1137.84 592.95 1172.7 613.21 1336.05 518.27 1336.05 524.21 1172.7 619.14 1137.84 598.89 1137.84 592.95"/>
        <g class="cls-4">
          <path class="cls-1" d="M1283.9,496.62c-.53-.31-1.03-.32-1.46.06-2.6,2.29,6.31,10.66,8.23,12.41l-.02,8.08c-1.06-2.69-4.29-10.43-6.77-11.86-.53-.31-1.03-.32-1.46.06-2.59,2.3,6.31,10.66,8.23,12.41l-.02,8.08c-1.06-2.69-4.29-10.44-6.77-11.87-.53-.31-1.03-.32-1.46.06-2.6,2.29,6.31,10.66,8.23,12.41v1.98s1.08.62,1.08.62v-1.06c2.02.49,10.78,2.33,8.23-2.9-.43-.88-.93-1.44-1.46-1.75-2.44-1.41-5.65,2.44-6.77,3.96l.02-8c2.02.49,10.77,2.33,8.23-2.9-.43-.88-.93-1.44-1.46-1.75-2.44-1.41-5.65,2.44-6.77,3.96l.02-8c2.02.49,10.77,2.34,8.23-2.88-.43-.89-.93-1.44-1.46-1.75-2.44-1.41-5.64,2.43-6.77,3.95l.02-7.75c-.15-.06-.3-.14-.45-.23-.21-.12-.42-.27-.63-.43l-.02,6.95c-1.06-2.68-4.29-10.43-6.77-11.86Z"/>
          <path class="cls-3" d="M1287.89,487.34c-.06-.34-.11-.69-.11-1.02,0-2.26,1.62-3.17,3.58-2.03,1.97,1.14,3.56,3.89,3.55,6.15,0,.31-.03.58-.08.82.25.08.49.19.75.34,1.98,1.14,3.56,3.89,3.55,6.16,0,2.26-1.6,3.18-3.57,2.04-.25-.14-.48-.3-.72-.5.03.22.05.42.05.62,0,2.09-1.37,3.03-3.12,2.28-.15-.06-.3-.14-.45-.23-.21-.12-.42-.27-.63-.43-1.67-1.31-2.94-3.73-2.93-5.74,0-.23.03-.43.06-.64-.3-.08-.62-.19-.95-.38-1.97-1.13-3.56-3.89-3.55-6.15,0-2.27,1.61-3.18,3.58-2.05.35.2.68.47,1,.77ZM1291.21,495.88c1.27.73,2.29.15,2.3-1.31,0-1.44-1.01-3.21-2.28-3.95-1.27-.73-2.29-.14-2.29,1.31,0,1.46,1.01,3.22,2.28,3.95"/>
          <path class="cls-5" d="M1291.23,490.62c-1.27-.73-2.29-.14-2.29,1.31,0,1.46,1.01,3.22,2.28,3.95,1.27.73,2.29.15,2.3-1.31,0-1.44-1.01-3.21-2.28-3.95Z"/>
        </g>
        <g class="cls-4">
          <path class="cls-1" d="M1240.82,517.83c-.53-.31-1.03-.32-1.46.06-2.6,2.29,6.31,10.66,8.23,12.41l-.02,8.08c-1.06-2.69-4.29-10.43-6.77-11.86-.53-.31-1.03-.32-1.46.06-2.59,2.29,6.31,10.66,8.23,12.41l-.02,8.08c-1.06-2.69-4.29-10.44-6.77-11.87-.53-.31-1.03-.32-1.46.06-2.6,2.29,6.31,10.66,8.23,12.41v1.98s1.08.62,1.08.62v-1.06c2.02.49,10.78,2.33,8.23-2.9-.43-.88-.93-1.44-1.46-1.75-2.44-1.41-5.65,2.44-6.77,3.96l.02-8c2.02.49,10.77,2.33,8.23-2.9-.43-.88-.93-1.44-1.46-1.75-2.44-1.41-5.65,2.44-6.77,3.96l.02-8c2.02.49,10.77,2.34,8.23-2.88-.43-.89-.93-1.44-1.46-1.75-2.44-1.41-5.64,2.43-6.77,3.95l.02-7.75c-.15-.06-.3-.14-.45-.23-.21-.12-.42-.27-.63-.43l-.02,6.95c-1.06-2.68-4.29-10.43-6.77-11.86Z"/>
          <path class="cls-3" d="M1244.81,508.55c-.06-.34-.11-.69-.11-1.02,0-2.26,1.62-3.17,3.58-2.03,1.97,1.14,3.56,3.89,3.55,6.15,0,.31-.03.57-.08.82.25.08.49.19.75.34,1.98,1.14,3.56,3.89,3.55,6.16,0,2.26-1.6,3.18-3.57,2.04-.25-.14-.48-.3-.72-.5.03.22.05.42.05.62,0,2.09-1.37,3.03-3.12,2.28-.15-.06-.3-.14-.45-.23-.21-.12-.42-.27-.63-.43-1.67-1.31-2.94-3.73-2.93-5.74,0-.23.03-.43.06-.64-.3-.08-.62-.19-.95-.38-1.97-1.13-3.56-3.89-3.55-6.15,0-2.27,1.61-3.18,3.58-2.05.35.2.68.47,1,.77ZM1248.14,517.09c1.27.73,2.29.15,2.3-1.31,0-1.44-1.01-3.21-2.28-3.95-1.27-.73-2.29-.14-2.29,1.31,0,1.46,1.01,3.22,2.28,3.95"/>
          <path class="cls-5" d="M1248.15,511.83c-1.27-.73-2.29-.14-2.29,1.31,0,1.46,1.01,3.22,2.28,3.95,1.27.73,2.29.15,2.3-1.31,0-1.44-1.01-3.21-2.28-3.95Z"/>
        </g>
        <g class="cls-4">
          <path class="cls-1" d="M1203.19,540.42c-.53-.31-1.03-.32-1.46.06-2.6,2.29,6.31,10.66,8.23,12.41l-.02,8.08c-1.06-2.69-4.29-10.43-6.77-11.86-.53-.31-1.03-.32-1.46.06-2.59,2.29,6.31,10.66,8.23,12.41l-.02,8.08c-1.06-2.69-4.29-10.44-6.77-11.87-.53-.31-1.03-.32-1.46.06-2.6,2.29,6.31,10.66,8.23,12.41v1.98s1.08.62,1.08.62v-1.06c2.02.49,10.78,2.33,8.23-2.9-.43-.88-.93-1.44-1.46-1.75-2.44-1.41-5.65,2.44-6.77,3.96l.02-8c2.02.49,10.77,2.33,8.23-2.9-.43-.88-.93-1.44-1.46-1.75-2.44-1.41-5.65,2.44-6.77,3.96l.02-8c2.02.49,10.77,2.34,8.23-2.88-.43-.89-.93-1.44-1.46-1.75-2.44-1.41-5.64,2.43-6.77,3.95l.02-7.75c-.15-.06-.3-.14-.45-.23-.21-.12-.42-.27-.63-.43l-.02,6.95c-1.06-2.68-4.29-10.43-6.77-11.86Z"/>
          <path class="cls-3" d="M1207.18,531.13c-.06-.34-.11-.69-.11-1.02,0-2.26,1.62-3.17,3.58-2.03,1.97,1.14,3.56,3.89,3.55,6.15,0,.31-.03.57-.08.82.25.08.49.19.75.34,1.98,1.14,3.56,3.89,3.55,6.16,0,2.26-1.6,3.18-3.57,2.04-.25-.14-.48-.3-.72-.5.03.22.05.42.05.62,0,2.09-1.37,3.03-3.12,2.28-.15-.06-.3-.14-.45-.23-.21-.12-.42-.27-.63-.43-1.67-1.31-2.94-3.73-2.93-5.74,0-.23.03-.43.06-.64-.3-.08-.62-.19-.95-.38-1.97-1.13-3.56-3.89-3.55-6.15,0-2.27,1.61-3.18,3.58-2.05.35.2.68.47,1,.77ZM1210.5,539.67c1.27.73,2.29.15,2.3-1.31,0-1.44-1.01-3.21-2.28-3.95-1.27-.73-2.29-.14-2.29,1.31,0,1.46,1.01,3.22,2.28,3.95"/>
          <path class="cls-5" d="M1210.52,534.41c-1.27-.73-2.29-.14-2.29,1.31,0,1.46,1.01,3.22,2.28,3.95,1.27.73,2.29.15,2.3-1.31,0-1.44-1.01-3.21-2.28-3.95Z"/>
        </g>
        <g class="cls-4">
          <path class="cls-1" d="M1163.15,563.31c-.53-.31-1.03-.32-1.46.06-2.6,2.29,6.31,10.66,8.23,12.41l-.02,8.08c-1.06-2.69-4.29-10.43-6.77-11.86-.53-.31-1.03-.32-1.46.06-2.59,2.29,6.31,10.66,8.23,12.41l-.02,8.08c-1.06-2.69-4.29-10.44-6.77-11.87-.53-.31-1.03-.32-1.46.06-2.6,2.3,6.31,10.66,8.23,12.41v1.98s1.08.62,1.08.62v-1.06c2.02.49,10.78,2.33,8.23-2.9-.43-.88-.93-1.44-1.46-1.75-2.44-1.41-5.65,2.44-6.77,3.96l.02-8c2.02.49,10.77,2.33,8.23-2.9-.43-.88-.93-1.44-1.46-1.75-2.44-1.41-5.65,2.44-6.77,3.96l.02-8c2.02.49,10.77,2.34,8.23-2.88-.43-.89-.93-1.44-1.46-1.75-2.44-1.41-5.64,2.43-6.77,3.95l.02-7.75c-.15-.06-.3-.14-.45-.23-.21-.12-.42-.27-.63-.43l-.02,6.95c-1.06-2.68-4.29-10.43-6.77-11.86Z"/>
          <path class="cls-3" d="M1167.14,554.02c-.06-.34-.11-.69-.11-1.02,0-2.26,1.62-3.17,3.58-2.03,1.97,1.14,3.56,3.89,3.55,6.15,0,.31-.03.57-.08.82.25.08.49.19.75.34,1.98,1.14,3.56,3.89,3.55,6.16,0,2.26-1.6,3.18-3.57,2.04-.25-.14-.48-.3-.72-.5.03.22.05.42.05.62,0,2.09-1.37,3.03-3.12,2.28-.15-.06-.3-.14-.45-.23-.21-.12-.42-.27-.63-.43-1.67-1.31-2.94-3.73-2.93-5.74,0-.23.03-.43.06-.64-.3-.08-.62-.19-.95-.38-1.97-1.13-3.56-3.89-3.55-6.15,0-2.27,1.61-3.18,3.58-2.05.35.2.68.47,1,.77ZM1170.47,562.56c1.27.73,2.29.15,2.29-1.31,0-1.44-1.01-3.21-2.28-3.95-1.27-.73-2.29-.14-2.29,1.31,0,1.46,1.01,3.22,2.28,3.95"/>
          <path class="cls-5" d="M1170.48,557.31c-1.27-.73-2.29-.14-2.29,1.31,0,1.46,1.01,3.22,2.28,3.95,1.27.73,2.29.15,2.29-1.31,0-1.44-1.01-3.21-2.28-3.95Z"/>
        </g>
      </g>
      <g id="_레이어_30" data-name="레이어 30">
        <g>
          <polygon class="cls-7" points="241.36 534.14 198.92 558.8 0 443.2 42.44 418.53 241.36 534.14"/>
          <g>
            <polygon class="cls-6" points="7.27 445.49 3.32 443.2 42.44 420.46 238.04 534.14 234.1 536.43 42.44 425.04 7.27 445.49"/>
            <polygon class="cls-2" points="7.27 445.49 42.44 425.04 234.1 536.43 198.92 556.87 7.27 445.49"/>
          </g>
          <polygon class="cls-6" points="241.36 534.14 198.92 558.8 0 443.2 0 450.42 198.92 566.03 241.36 541.37 241.36 534.14"/>
          <g class="cls-4">
            <path class="cls-1" d="M63.51,416.84c.65-.37,1.25-.39,1.78.07,3.16,2.79-7.69,12.98-10.02,15.11l.03,9.84c1.29-3.28,5.22-12.7,8.24-14.45.65-.37,1.25-.39,1.78.07,3.16,2.79-7.69,12.98-10.02,15.11l.03,9.84c1.29-3.28,5.22-12.71,8.24-14.45.65-.37,1.25-.39,1.78.07,3.16,2.79-7.69,12.98-10.02,15.11v2.41s-1.31.76-1.31.76v-1.3c-2.46.6-13.12,2.84-10.02-3.53.52-1.08,1.13-1.75,1.78-2.13,2.98-1.72,6.87,2.97,8.24,4.82l-.03-9.74c-2.46.6-13.12,2.84-10.02-3.53.53-1.08,1.13-1.75,1.78-2.13,2.98-1.72,6.88,2.98,8.24,4.82l-.03-9.74c-2.46.6-13.12,2.85-10.02-3.51.53-1.08,1.13-1.76,1.78-2.13,2.98-1.72,6.87,2.96,8.24,4.8l-.03-9.44c.18-.08.36-.17.55-.28.26-.15.52-.33.76-.52l.02,8.46c1.29-3.27,5.22-12.7,8.24-14.45Z"/>
            <path class="cls-3" d="M59.87,404.6c2.4-1.38,4.35-.27,4.35,2.5,0,2.75-1.93,6.11-4.33,7.49-.4.23-.79.37-1.15.47.04.25.08.5.08.78,0,2.45-1.54,5.4-3.57,6.99-.25.19-.5.37-.76.52-.19.11-.37.2-.55.28-2.14.92-3.79-.23-3.8-2.77,0-.25.02-.49.06-.76-.29.24-.58.43-.88.61-2.41,1.39-4.34.27-4.35-2.48,0-2.77,1.92-6.11,4.32-7.51.31-.18.61-.31.91-.41-.06-.3-.1-.62-.1-1,0-2.75,1.93-6.11,4.33-7.49,2.39-1.38,4.36-.28,4.36,2.48,0,.4-.06.83-.13,1.24.39-.35.79-.69,1.22-.93ZM54.6,415.93c1.54-.89,2.78-3.03,2.77-4.81,0-1.76-1.25-2.48-2.79-1.59-1.54.89-2.78,3.05-2.78,4.81,0,1.77,1.25,2.48,2.79,1.59"/>
            <path class="cls-5" d="M54.58,409.53c1.54-.89,2.79-.16,2.79,1.59,0,1.77-1.23,3.92-2.77,4.81-1.54.89-2.79.18-2.79-1.59,0-1.76,1.23-3.91,2.78-4.81Z"/>
          </g>
          <g class="cls-4">
            <path class="cls-1" d="M115.96,442.67c.65-.37,1.25-.39,1.78.07,3.16,2.79-7.69,12.98-10.02,15.11l.03,9.84c1.29-3.28,5.22-12.7,8.24-14.45.65-.37,1.25-.39,1.78.07,3.16,2.79-7.69,12.98-10.02,15.11l.03,9.84c1.29-3.28,5.22-12.71,8.24-14.45.65-.37,1.25-.39,1.78.07,3.16,2.79-7.69,12.98-10.02,15.11v2.41s-1.31.76-1.31.76v-1.3c-2.46.6-13.12,2.84-10.02-3.53.52-1.08,1.13-1.75,1.78-2.13,2.98-1.72,6.87,2.97,8.24,4.82l-.03-9.74c-2.46.6-13.12,2.84-10.02-3.53.53-1.08,1.13-1.75,1.78-2.13,2.98-1.72,6.88,2.98,8.24,4.82l-.03-9.74c-2.46.6-13.12,2.85-10.02-3.51.53-1.08,1.13-1.76,1.78-2.13,2.98-1.72,6.87,2.96,8.24,4.8l-.03-9.44c.18-.08.36-.17.55-.28.26-.15.52-.33.76-.52l.02,8.46c1.29-3.27,5.22-12.7,8.24-14.45Z"/>
            <path class="cls-3" d="M112.32,430.43c2.4-1.38,4.35-.27,4.35,2.5,0,2.75-1.93,6.11-4.33,7.49-.4.23-.79.37-1.15.47.04.25.08.5.08.78,0,2.45-1.54,5.4-3.57,6.99-.25.19-.5.37-.76.52-.19.11-.37.2-.55.28-2.14.92-3.79-.23-3.8-2.77,0-.25.02-.49.06-.76-.29.24-.58.43-.88.61-2.41,1.39-4.34.27-4.35-2.48,0-2.77,1.92-6.11,4.32-7.51.31-.18.61-.31.92-.41-.06-.3-.1-.62-.1-1,0-2.75,1.93-6.11,4.33-7.49,2.39-1.38,4.36-.28,4.36,2.48,0,.4-.06.83-.13,1.24.39-.35.79-.69,1.22-.93ZM107.05,441.75c1.54-.89,2.78-3.03,2.77-4.81,0-1.76-1.25-2.48-2.79-1.59-1.54.89-2.78,3.05-2.78,4.81,0,1.77,1.25,2.48,2.79,1.59"/>
            <path class="cls-5" d="M107.03,435.36c1.54-.89,2.79-.16,2.79,1.59,0,1.77-1.23,3.92-2.77,4.81-1.54.89-2.79.18-2.79-1.59,0-1.76,1.23-3.91,2.78-4.81Z"/>
          </g>
          <g class="cls-4">
            <path class="cls-1" d="M161.79,470.16c.65-.37,1.25-.39,1.78.07,3.16,2.79-7.69,12.98-10.02,15.11l.03,9.84c1.29-3.28,5.22-12.7,8.24-14.45.65-.37,1.25-.39,1.78.07,3.16,2.79-7.69,12.98-10.02,15.11l.03,9.84c1.29-3.28,5.22-12.71,8.24-14.45.65-.37,1.25-.39,1.78.07,3.16,2.79-7.69,12.98-10.02,15.11v2.41s-1.31.76-1.31.76v-1.3c-2.46.6-13.12,2.84-10.02-3.53.52-1.08,1.13-1.75,1.78-2.13,2.98-1.72,6.87,2.97,8.24,4.82l-.03-9.74c-2.46.6-13.12,2.84-10.02-3.53.53-1.08,1.13-1.75,1.78-2.13,2.98-1.72,6.88,2.98,8.24,4.82l-.03-9.74c-2.46.6-13.12,2.85-10.02-3.51.53-1.08,1.13-1.76,1.78-2.13,2.98-1.72,6.87,2.96,8.24,4.8l-.03-9.44c.18-.08.36-.17.55-.28.26-.15.52-.33.76-.52l.02,8.46c1.29-3.27,5.22-12.7,8.24-14.45Z"/>
            <path class="cls-3" d="M158.15,457.93c2.4-1.38,4.35-.27,4.35,2.5,0,2.75-1.93,6.11-4.33,7.49-.4.23-.79.37-1.15.47.04.25.08.5.08.78,0,2.45-1.54,5.4-3.57,6.99-.25.19-.5.37-.76.52-.19.11-.37.2-.55.28-2.14.92-3.79-.23-3.8-2.77,0-.25.02-.49.06-.76-.29.24-.58.43-.88.61-2.41,1.39-4.34.27-4.35-2.48,0-2.77,1.92-6.11,4.32-7.51.31-.18.61-.31.91-.41-.06-.3-.1-.62-.1-1,0-2.75,1.93-6.11,4.33-7.49,2.39-1.38,4.36-.28,4.36,2.48,0,.4-.06.83-.13,1.24.39-.35.79-.69,1.22-.93ZM152.88,469.25c1.54-.89,2.78-3.03,2.77-4.81,0-1.76-1.25-2.48-2.79-1.59-1.54.89-2.78,3.05-2.78,4.81,0,1.77,1.25,2.48,2.79,1.59"/>
            <path class="cls-5" d="M152.86,462.85c1.54-.89,2.79-.16,2.79,1.59,0,1.77-1.23,3.92-2.77,4.81-1.54.89-2.79.18-2.79-1.59,0-1.76,1.23-3.91,2.78-4.81Z"/>
          </g>
          <g class="cls-4">
            <path class="cls-1" d="M210.55,498.04c.65-.37,1.25-.39,1.78.07,3.16,2.79-7.69,12.98-10.02,15.11l.03,9.84c1.29-3.28,5.22-12.7,8.24-14.45.65-.37,1.25-.39,1.78.07,3.16,2.79-7.69,12.98-10.02,15.11l.03,9.84c1.29-3.28,5.22-12.71,8.24-14.45.65-.37,1.25-.39,1.78.07,3.16,2.79-7.69,12.98-10.02,15.11v2.41s-1.31.76-1.31.76v-1.3c-2.46.6-13.12,2.84-10.02-3.53.52-1.08,1.13-1.75,1.78-2.13,2.98-1.72,6.87,2.97,8.24,4.82l-.03-9.74c-2.46.6-13.12,2.84-10.02-3.53.53-1.08,1.13-1.75,1.78-2.13,2.98-1.72,6.88,2.97,8.24,4.82l-.03-9.74c-2.46.6-13.12,2.85-10.02-3.51.53-1.08,1.13-1.76,1.78-2.13,2.97-1.72,6.87,2.96,8.24,4.8l-.03-9.44c.18-.08.36-.17.55-.28.26-.15.52-.33.76-.52l.02,8.46c1.29-3.27,5.22-12.7,8.24-14.45Z"/>
            <path class="cls-3" d="M206.9,485.8c2.4-1.38,4.35-.27,4.35,2.5,0,2.75-1.93,6.11-4.33,7.49-.4.23-.79.37-1.15.47.04.25.08.5.08.78,0,2.45-1.54,5.4-3.57,6.99-.25.19-.5.37-.76.52-.19.11-.37.2-.55.28-2.14.92-3.79-.23-3.8-2.77,0-.25.02-.49.06-.76-.29.24-.58.43-.88.61-2.41,1.39-4.34.27-4.35-2.48,0-2.77,1.92-6.11,4.32-7.51.31-.18.61-.31.91-.41-.06-.3-.1-.62-.1-1,0-2.75,1.93-6.11,4.33-7.49,2.39-1.38,4.36-.28,4.36,2.48,0,.4-.06.83-.13,1.24.39-.35.79-.69,1.22-.93ZM201.64,497.13c1.54-.89,2.78-3.03,2.77-4.81,0-1.76-1.25-2.48-2.79-1.59-1.54.89-2.78,3.05-2.78,4.81,0,1.77,1.25,2.48,2.79,1.59"/>
            <path class="cls-5" d="M201.62,490.73c1.54-.89,2.79-.16,2.79,1.59,0,1.77-1.23,3.92-2.77,4.81-1.54.89-2.79.18-2.79-1.59,0-1.76,1.23-3.91,2.78-4.81Z"/>
          </g>
        </g>
      </g>
    </g>
  </g>
</svg>